<svg xmlns="http://www.w3.org/2000/svg" xmlns:xlink="http://www.w3.org/1999/xlink" width="500" zoomAndPan="magnify" viewBox="0 0 375 374.999991" height="500" preserveAspectRatio="xMidYMid meet" version="1.0"><path fill="#501616" d="M 276.6875 0.0351562 C 262.976562 -0.0703125 248.714844 13.046875 244.957031 21.1875 C 241.964844 26.980469 240.28125 32.921875 242.125 37.023438 C 244.535156 39.707031 253.429688 50.824219 257.59375 45.871094 C 259.757812 49.007812 270.765625 54.375 277.082031 55.195312 C 278.984375 55.441406 280.84375 55.488281 282.757812 55.558594 C 283.914062 55.597656 285.234375 55.648438 286.347656 55.992188 C 286.46875 56.03125 286.589844 56.078125 286.707031 56.125 C 287.414062 56.5625 288.011719 57.285156 288.425781 58.53125 C 290.082031 70.753906 292.4375 84.015625 298.601562 98.429688 C 297.613281 101.882812 296.625 105.335938 295.902344 108.855469 C 295.773438 109.480469 295.652344 110.105469 295.53125 110.730469 C 277.515625 94.429688 258.898438 94.335938 248.613281 108.671875 C 246.523438 106.441406 243.996094 104.464844 241.160156 103.394531 C 228.972656 98.792969 214.042969 101.777344 203.613281 109.832031 C 203.082031 109.582031 202.554688 109.347656 202.027344 109.117188 C 197.929688 107.328125 193.324219 105.789062 188.601562 104.886719 C 186.714844 100.929688 184.34375 96.867188 181.660156 92.425781 C 181.964844 90.21875 182.050781 87.886719 181.878906 85.375 C 182.515625 85.125 183.097656 84.679688 183.53125 84.03125 C 185.152344 81.613281 185.042969 79.773438 184.976562 78.636719 C 184.785156 75.445312 186.417969 73.496094 187.445312 70.59375 C 187.757812 69.710938 188.152344 68.515625 188.328125 67.28125 C 188.503906 66.046875 188.476562 64.742188 187.78125 63.691406 C 187.191406 62.800781 186.289062 62.332031 185.371094 62.125 C 184.453125 61.917969 183.5 61.9375 182.640625 61.992188 C 182.597656 61.992188 182.5625 62 182.519531 62 C 182.519531 61.890625 182.519531 61.78125 182.527344 61.667969 C 182.695312 55.226562 181.417969 49.003906 181.148438 42.75 L 181.113281 41.941406 L 180.636719 41.292969 C 180.570312 41.199219 180.515625 41.09375 180.46875 40.96875 C 180.328125 40.582031 180.25 39.859375 180.214844 39.105469 C 180.179688 38.351562 180.175781 37.566406 180.097656 36.914062 C 179.773438 34.15625 178.507812 32.015625 176.164062 30.511719 C 175.402344 30.019531 174.636719 29.554688 173.925781 29.050781 C 172.574219 28.101562 171.363281 26.890625 170.164062 25.65625 C 168.898438 24.355469 167.496094 23.292969 165.886719 22.460938 C 163.722656 21.34375 161.390625 20.730469 159.140625 20.132812 C 156.230469 19.355469 153.433594 18.574219 150.628906 17.53125 L 149.988281 17.289062 L 149.777344 17.210938 L 148.980469 17.480469 C 148.714844 17.550781 148.257812 17.597656 147.878906 17.652344 C 147.046875 17.765625 146.207031 17.875 145.367188 17.996094 C 143.054688 18.328125 140.730469 18.738281 138.449219 19.332031 C 136.472656 19.84375 134.046875 20.609375 131.9375 21.847656 C 129.828125 23.082031 127.996094 24.832031 127.398438 27.296875 C 127.140625 28.355469 126.304688 29.925781 125.734375 31.070312 C 125.027344 32.492188 123.902344 34.570312 123.65625 36.617188 C 122.167969 37.519531 121.371094 39.34375 120.84375 41.257812 C 120.285156 43.285156 120.039062 45.464844 119.847656 46.953125 C 118.066406 50.707031 119.59375 55.664062 120.046875 59.109375 C 120.339844 61.324219 120.875 63.640625 121.3125 65.78125 C 121.382812 66.125 121.453125 66.464844 121.523438 66.808594 C 121.226562 66.824219 120.914062 66.839844 120.578125 66.863281 C 119.722656 66.921875 118.773438 67.027344 117.890625 67.355469 C 117.007812 67.679688 116.175781 68.261719 115.707031 69.222656 C 115.15625 70.355469 115.304688 71.65625 115.640625 72.855469 C 115.976562 74.054688 116.523438 75.1875 116.953125 76.023438 C 118.351562 78.761719 120.230469 80.480469 120.464844 83.667969 C 120.546875 84.804688 120.679688 86.644531 122.605469 88.824219 C 123.371094 89.6875 124.382812 90.050781 125.375 90.011719 C 125.394531 90.34375 125.417969 90.671875 125.445312 91.003906 C 123.730469 95.449219 122.714844 100.363281 121.988281 105.347656 C 120.34375 105.710938 118.757812 106.328125 117.257812 107.21875 C 107.761719 109.84375 98.289062 113.609375 90.40625 119.496094 C 88.878906 119 87.351562 118.59375 85.859375 118.273438 L 85.640625 118.226562 L 85.445312 118.113281 C 77.140625 113.277344 69.011719 111.855469 59.769531 114.570312 C 57.097656 115.304688 54.515625 116.328125 52.066406 117.589844 C 49.457031 118.9375 46.984375 120.558594 44.707031 122.414062 L 44.625 122.480469 C 38.683594 127.347656 33.988281 133.914062 31.976562 141.382812 C 31.964844 141.425781 31.953125 141.46875 31.9375 141.515625 C 31.550781 142.980469 31.40625 144.523438 31.425781 146.039062 C 31.4375 147.054688 31.523438 148.074219 31.667969 149.082031 L 31.714844 149.398438 L 31.125 151.285156 C 30.328125 153.847656 28.441406 156.171875 26.679688 158.148438 C 25.894531 159.03125 25.085938 159.894531 24.28125 160.753906 C 22.660156 162.480469 21.023438 164.199219 19.539062 166.046875 C 17.089844 169.09375 14.898438 172.375 13.246094 175.925781 L 13.203125 176.019531 C 9.234375 184.609375 9.316406 192.925781 11.515625 202 C 11.851562 203.382812 12.234375 204.757812 12.640625 206.125 L 12.710938 206.355469 L 12.710938 206.378906 L 12.84375 206.808594 C 13.339844 208.398438 13.871094 209.972656 14.429688 211.542969 L 14.492188 211.71875 L 14.578125 211.882812 C 14.957031 212.605469 15.386719 213.308594 15.820312 214.003906 C 16.476562 215.054688 17.148438 216.097656 17.746094 217.183594 C 18.265625 218.128906 18.734375 219.117188 19.050781 220.152344 C 19.074219 220.222656 19.09375 220.289062 19.113281 220.359375 C 19.300781 220.976562 19.480469 221.597656 19.65625 222.222656 L 19.957031 223.300781 C 20.125 223.910156 20.289062 224.523438 20.457031 225.128906 C 20.65625 225.847656 20.855469 226.566406 21.066406 227.277344 L 23.722656 234.164062 C 24.582031 235.753906 25.632812 237.207031 26.972656 238.425781 C 28.105469 239.453125 29.386719 240.253906 30.792969 240.855469 C 31.109375 240.992188 31.429688 241.117188 31.75 241.238281 C 32.851562 241.65625 33.984375 242 35.132812 242.273438 C 36.339844 242.558594 37.566406 242.765625 38.800781 242.910156 L 39.648438 243.007812 L 39.996094 243.914062 C 40.1875 244.417969 40.441406 244.910156 40.710938 245.382812 C 43.273438 249.863281 49.535156 256.417969 53.597656 259.625 L 53.734375 259.730469 L 53.839844 259.867188 C 57.410156 264.476562 67.105469 266.152344 72.582031 266.929688 C 74.085938 267.144531 81.753906 268.128906 83.273438 268.292969 C 82.832031 271.183594 85.570312 280.277344 88.902344 286.929688 C 88.269531 289.886719 86.976562 308.957031 87.285156 311.953125 L 81.808594 319.25 L 83.265625 322.261719 L 81.300781 327.964844 L 83.203125 329.164062 L 79.625 334.472656 L 80.109375 336.25 L 75.015625 343.273438 L 76.519531 344.980469 L 74.65625 348.515625 C 83.191406 348.515625 89.882812 351.832031 97.542969 355.605469 C 99.519531 356.582031 101.535156 357.652344 103.585938 358.417969 C 106.464844 359.492188 109.480469 359.867188 112.492188 360.164062 L 115.382812 360.445312 L 114.042969 357.585938 C 113.5625 356.558594 113.160156 355.445312 112.8125 354.289062 C 112.917969 354.46875 113.023438 354.644531 113.132812 354.824219 C 115.15625 358.097656 118.078125 360.703125 120.703125 363.371094 L 121.15625 363.832031 L 121.777344 363.832031 C 122.753906 363.832031 123.730469 363.730469 124.714844 363.699219 C 129.414062 367.582031 135.414062 371.203125 140.910156 373.179688 C 143.351562 374.0625 145.945312 374.710938 148.542969 374.882812 C 151.144531 374.710938 153.738281 374.0625 156.179688 373.179688 C 161.671875 371.203125 167.671875 367.582031 172.371094 363.699219 C 173.355469 363.730469 174.335938 363.832031 175.3125 363.832031 L 175.929688 363.832031 L 176.386719 363.371094 C 179.011719 360.703125 181.929688 358.097656 183.957031 354.824219 C 184.066406 354.644531 184.171875 354.46875 184.273438 354.289062 C 183.925781 355.445312 183.523438 356.558594 183.042969 357.585938 L 181.707031 360.445312 L 184.597656 360.164062 C 187.609375 359.867188 190.621094 359.492188 193.503906 358.417969 C 195.554688 357.652344 197.566406 356.582031 199.542969 355.605469 C 207.203125 351.832031 213.898438 348.515625 222.429688 348.515625 L 220.566406 344.980469 L 222.074219 343.273438 L 216.976562 336.25 L 217.460938 334.472656 L 214.691406 330.363281 C 215.621094 329.628906 216.308594 328.613281 216.578125 327.339844 C 217.070312 325.015625 215.933594 322.910156 214.136719 321.605469 L 214.40625 321.054688 C 216.507812 320.554688 218.320312 319.109375 218.800781 316.839844 C 219.347656 314.261719 217.886719 311.957031 215.753906 310.710938 C 218.210938 310.433594 220.476562 308.917969 221.019531 306.339844 C 221.566406 303.761719 220.109375 301.457031 217.976562 300.210938 C 220.429688 299.933594 222.699219 298.417969 223.242188 295.839844 C 223.789062 293.261719 222.328125 290.957031 220.199219 289.710938 C 222.652344 289.4375 224.917969 287.917969 225.464844 285.339844 C 226.179688 281.960938 223.453125 279.050781 220.273438 278.378906 L 214.773438 277.214844 C 215.609375 273.695312 216.332031 269.949219 217.207031 265.921875 C 219.71875 254.402344 219.242188 242.976562 225.179688 230.816406 C 225.25 230.785156 225.320312 230.75 225.390625 230.71875 L 229.742188 231.640625 C 232.921875 232.308594 236.59375 230.753906 237.308594 227.375 C 237.425781 226.816406 237.449219 226.265625 237.394531 225.738281 C 246.742188 219.929688 252.109375 209.457031 254.71875 199.023438 L 254.734375 198.945312 C 255.109375 197.191406 255.453125 195.429688 255.757812 193.664062 C 265.242188 196 274.644531 195.402344 282.457031 191.199219 L 284.234375 191.832031 C 288.433594 193.316406 293.792969 194.054688 298.21875 194.574219 C 301.234375 194.929688 304.269531 195.203125 307.296875 195.378906 C 315.238281 195.839844 322.882812 194.816406 329.878906 190.835938 C 337.222656 186.652344 342.707031 179.859375 347.476562 173.027344 L 347.589844 172.863281 L 347.679688 172.683594 C 349.046875 169.980469 349.960938 166.667969 351.792969 164.269531 C 356.660156 157.90625 363.8125 151.382812 361.863281 142.519531 C 361.53125 141.019531 361.0625 139.550781 360.484375 138.128906 C 359.917969 136.746094 359.25 135.410156 358.503906 134.121094 L 358.976562 133.40625 C 360.789062 130.664062 362.207031 124.40625 362.847656 121.152344 C 363.367188 118.5 363.808594 115.667969 363.90625 112.949219 C 365.773438 107.132812 360.382812 99.097656 354.292969 89.421875 C 342.699219 71.003906 323.542969 48.734375 313.015625 35.855469 C 302.488281 22.980469 295.492188 9.453125 282.5 0.941406 C 280.597656 0.332031 278.652344 0.0507812 276.691406 0.0351562 Z M 276.6875 0.0351562 " fill-opacity="1" fill-rule="evenodd"/><path fill="#fecf40" d="M 168.632812 164.417969 C 166.921875 164.417969 165.273438 165.980469 164.8125 168.160156 C 164.300781 170.582031 165.441406 172.90625 167.34375 173.308594 L 238.878906 188.441406 C 240.78125 188.839844 242.765625 187.183594 243.277344 184.757812 C 243.789062 182.335938 242.648438 180.011719 240.746094 179.613281 L 169.210938 164.480469 C 169.019531 164.4375 168.824219 164.417969 168.632812 164.417969 Z M 166.414062 174.917969 C 164.703125 174.917969 163.050781 176.476562 162.589844 178.660156 C 162.078125 181.082031 163.21875 183.402344 165.121094 183.804688 C 188.96875 188.851562 212.8125 193.894531 236.65625 198.9375 C 238.558594 199.339844 240.542969 197.683594 241.054688 195.257812 C 241.570312 192.835938 240.429688 190.515625 238.523438 190.113281 C 214.679688 185.066406 190.832031 180.023438 166.988281 174.976562 C 166.796875 174.9375 166.605469 174.917969 166.414062 174.917969 Z M 164.191406 185.417969 C 162.480469 185.417969 160.832031 186.980469 160.371094 189.160156 C 159.855469 191.582031 161 193.902344 162.902344 194.304688 C 186.746094 199.351562 210.589844 204.394531 234.4375 209.441406 C 236.339844 209.839844 238.320312 208.179688 238.835938 205.757812 C 239.347656 203.335938 238.207031 201.015625 236.304688 200.609375 C 212.457031 195.566406 188.613281 190.523438 164.769531 185.476562 C 164.574219 185.4375 164.382812 185.417969 164.191406 185.417969 Z M 161.972656 195.917969 C 160.257812 195.917969 158.609375 197.480469 158.148438 199.65625 C 157.636719 202.082031 158.777344 204.402344 160.679688 204.804688 C 184.523438 209.851562 208.371094 214.894531 232.214844 219.9375 C 234.117188 220.339844 236.101562 218.683594 236.613281 216.257812 C 237.125 213.832031 235.988281 211.511719 234.082031 211.109375 C 210.238281 206.066406 186.390625 201.019531 162.546875 195.976562 C 162.355469 195.9375 162.164062 195.917969 161.972656 195.917969 Z M 159.75 206.417969 C 158.039062 206.417969 156.386719 207.980469 155.925781 210.160156 C 155.414062 212.582031 156.554688 214.902344 158.457031 215.304688 L 229.996094 230.4375 C 231.898438 230.839844 233.878906 229.183594 234.394531 226.757812 C 234.90625 224.332031 233.765625 222.011719 231.859375 221.613281 L 160.324219 206.476562 C 160.132812 206.4375 159.941406 206.417969 159.75 206.417969 Z M 147.90625 264.382812 C 146.195312 264.382812 144.542969 265.941406 144.082031 268.125 C 143.570312 270.546875 144.710938 272.867188 146.617188 273.269531 L 218.148438 288.402344 C 220.054688 288.804688 222.039062 287.144531 222.550781 284.722656 C 223.0625 282.296875 221.921875 279.976562 220.019531 279.574219 L 148.480469 264.441406 C 148.289062 264.402344 148.097656 264.382812 147.90625 264.382812 Z M 145.6875 274.878906 C 143.976562 274.878906 142.324219 276.441406 141.863281 278.625 C 141.351562 281.046875 142.492188 283.367188 144.394531 283.769531 C 168.238281 288.8125 192.082031 293.859375 215.929688 298.902344 C 217.832031 299.304688 219.816406 297.644531 220.328125 295.222656 C 220.839844 292.796875 219.699219 290.476562 217.796875 290.074219 C 193.953125 285.03125 170.105469 279.984375 146.261719 274.941406 C 146.070312 274.902344 145.878906 274.878906 145.6875 274.878906 Z M 143.464844 285.378906 C 141.753906 285.382812 140.101562 286.941406 139.640625 289.121094 C 139.128906 291.546875 140.269531 293.867188 142.171875 294.269531 C 166.019531 299.3125 189.863281 304.359375 213.707031 309.402344 C 215.613281 309.804688 217.59375 308.144531 218.105469 305.722656 C 218.621094 303.296875 217.480469 300.976562 215.578125 300.574219 C 191.730469 295.53125 167.886719 290.488281 144.039062 285.441406 C 143.847656 285.402344 143.65625 285.378906 143.464844 285.378906 Z M 141.242188 295.882812 C 139.53125 295.882812 137.882812 297.441406 137.417969 299.621094 C 136.90625 302.046875 138.046875 304.367188 139.949219 304.769531 C 163.796875 309.8125 187.640625 314.859375 211.488281 319.902344 C 213.390625 320.304688 215.375 318.644531 215.886719 316.222656 C 216.398438 313.796875 215.257812 311.476562 213.355469 311.074219 C 189.511719 306.027344 165.664062 300.984375 141.820312 295.941406 C 141.628906 295.902344 141.433594 295.882812 141.242188 295.882812 Z M 139.019531 306.382812 C 137.308594 306.382812 135.660156 307.941406 135.199219 310.121094 C 134.6875 312.546875 135.828125 314.867188 137.730469 315.269531 L 209.265625 330.402344 C 211.167969 330.804688 213.152344 329.144531 213.664062 326.722656 C 214.175781 324.296875 213.035156 321.976562 211.132812 321.574219 L 139.597656 306.441406 C 139.40625 306.402344 139.214844 306.382812 139.019531 306.382812 Z M 89 312.34375 L 82.835938 319.957031 L 90.351562 324.707031 L 84.585938 323.359375 L 83.273438 327.175781 L 89.773438 331.285156 L 84.613281 330.078125 L 80.804688 334.4375 L 91.132812 333.792969 L 82.902344 335.429688 L 76.632812 343.207031 L 93.527344 342.714844 L 79.785156 344.59375 C 79.710938 344.699219 79.632812 344.777344 79.574219 344.777344 L 79.417969 344.777344 L 77.046875 346.746094 C 84.570312 346.746094 92.230469 351.054688 98.1875 353.988281 C 103.84375 356.777344 105.148438 357.667969 112.628906 358.398438 C 111.304688 355.578125 110.5625 352.203125 109.710938 348.222656 C 100.570312 344.796875 97.3125 338.476562 93.789062 333.144531 C 97.984375 336.140625 104.433594 346.476562 110.148438 346.476562 C 110.464844 344.367188 111.214844 342.996094 111.964844 341.589844 C 111.046875 352.460938 116.074219 356.277344 121.769531 362.066406 C 122.6875 362.066406 123.839844 361.921875 125.234375 361.921875 C 128.4375 364.628906 138.867188 372.421875 148.539062 373.109375 C 158.210938 372.421875 168.640625 364.628906 171.847656 361.921875 C 173.242188 361.921875 174.390625 362.066406 175.308594 362.066406 C 181.007812 356.277344 186.03125 352.460938 185.113281 341.589844 C 185.863281 342.996094 186.613281 344.367188 186.929688 346.476562 C 192.648438 346.476562 199.09375 336.140625 203.289062 333.144531 C 199.765625 338.476562 196.511719 344.796875 187.367188 348.222656 C 186.515625 352.203125 185.773438 355.578125 184.453125 358.398438 C 191.929688 357.667969 193.238281 356.777344 198.894531 353.988281 C 204.847656 351.054688 212.507812 346.746094 220.035156 346.746094 L 217.660156 344.777344 L 217.507812 344.777344 C 217.445312 344.777344 217.367188 344.699219 217.296875 344.59375 L 203.550781 342.714844 L 220.445312 343.207031 L 214.175781 335.429688 L 205.945312 333.792969 L 216.273438 334.4375 L 213.394531 331.140625 C 212.054688 331.742188 210.480469 331.910156 209.015625 331.601562 L 207.410156 331.261719 L 207.304688 331.285156 L 207.359375 331.25 L 201.230469 329.953125 C 199.992188 333.152344 194.984375 336.515625 191.832031 338.4375 C 191.652344 338.578125 191.476562 338.6875 191.328125 338.746094 C 191.488281 338.648438 191.660156 338.542969 191.832031 338.4375 C 192.359375 338.039062 192.964844 337.40625 193.273438 337.105469 C 194.414062 335.988281 197.625 333.542969 199.207031 331.082031 C 197.269531 332.421875 192.726562 335.585938 185.347656 337.191406 C 192.328125 334.34375 196.5 331.273438 199.316406 329.546875 L 166.113281 322.523438 C 151.621094 329.226562 144.429688 328.980469 129.40625 321.789062 C 123.734375 319.074219 116.894531 320.011719 114.664062 320.011719 C 103.65625 320.011719 97.851562 316.304688 89.003906 312.34375 Z M 95.570312 328.402344 C 98.332031 329.417969 102.671875 333.496094 111.730469 337.191406 C 104.351562 335.585938 99.808594 332.421875 97.871094 331.082031 C 99.453125 333.542969 102.667969 335.988281 103.808594 337.105469 C 104.113281 337.40625 104.71875 338.039062 105.246094 338.4375 C 105.417969 338.542969 105.589844 338.648438 105.75 338.746094 C 105.601562 338.6875 105.429688 338.578125 105.246094 338.4375 C 101.578125 336.199219 95.390625 332.011719 95.570312 328.402344 Z M 104.144531 328.894531 C 106.265625 328.910156 110.132812 330.246094 116.058594 329.585938 C 111.28125 331.425781 107.492188 330.628906 105.875 330.296875 C 107.726562 331.78125 110.488281 332.53125 111.566406 333.019531 C 111.851562 333.148438 112.4375 333.441406 112.890625 333.5625 C 113.027344 333.582031 113.167969 333.597656 113.296875 333.613281 C 113.191406 333.628906 113.046875 333.605469 112.890625 333.5625 C 109.953125 333.199219 104.84375 332.21875 103.539062 328.933594 C 103.722656 328.90625 103.921875 328.890625 104.144531 328.894531 Z M 192.933594 328.894531 C 193.15625 328.894531 193.355469 328.90625 193.539062 328.9375 C 192.234375 332.21875 187.128906 333.199219 184.1875 333.5625 C 184.03125 333.605469 183.890625 333.628906 183.785156 333.613281 C 183.910156 333.597656 184.050781 333.582031 184.1875 333.5625 C 184.640625 333.441406 185.226562 333.148438 185.511719 333.019531 C 186.589844 332.53125 189.351562 331.78125 191.203125 330.296875 C 189.585938 330.628906 185.800781 331.425781 181.019531 329.585938 C 186.945312 330.246094 190.8125 328.910156 192.933594 328.894531 Z M 192.933594 328.894531 " fill-opacity="1" fill-rule="evenodd"/><path fill="#fbc1ab" d="M 275.339844 2.375 L 275.34375 2.375 C 271.277344 2.351562 267.863281 3.5 263.757812 5.710938 C 267.617188 4.648438 269.949219 4.378906 271.484375 4.835938 C 267.730469 4.234375 260.691406 7.203125 254.519531 11.261719 C 257.488281 10 260.398438 9.835938 261.921875 10.949219 C 253.90625 9.402344 249.78125 15.375 246.921875 21.558594 C 250.558594 18.589844 253.28125 16.429688 257.097656 15.132812 C 245.019531 22.875 243.371094 26.484375 243.320312 35.105469 C 245.058594 37.75 252.707031 46.605469 256.3125 44.292969 C 256.609375 43.792969 256.703125 43.28125 256.640625 42.769531 C 255.464844 41.867188 253.976562 40.585938 253.050781 39.238281 C 251.042969 38.359375 247.921875 34.398438 250.40625 33.058594 C 254.078125 41.113281 260.988281 47.507812 269.992188 50.726562 C 278.191406 53.652344 289.878906 53.484375 290.6875 56.707031 C 294.027344 88.230469 307.371094 111.296875 319.742188 126.265625 C 319.964844 115.1875 314.9375 110.660156 306.429688 75.902344 C 314.574219 103.796875 323.191406 119.058594 323.09375 130.941406 C 324.230469 132.410156 325.261719 133.933594 326.183594 135.488281 C 328.789062 118.730469 323.597656 105.367188 315.382812 71.800781 C 322.992188 97.871094 332.691406 119.867188 329.089844 141.328125 C 335.417969 156.964844 330.785156 173.039062 311.472656 168.960938 C 323.070312 169.464844 327.851562 166.859375 329.769531 155.085938 C 331.921875 141.886719 320.15625 127.714844 310.523438 119.984375 C 312.785156 121.429688 316.773438 124.234375 318.667969 126.035156 C 312.121094 118.503906 307.152344 112.539062 301.273438 99.371094 C 298.863281 107.753906 298.742188 108.976562 297.648438 114.816406 C 297.585938 115.203125 297.511719 115.613281 297.425781 116.035156 L 297.1875 117.390625 L 297.140625 117.375 C 294.996094 126.929688 289.484375 143.742188 299.464844 160.175781 C 298.160156 158.828125 297.066406 157.359375 296.160156 155.785156 C 293.488281 150.933594 292.523438 144.792969 292.476562 138.722656 C 292.5 137.25 292.574219 135.746094 292.703125 134.203125 L 292.605469 134.179688 C 293.121094 125.855469 295.054688 118.332031 296.257812 115.332031 C 272.503906 91.558594 243.257812 96.199219 242.394531 142.976562 C 245.027344 146.332031 247.679688 149.558594 250.058594 152.328125 C 272.558594 163.457031 289.363281 158.660156 295.871094 157.605469 C 293.371094 159.191406 289.492188 159.925781 283.902344 161.679688 C 283.546875 168.742188 286.992188 173.136719 293.742188 177.160156 C 300.785156 178.011719 309.21875 177.371094 315.078125 172.519531 C 306.992188 179.285156 300.308594 179.5625 294.117188 178.648438 C 292.820312 183.058594 288.824219 185.804688 285.175781 189.164062 C 290.238281 190.957031 300.289062 192.136719 307.457031 192.554688 C 325.898438 193.625 335.0625 185.867188 345.148438 171.40625 C 346.550781 168.636719 347.476562 165.242188 349.539062 162.550781 C 354.417969 156.167969 360.710938 150.488281 359.09375 143.125 C 356.585938 131.738281 345.484375 123.679688 339.828125 114.71875 C 345.195312 129.257812 353.226562 153.808594 332.371094 165.285156 C 341.628906 157.078125 343.871094 149.867188 343.460938 142.546875 C 343.238281 138.601562 342.386719 131.714844 341.851562 128.148438 C 340.117188 134.484375 341.164062 139.40625 337.429688 145.144531 C 340.046875 138.960938 339.210938 119.464844 338.570312 114.9375 C 331.453125 91.949219 318.417969 75.753906 309.542969 53.367188 C 309.503906 53.433594 309.476562 53.378906 309.472656 53.1875 C 309.496094 53.25 309.519531 53.308594 309.542969 53.367188 L 309.542969 53.359375 C 313.585938 62.851562 332.75 88.855469 338.96875 110.894531 C 342.582031 115.503906 352.59375 126.910156 356.609375 131.84375 C 358.324219 129.25 360.953125 118.605469 361.082031 112.414062 C 365.929688 100.625 323.542969 53.921875 311.621094 37.179688 C 304.726562 29.921875 291.019531 9.449219 281.410156 3.15625 C 279.171875 2.644531 277.1875 2.386719 275.339844 2.375 Z M 279.113281 5.058594 C 279.632812 5.058594 280.140625 5.199219 280.5625 5.507812 C 278.167969 5.6875 276.070312 7.703125 276.277344 8.527344 C 275.207031 6.75 277.25 5.042969 279.113281 5.058594 Z M 271.953125 9.5 C 272.476562 9.5 272.980469 9.640625 273.402344 9.949219 C 271.007812 10.128906 268.914062 12.148438 269.117188 12.972656 C 268.046875 11.191406 270.089844 9.484375 271.953125 9.5 Z M 265.277344 13.601562 C 265.800781 13.601562 266.304688 13.742188 266.726562 14.050781 C 264.332031 14.230469 262.238281 16.246094 262.441406 17.074219 C 261.371094 15.292969 263.417969 13.585938 265.277344 13.601562 Z M 258.667969 17.007812 C 259.191406 17.007812 259.699219 17.152344 260.117188 17.460938 C 257.722656 17.640625 255.628906 19.65625 255.832031 20.480469 C 254.761719 18.703125 256.808594 16.996094 258.667969 17.007812 Z M 145.425781 41.234375 C 145.367188 41.234375 145.3125 41.234375 145.253906 41.242188 C 144.941406 41.273438 144.636719 41.410156 144.339844 41.707031 C 141.6875 44.378906 138.554688 43.058594 135.351562 42.59375 C 135 42.6875 134.226562 43.871094 134.035156 44.164062 C 133.621094 44.804688 133.121094 45.683594 132.574219 46.203125 C 131.421875 47.300781 129.875 46.867188 129.035156 47.695312 C 128.855469 48.992188 128.730469 50.277344 128.769531 51.589844 C 128.808594 52.886719 128.984375 54.203125 129.125 55.492188 C 129.25 56.65625 129.019531 57.71875 128.550781 58.78125 C 127.933594 60.1875 126.828125 61.617188 126.609375 63.152344 C 126.550781 63.546875 126.617188 64.269531 126.640625 64.675781 C 126.699219 65.730469 126.785156 66.78125 126.875 67.835938 C 127.128906 70.785156 127.414062 73.738281 127.679688 76.6875 C 128.175781 82.207031 128.078125 84.816406 126.625 88.914062 C 127.667969 94.792969 129.128906 99.871094 131.175781 102.492188 C 135.808594 110.164062 139.964844 117.097656 145.984375 120 C 148.449219 121.1875 151.867188 120.804688 154.894531 120.726562 C 157.917969 120.648438 160.550781 120.875 163.277344 119.421875 C 167.257812 117.300781 169.882812 113.667969 173.261719 108.289062 C 178.328125 100.226562 181.148438 94.171875 179.632812 82.886719 C 179.535156 82.148438 179.425781 80.851562 179.320312 79.230469 C 179.242188 79.007812 179.15625 78.699219 179.058594 78.226562 C 178.511719 75.65625 178.046875 73.070312 177.59375 70.484375 C 177.28125 68.695312 176.996094 66.839844 176.59375 65.074219 C 176.09375 62.882812 174.53125 59.214844 172.9375 57.621094 L 172.613281 57.289062 L 172.730469 56.839844 C 174.382812 50.605469 174.683594 43.722656 166.804688 42.589844 C 166.640625 42.566406 166.042969 42.5 165.867188 42.597656 C 165.777344 42.84375 166.042969 43.929688 166.09375 44.179688 C 166.402344 45.707031 166.3125 47.164062 164.578125 47.738281 L 164.082031 47.90625 L 163.726562 47.519531 C 162.757812 46.457031 162.128906 45.835938 161.363281 44.601562 C 160.789062 43.675781 159.382812 42.476562 158.242188 42.195312 C 156.585938 42.988281 154.636719 44.296875 152.886719 44.523438 C 150.957031 44.777344 149.304688 43.8125 147.863281 42.628906 C 147.183594 42.074219 146.300781 41.257812 145.425781 41.234375 Z M 151.996094 56.199219 C 150.613281 59.957031 152.695312 61.585938 153.421875 62.664062 C 151.363281 61.820312 149.027344 60.324219 151.996094 56.199219 Z M 144.847656 58.214844 C 145.707031 58.78125 148.757812 62.320312 146.445312 63.789062 C 146.519531 63.011719 146.320312 60.28125 144.847656 58.214844 Z M 167.710938 59.132812 C 169.203125 59.125 170.550781 59.773438 171.890625 60.855469 C 173.257812 61.957031 175.867188 62.488281 172.574219 63.804688 L 168.464844 62.003906 C 166.878906 61.992188 163.921875 63.148438 162.441406 63.957031 C 161.257812 64.605469 157.273438 66.777344 156.066406 65.550781 C 154.769531 64.230469 155.496094 62.832031 157.386719 62.734375 C 158.015625 62.234375 159.730469 62.007812 160.457031 61.820312 C 162.027344 61.40625 163.296875 60.726562 164.714844 59.972656 C 165.675781 59.457031 166.566406 59.195312 167.414062 59.144531 C 167.511719 59.136719 167.613281 59.132812 167.710938 59.132812 Z M 183.128906 63.460938 C 182.699219 63.460938 182.226562 63.480469 181.699219 63.519531 C 181.652344 63.519531 181.613281 63.527344 181.566406 63.53125 C 181.558594 64.6875 181.535156 65.828125 181.386719 67.011719 C 182.207031 66.167969 183.222656 65.484375 184.351562 65.402344 C 184.410156 65.394531 184.464844 65.394531 184.523438 65.394531 C 183.1875 66.308594 182.035156 67.71875 181.070312 69.261719 C 180.921875 70.292969 180.785156 71.304688 180.671875 72.324219 C 180.695312 72.707031 180.703125 73.058594 180.707031 73.382812 C 180.878906 73.082031 181.125 72.792969 181.527344 72.488281 C 180.851562 73.246094 180.789062 74.898438 180.558594 76.105469 C 180.449219 77.308594 180.359375 78.503906 180.625 80.484375 C 180.84375 81.652344 181.007812 82.777344 181.125 83.871094 C 181.519531 83.667969 181.933594 83.359375 182.355469 82.917969 C 183.644531 81.582031 183.167969 79.125 183.398438 77.449219 C 183.789062 74.636719 185.464844 72.210938 186.117188 69.460938 C 187.082031 65.371094 187.277344 63.460938 183.128906 63.460938 Z M 134 63.515625 C 134.113281 63.523438 134.222656 63.539062 134.332031 63.574219 C 138 64.839844 142.714844 62.164062 145.828125 64.878906 C 146.671875 65.121094 146.921875 66.210938 146.515625 66.769531 C 145.726562 67.851562 145.097656 67.582031 143.800781 67.570312 C 141.511719 67.550781 140.011719 67.207031 137.917969 66.695312 C 133.164062 65.53125 133.304688 67.03125 129.476562 69.066406 C 129.492188 67.398438 132.046875 63.605469 133.882812 63.515625 Z M 163.820312 64.820312 C 167.230469 64.828125 170.617188 65.871094 170.835938 67.03125 C 167.972656 69.503906 164.429688 71.011719 161.410156 70.613281 C 157.933594 69.683594 157.710938 69.636719 156.6875 69.03125 C 156.851562 66.210938 159.679688 65.054688 162.769531 64.851562 C 163.117188 64.828125 163.46875 64.816406 163.820312 64.820312 Z M 140.207031 67.714844 C 142.132812 67.730469 143.386719 68.980469 144.957031 70.050781 C 141.792969 72.585938 137.84375 75.039062 132.105469 71.769531 C 133.6875 69.175781 137.589844 67.867188 139.789062 67.726562 C 139.9375 67.71875 140.078125 67.714844 140.207031 67.714844 Z M 156.554688 67.796875 C 155.199219 70.515625 156.808594 72.101562 158.105469 74.109375 C 155.101562 71.863281 154.515625 69.566406 156.554688 67.796875 Z M 145.375 68.160156 C 147.480469 69.855469 146.984375 72.167969 144.066406 74.53125 C 145.289062 72.476562 146.835938 70.828125 145.375 68.160156 Z M 122.367188 68.230469 C 122.179688 68.222656 121.964844 68.230469 121.710938 68.246094 C 116.09375 68.5625 116.464844 70.386719 118.121094 74.71875 C 119.125 77.359375 121.109375 79.542969 121.867188 82.277344 C 122.320312 83.910156 122.167969 86.40625 123.621094 87.5625 C 124.484375 88.246094 125.253906 88.523438 125.910156 88.503906 C 125.859375 87.257812 125.832031 85.988281 125.800781 84.703125 C 125.691406 83.867188 125.582031 83.058594 125.46875 82.28125 C 125.195312 81.984375 124.957031 81.628906 124.730469 81.152344 C 124.203125 80.035156 123.980469 77.898438 123.070312 77.113281 C 124.460938 77.910156 124.347656 78.761719 124.929688 80.140625 C 125.050781 80.425781 125.152344 80.652344 125.253906 80.855469 C 124.960938 78.992188 124.652344 77.234375 124.3125 75.460938 C 122.902344 73.441406 121.140625 71.480469 119.160156 70.480469 C 119.21875 70.472656 119.273438 70.46875 119.332031 70.464844 C 121.078125 70.363281 122.746094 71.710938 123.820312 72.960938 C 123.519531 71.488281 123.199219 69.949219 122.851562 68.292969 C 122.714844 68.253906 122.554688 68.234375 122.367188 68.230469 Z M 184.769531 68.34375 C 184.066406 69.402344 183.773438 70.328125 183.542969 71.367188 C 183.242188 72.699219 183.394531 74.050781 183.140625 75.316406 C 182.714844 77.441406 182.480469 77.90625 181.132812 79.320312 C 182.230469 78.050781 182.683594 74.988281 182.65625 73.402344 C 182.609375 70.9375 183.195312 69.984375 184.769531 68.34375 Z M 119.304688 73.4375 C 121.085938 74.851562 121.792969 75.71875 122.070312 78.171875 C 122.25 79.742188 123.101562 82.71875 124.359375 83.832031 C 122.835938 82.609375 122.542969 82.179688 121.84375 80.132812 C 121.425781 78.910156 121.394531 77.550781 120.921875 76.269531 C 120.554688 75.273438 120.140625 74.394531 119.304688 73.4375 Z M 159.210938 81.304688 C 161.449219 82.453125 163.332031 84.597656 161.109375 86.574219 C 161.6875 83.972656 160.355469 83.140625 159.210938 81.304688 Z M 143.796875 82.621094 C 143.628906 83.859375 143.070312 85.621094 144.039062 86.507812 C 144.410156 86.851562 144.613281 87.515625 144.941406 87.953125 C 145.136719 88.207031 145.941406 88.421875 146.304688 88.46875 C 144.730469 88.976562 143.941406 88.160156 143.207031 86.945312 C 142.207031 85.289062 143.34375 84.046875 143.796875 82.621094 Z M 158.050781 85.578125 C 158.640625 85.578125 159.230469 85.871094 159.832031 86.625 C 159.761719 87.96875 158.703125 87.570312 157.6875 87.433594 C 156.265625 87.238281 155.992188 88.230469 155.054688 88.945312 C 152.964844 90.535156 149.925781 89.386719 148.171875 88.121094 C 147.019531 88.761719 144.914062 86.574219 146.96875 86.851562 C 148.933594 87.121094 149.554688 88.636719 150.996094 88.832031 C 153.8125 89.21875 155.882812 85.710938 157.933594 85.582031 C 157.972656 85.582031 158.011719 85.574219 158.050781 85.582031 Z M 181.074219 95.507812 C 179.917969 100.328125 177.710938 104.613281 174.945312 109.011719 C 172.175781 113.421875 169.390625 118.757812 164.222656 120.808594 C 161.417969 121.917969 157.898438 122.003906 154.386719 122.1875 C 151.058594 122.363281 147.734375 122.703125 145.039062 121.425781 C 141.484375 119.738281 138.71875 116.882812 136.386719 113.878906 C 133.820312 110.566406 131.648438 106.902344 129.511719 103.363281 C 128.039062 101.417969 127.089844 99.355469 126.472656 97.210938 C 123.875 100.101562 122.980469 116.898438 123.363281 116.9375 C 123.363281 116.9375 122.019531 121.167969 121.167969 123.625 C 121.167969 117.691406 121.433594 110.945312 121.433594 108.882812 C 112.148438 111.417969 102.175781 115.390625 94.074219 120.855469 C 105.136719 124.273438 110.175781 134.433594 111.660156 138.527344 C 128.945312 136.882812 141.007812 145.480469 151.386719 153.90625 C 161.40625 141.917969 171.535156 142.242188 185.902344 134.101562 C 187.25 133.511719 194.351562 129.949219 195.050781 129.941406 C 196.171875 123.828125 199.0625 115.246094 202.632812 112.703125 C 198.355469 110.617188 194.617188 109.351562 190.117188 108.304688 C 191.804688 113.921875 191.839844 118.714844 191.203125 122.546875 C 190.730469 118.867188 189.996094 115.148438 189.164062 112.597656 C 187.070312 106.175781 185.023438 102.070312 181.074219 95.507812 Z M 163.476562 96.703125 C 163.898438 96.695312 163.949219 97.417969 162.910156 98.332031 C 162.328125 98.847656 160.710938 98.507812 160.082031 98.261719 C 157.996094 97.460938 154.441406 99.566406 152.261719 99.597656 C 150.292969 99.625 149.070312 101.03125 147.386719 101.054688 C 146.550781 101.066406 144.15625 99.746094 145.890625 99.242188 C 146.691406 99.007812 147.246094 100.433594 148.703125 99.644531 C 150.3125 98.773438 151.269531 98.71875 153.007812 98.695312 C 154.851562 98.667969 156.136719 97.484375 157.800781 97.460938 C 159.4375 97.4375 161.949219 98.109375 163.132812 96.828125 C 163.261719 96.742188 163.378906 96.703125 163.476562 96.703125 Z M 160.027344 101.535156 C 160.410156 102.148438 159.496094 103.300781 158.917969 103.949219 C 158.054688 104.917969 157.335938 105.5625 156.160156 106.050781 C 152.703125 107.492188 151.707031 106.609375 149.105469 105.433594 C 148.839844 105.3125 146.601562 104.066406 147.863281 104.027344 C 151 103.929688 152.804688 104.894531 157.105469 103.328125 C 158.042969 102.984375 159.066406 102.121094 160.027344 101.535156 Z M 226.65625 103.964844 C 207.878906 103.996094 199.335938 121.164062 197.417969 129.96875 C 184.046875 139.507812 167.949219 142.777344 158.703125 151.441406 C 157.191406 152.863281 154.019531 155.675781 154.109375 159.085938 C 154.222656 163.195312 154.34375 168.042969 154.46875 173.019531 C 157.269531 169.296875 160.539062 166.464844 164.097656 164.292969 C 164.316406 164.140625 164.546875 164.003906 164.789062 163.878906 C 172.785156 159.230469 182.144531 157.777344 190.851562 156.984375 C 183.03125 158.441406 176.1875 160.667969 170.390625 163.476562 L 241 178.414062 C 244.175781 179.085938 246.902344 181.996094 246.1875 185.375 C 246.082031 185.871094 245.914062 186.324219 245.691406 186.742188 C 250.496094 189.058594 255.542969 191.066406 259.570312 191.574219 C 271.601562 193.09375 284.089844 190.820312 291.859375 178.464844 C 286.238281 174.980469 279.980469 171.589844 282.371094 161.53125 C 274.171875 164.289062 260.804688 158.824219 250.953125 154.164062 C 247.5 154.429688 241.710938 155.375 235.15625 162.734375 C 238.03125 155.945312 245.671875 154.144531 248.8125 153.140625 C 239.085938 138.96875 226.265625 127.914062 210.90625 124.984375 C 221.953125 125.207031 236.65625 134.621094 241.96875 142.492188 C 241.546875 139.53125 241.144531 136.363281 241.132812 133.777344 C 241.132812 128.414062 242.105469 123.359375 243.824219 118.921875 C 241.679688 115.1875 238.753906 111.804688 234.878906 109.605469 C 238.835938 110.746094 241.953125 113.683594 244.410156 117.5 C 245.3125 115.429688 246.378906 113.511719 247.589844 111.78125 C 245.414062 109.171875 242.847656 107.054688 240.160156 106.039062 C 236.621094 104.703125 232.824219 104.320312 229 104.046875 C 228.203125 103.988281 227.421875 103.960938 226.65625 103.964844 Z M 69.085938 115.6875 C 53.960938 115.65625 38.394531 127.175781 34.484375 141.949219 C 32.582031 149.128906 37.152344 159.925781 42.320312 164.445312 C 43.914062 163.371094 45.566406 162.617188 47.25 162.183594 C 41.9375 155.09375 37.957031 146.796875 40.453125 139.726562 C 39.574219 148.21875 44.246094 156.40625 49.078125 161.839844 C 53.230469 161.347656 57.476562 162.78125 61.292969 166.195312 C 61.859375 165.582031 62.464844 165.050781 63.105469 164.597656 C 63 164.3125 62.914062 164.0625 62.863281 163.855469 C 60.042969 152.023438 60.089844 145.347656 66.894531 129.140625 C 61.648438 145.742188 62.453125 156.546875 65.703125 163.183594 C 71.121094 161.015625 77.835938 162.492188 82.460938 163.53125 C 85.925781 160.449219 90.738281 156.886719 95.296875 153.078125 C 93.125 156.929688 90.558594 160.4375 87.34375 163.0625 L 85.871094 164.265625 C 97.246094 171.234375 99.347656 179.96875 99.636719 188.117188 C 99.832031 193.625 97.359375 198.351562 93.5625 202.21875 L 92.597656 203.203125 L 93.558594 204.191406 C 94.46875 205.136719 95.382812 206.082031 96.273438 207.042969 C 98.601562 209.550781 100.75 212.222656 102.878906 214.898438 L 102.949219 214.988281 L 103.363281 215.367188 L 103.78125 215.429688 C 110.726562 216.515625 117.632812 218.007812 124.398438 219.957031 C 138.699219 216.796875 146.496094 211.644531 148.886719 203.371094 C 150.128906 199.074219 152.035156 193.316406 151.390625 187.816406 C 140.992188 188.753906 129.460938 194.625 123.40625 201.425781 C 128.289062 191.5625 140.703125 186.773438 151.390625 186.03125 L 151.390625 176.136719 C 142.527344 165.566406 126.554688 163.03125 115.429688 164.226562 C 127.429688 159.511719 142.359375 164.28125 151.390625 173.4375 L 151.390625 170.644531 C 151.390625 154.835938 146.097656 153.371094 133.328125 145.25 C 125.015625 139.964844 115.675781 139.410156 106.636719 141.152344 C 106.890625 140.675781 107.605469 139.3125 107.804688 138.832031 C 106.398438 129.578125 92.449219 117.707031 76.433594 122.59375 C 78.527344 120.949219 80.082031 119.847656 83.0625 119.535156 C 78.710938 116.890625 73.921875 115.699219 69.085938 115.691406 Z M 300.429688 124.007812 L 300.558594 124.40625 C 301.703125 127.878906 303.8125 131.800781 301.167969 135.148438 C 298.546875 138.46875 299.003906 139.78125 300.246094 143.566406 L 300.378906 143.964844 L 299.582031 144.226562 L 299.449219 143.828125 C 298.101562 139.734375 297.707031 138.179688 300.507812 134.628906 C 302.882812 131.621094 300.777344 127.753906 299.761719 124.667969 L 299.628906 124.269531 Z M 303.707031 125.019531 L 303.835938 125.421875 C 304.773438 128.257812 306.679688 131.128906 305.820312 134.226562 C 305.230469 136.359375 302.699219 137.339844 302.167969 139.101562 C 301.480469 141.375 303.078125 144.785156 303.867188 146.925781 C 304.457031 148.519531 305.078125 150.375 305.027344 152.089844 L 305.011719 152.511719 L 304.171875 152.484375 L 304.1875 152.066406 C 304.25 150.046875 303.464844 148.035156 302.726562 146.191406 C 301.839844 143.972656 300.636719 141.277344 301.363281 138.859375 C 301.953125 136.902344 304.484375 135.917969 305.011719 134 C 305.78125 131.230469 303.882812 128.242188 303.039062 125.683594 L 302.910156 125.285156 Z M 33.636719 151.832031 C 31.882812 157.464844 26.089844 161.867188 21.589844 167.460938 C 10.007812 181.847656 10.996094 193.816406 16.90625 210.425781 C 18.351562 213.175781 20.570312 215.902344 21.566406 219.144531 C 23.925781 226.824219 24.894531 235.246094 31.824219 238.203125 C 42.550781 242.78125 55.5625 238.421875 66.144531 239.023438 C 51.1875 234.945312 26.539062 227.222656 29.3125 203.578125 C 30.617188 215.882812 35.183594 221.894531 41.378906 225.8125 C 44.71875 227.925781 50.820312 231.234375 54.035156 232.867188 C 49.882812 227.777344 45.269531 225.765625 42.769531 219.394531 C 46.28125 225.121094 62.636719 235.765625 66.695312 237.875 C 89.539062 245.433594 110.292969 244.230469 133.671875 250.011719 C 133.644531 249.941406 133.699219 249.949219 133.855469 250.054688 C 133.796875 250.039062 133.734375 250.027344 133.671875 250.011719 C 133.671875 250.011719 133.671875 250.007812 133.671875 250.015625 C 123.597656 247.792969 91.296875 248.289062 69.746094 240.542969 C 63.898438 240.808594 48.796875 242.335938 42.449219 242.738281 C 43.5625 245.640625 50.703125 253.960938 55.667969 257.664062 C 59.601562 263.929688 82.242188 266.023438 101.503906 265.578125 C 120.769531 265.128906 135.152344 263.65625 143.914062 261.542969 C 148.636719 261.203125 156.171875 261.164062 162.265625 261.574219 C 168.390625 265.6875 176.839844 268.28125 182.132812 268.636719 C 191.277344 269.253906 197.644531 266.558594 197.078125 258.5625 C 199.96875 257.078125 201.402344 253.136719 200.011719 249.617188 C 204.0625 246.988281 204.457031 243.113281 203.355469 238.660156 C 207.503906 238.941406 208.605469 229.007812 203.410156 226.269531 C 203.164062 226.136719 202.925781 226.023438 202.691406 225.914062 L 197.3125 224.773438 C 194.714844 224.871094 192.238281 225.703125 188.480469 225.449219 C 183.683594 225.125 183.390625 221.675781 180.542969 221.484375 C 178.261719 221.328125 175.960938 220.957031 173.550781 220.929688 C 168.945312 220.871094 163.933594 222.050781 157.894531 228.347656 C 153.773438 228.320312 151.007812 230.492188 148.46875 232.105469 C 122.257812 218.101562 88.5 214.539062 68.410156 215.964844 C 77.296875 222.582031 83.902344 221.121094 117.140625 234.386719 C 89.699219 224.808594 72.273438 222.957031 62.65625 215.976562 C 60.800781 216.046875 58.960938 216.003906 57.164062 215.851562 C 69.289062 227.707031 83.179688 231.242188 115.277344 244.050781 C 89.636719 235.105469 66.097656 230.222656 50.71875 214.824219 C 34.316406 210.890625 23.921875 197.785156 38.460938 184.429688 C 31.3125 193.582031 30.65625 198.988281 39.125 207.386719 C 48.617188 216.804688 66.992188 215.460938 78.875 212.109375 C 76.386719 213.109375 71.785156 214.730469 69.222656 215.222656 C 79.15625 214.273438 86.898438 213.6875 101.027344 216.554688 C 86.085938 197.960938 69.054688 181.40625 52.585938 179.761719 C 61.390625 178.441406 69.558594 182.496094 77.65625 189.34375 C 86.152344 180.269531 84.410156 171.902344 81.5 164.894531 C 74.761719 162.160156 66.496094 162.109375 61.71875 167.253906 C 63.214844 170.289062 64.824219 174.867188 64.472656 178.0625 C 63.761719 174.496094 61.730469 169.273438 59.226562 166.769531 C 53.683594 162.375 49.277344 162.082031 42.085938 165.234375 C 37.300781 170.476562 32.921875 177.710938 33.464844 185.296875 C 32.65625 174.789062 36.3125 169.1875 40.65625 164.675781 C 37.820312 161.0625 34.253906 156.753906 33.636719 151.832031 Z M 84.121094 166.140625 C 88.589844 173.628906 85.96875 183.929688 79.441406 190.691406 C 81.820312 193.023438 87.667969 199.015625 90.070312 201.667969 C 94.820312 199.421875 98.113281 193.441406 97.351562 187.039062 C 96.351562 178.601562 92.351562 169.085938 84.121094 166.140625 Z M 161.789062 168.609375 C 158.949219 170.695312 156.523438 172.960938 154.523438 175.367188 C 154.605469 178.714844 154.6875 182.035156 154.761719 185.277344 C 157.027344 184.257812 159.265625 183.601562 161.472656 183.242188 C 160.066406 181.933594 159.25 180.070312 159.679688 178.042969 C 160.222656 175.464844 162.492188 173.949219 164.945312 173.671875 C 163.113281 172.601562 161.777344 170.746094 161.789062 168.609375 Z M 16.128906 183.453125 C 15.65625 189.597656 21.472656 194.371094 23.773438 199.285156 C 24.859375 201.601562 24.273438 203.34375 23.558594 204.828125 C 23.691406 203.054688 23.675781 201.742188 22.019531 199.105469 C 17.945312 192.621094 13.574219 188.050781 16.128906 183.453125 Z M 159.105469 185.722656 C 157.605469 185.988281 156.167969 186.355469 154.796875 186.820312 C 154.933594 192.894531 155.042969 198.40625 155.097656 202.171875 C 155.128906 204.265625 156.21875 204.621094 157.726562 205.257812 C 157.910156 205.222656 158.097656 205.191406 158.285156 205.171875 C 156.152344 203.925781 154.691406 201.621094 155.238281 199.042969 C 155.78125 196.464844 158.050781 194.949219 160.503906 194.671875 C 158.371094 193.425781 156.914062 191.117188 157.457031 188.542969 C 157.703125 187.382812 158.300781 186.4375 159.105469 185.722656 Z M 244.269531 188.421875 C 243.328125 189.15625 242.148438 189.605469 240.921875 189.742188 C 243.054688 190.992188 244.511719 193.296875 243.964844 195.875 C 243.421875 198.449219 241.15625 199.96875 238.699219 200.242188 C 240.832031 201.492188 242.289062 203.796875 241.746094 206.371094 C 241.199219 208.949219 238.933594 210.46875 236.480469 210.742188 C 238.613281 211.988281 240.070312 214.296875 239.523438 216.871094 C 238.980469 219.449219 236.714844 220.96875 234.257812 221.242188 C 235.210938 221.800781 236.027344 222.566406 236.589844 223.472656 C 245.242188 217.40625 251.09375 202.769531 253.523438 193.058594 C 250.277344 191.46875 247.175781 189.957031 244.269531 188.421875 Z M 151.660156 208.214844 C 148.441406 212.53125 136.800781 220.382812 127.339844 221.238281 C 134.800781 223.457031 143.078125 227.441406 148.351562 229.304688 C 150.753906 227.667969 153.820312 226.335938 156.273438 226.039062 L 156.753906 225.984375 L 157.101562 225.648438 C 160.582031 222.289062 164.542969 219.714844 169.34375 218.859375 L 158.203125 216.503906 C 155.027344 215.828125 152.300781 212.917969 153.015625 209.542969 C 153.0625 209.3125 153.125 209.097656 153.199219 208.886719 Z M 186.617188 222.515625 C 187.238281 222.859375 187.878906 223.011719 188.648438 223.0625 C 188.886719 223.078125 189.117188 223.085938 189.347656 223.09375 Z M 207.734375 226.980469 C 208.566406 228.226562 209.09375 229.675781 209.34375 231.148438 C 209.851562 234.113281 209.304688 238.15625 206.917969 240.234375 L 206.375 240.707031 L 206.433594 241.421875 C 206.722656 244.824219 205.960938 247.929688 203.503906 250.394531 L 203.023438 250.871094 L 203.097656 251.542969 C 203.421875 254.558594 202.40625 257.746094 200.148438 259.824219 L 199.738281 260.203125 L 199.699219 260.765625 C 199.628906 261.722656 199.460938 262.671875 199.171875 263.589844 L 198.699219 265.09375 L 199.027344 265.160156 L 198.453125 265.34375 L 198.179688 265.796875 C 197.730469 266.546875 197.183594 267.226562 196.550781 267.828125 C 195.25 269.082031 193.667969 269.941406 191.960938 270.519531 C 190.578125 270.996094 188.613281 271.199219 186.402344 271.210938 L 211.953125 276.617188 C 215.707031 262.171875 215.058594 246.5 222.550781 230.113281 Z M 192.496094 229.382812 C 196.433594 230.605469 194.921875 235.855469 191.359375 235.96875 C 193.65625 233.835938 193.617188 230.0625 192.496094 229.382812 Z M 189.371094 238.253906 C 193.308594 239.480469 191.796875 244.730469 188.234375 244.839844 C 190.53125 242.710938 190.492188 238.9375 189.371094 238.253906 Z M 186.9375 247.894531 C 190.875 249.117188 189.363281 254.367188 185.804688 254.480469 C 188.101562 252.347656 188.058594 248.574219 186.9375 247.894531 Z M 184.378906 258.277344 C 188.316406 259.5 186.804688 264.75 183.246094 264.863281 C 185.542969 262.730469 185.5 258.957031 184.378906 258.277344 Z M 152.335938 263.878906 C 152.140625 263.878906 151.945312 263.878906 151.753906 263.878906 L 165.832031 266.859375 C 164.40625 266.167969 163.019531 265.40625 161.691406 264.570312 L 161.386719 264.382812 L 161.03125 264.355469 C 158.667969 264.195312 156.300781 264.03125 153.929688 263.921875 C 153.394531 263.894531 152.859375 263.882812 152.335938 263.878906 Z M 142.507812 264.984375 C 142.503906 264.984375 142.503906 264.988281 142.503906 264.988281 C 142.503906 264.988281 142.503906 264.988281 142.507812 264.988281 Z M 142.503906 264.988281 C 140.148438 265.488281 137.765625 265.863281 135.382812 266.210938 C 130.234375 267.011719 125.28125 267.503906 120.25 267.824219 C 119.078125 272.777344 120.503906 277.382812 125.816406 283.769531 C 119.066406 287.183594 116.785156 294.738281 115.769531 303.460938 C 114.054688 300.78125 113.296875 287.261719 122.796875 283.179688 C 116.671875 278.105469 115.710938 271.972656 115.753906 268.066406 C 112.507812 268.210938 109.195312 268.308594 105.738281 268.382812 C 103.90625 284.152344 103.445312 307.5 108.734375 317.820312 C 109.421875 317.921875 110.113281 318.003906 110.8125 318.070312 C 111.570312 314.296875 111.925781 310.457031 112.144531 306.488281 C 112.34375 302.910156 113.050781 299.730469 113.527344 296.25 C 114.0625 303.945312 114.148438 312.390625 117.640625 318.121094 C 118.691406 318.085938 119.746094 318.074219 120.800781 318.113281 C 121.496094 318.140625 122.195312 318.191406 122.890625 318.261719 C 125.335938 314.652344 128.664062 308.601562 129.433594 294.703125 C 129.597656 299.371094 130.945312 313.035156 128.453125 317.074219 C 130.003906 315.410156 131.265625 313.628906 132.308594 311.746094 C 132.144531 311.039062 132.125 310.285156 132.289062 309.503906 C 132.613281 307.960938 133.554688 306.800781 134.78125 306.054688 C 135.074219 305.1875 135.339844 304.304688 135.578125 303.414062 C 134.632812 302.191406 134.160156 300.652344 134.507812 299.003906 C 135.054688 296.425781 137.320312 294.90625 139.773438 294.628906 C 137.644531 293.382812 136.183594 291.082031 136.730469 288.503906 C 137.273438 285.925781 139.542969 284.410156 141.996094 284.132812 C 139.863281 282.886719 138.40625 280.578125 138.953125 278.003906 C 139.496094 275.425781 141.765625 273.90625 144.21875 273.632812 C 142.085938 272.386719 140.628906 270.078125 141.171875 267.5 C 141.386719 266.5 141.859375 265.65625 142.503906 264.984375 Z M 85.691406 267.722656 C 87.070312 271.113281 86.304688 275.753906 90.902344 286.160156 C 90.664062 287.113281 89.796875 306.527344 89.667969 307.472656 C 91.578125 310.421875 93.542969 311.046875 96.230469 313.78125 C 97.515625 314.367188 98.804688 314.933594 100.109375 315.449219 C 100.269531 315.515625 100.433594 315.578125 100.59375 315.640625 C 95.46875 303.058594 95.257812 288.398438 96.929688 274.789062 C 96.929688 287.855469 97.992188 305.261719 104.371094 316.890625 C 105.769531 317.277344 107.160156 317.578125 108.574219 317.796875 C 99.097656 304.945312 100.78125 282.042969 103.917969 268.421875 C 95.800781 268.574219 93.820312 268.472656 85.691406 267.722656 Z M 136.546875 304.421875 C 136.566406 304.722656 136.582031 305.015625 136.59375 305.308594 C 136.910156 305.230469 137.230469 305.171875 137.554688 305.136719 C 137.199219 304.925781 136.859375 304.6875 136.546875 304.421875 Z M 135.449219 315.699219 C 134.058594 317.464844 132.523438 319.097656 130.882812 320.566406 C 143.8125 326.628906 151.109375 327.078125 163.207031 321.910156 L 137.476562 316.464844 C 136.765625 316.316406 136.078125 316.054688 135.449219 315.699219 Z M 135.449219 315.699219 " fill-opacity="1" fill-rule="evenodd"/><path fill="#f4a687" d="M 283.25 11.425781 C 295.902344 22.523438 303.527344 35.011719 309.390625 43.882812 C 302.671875 38.765625 287.496094 23.433594 277.429688 20.757812 C 292.109375 30.707031 298.488281 37.5625 305.207031 45.078125 C 305.003906 45.136719 304.789062 45.195312 304.558594 45.265625 C 295.5 39.9375 279.746094 29.789062 270.726562 28.742188 C 285.207031 35.757812 292.554688 41.242188 299.566406 47.03125 C 307.066406 55.199219 306.25 63.433594 310.96875 68.621094 C 317.894531 76.234375 320.183594 83.558594 323.914062 93.570312 C 323.367188 91.664062 321.769531 82.777344 319.726562 74.714844 C 318.558594 72.535156 316.625 68.820312 314.597656 64.789062 C 322.886719 77.691406 334.699219 95.757812 338.96875 110.898438 C 342.585938 115.507812 352.597656 126.910156 356.613281 131.84375 C 357.242188 130.890625 358 128.84375 358.707031 126.335938 C 357.472656 91.683594 345.375 86.449219 332.855469 69.285156 C 324.429688 57.726562 318.769531 52.777344 314.625 45.375 C 310.480469 37.96875 293.65625 15.636719 283.25 11.425781 Z M 249.890625 28.011719 C 246.285156 28.035156 245.097656 32.15625 246.378906 35.996094 C 246.550781 36.515625 246.78125 37.007812 247.0625 37.472656 C 247.609375 38.378906 248.335938 39.195312 249.148438 39.964844 C 250.230469 40.992188 251.46875 41.941406 252.636719 42.917969 C 253.308594 43.476562 253.957031 44.050781 254.542969 44.652344 C 255.195312 44.726562 255.796875 44.625 256.3125 44.292969 C 256.605469 43.792969 256.699219 43.28125 256.636719 42.769531 C 256.265625 42.480469 255.855469 42.15625 255.445312 41.800781 C 254.574219 41.042969 253.679688 40.15625 253.050781 39.238281 C 252.636719 39.058594 252.175781 38.746094 251.722656 38.351562 C 249.992188 36.835938 248.433594 34.121094 250.40625 33.058594 C 250.753906 33.820312 251.132812 34.570312 251.539062 35.304688 C 252.566406 37.164062 253.777344 38.917969 255.15625 40.550781 C 258.253906 44.222656 262.195312 47.253906 266.789062 49.40625 C 259.921875 44.789062 258.839844 41.542969 255.558594 35.152344 C 255.035156 34.128906 254.789062 32.679688 254.382812 31.378906 C 253.984375 30.101562 253.4375 28.96875 252.332031 28.519531 C 252.316406 28.511719 252.304688 28.507812 252.289062 28.503906 C 251.953125 28.375 251.632812 28.273438 251.328125 28.195312 C 250.8125 28.066406 250.332031 28.007812 249.890625 28.011719 Z M 321.757812 62.765625 C 338.957031 73.933594 346.976562 107.253906 348.113281 115.027344 C 349.03125 121.277344 344.453125 114.761719 343.644531 112.308594 C 340.933594 105.351562 339.699219 98.097656 337.371094 91.023438 C 333.480469 79.207031 329.484375 72.625 321.757812 62.765625 Z M 270.953125 104.023438 C 279.382812 104.101562 288.160156 115.433594 294.328125 121.671875 C 294.65625 119.261719 295.421875 117.660156 295.871094 116.339844 C 290.941406 112.234375 283.21875 104.09375 270.953125 104.023438 Z M 244.238281 108.449219 C 242.929688 109.855469 241.855469 111.488281 240.984375 113.257812 C 242.25 114.472656 243.386719 115.910156 244.410156 117.5 C 245.3125 115.429688 246.378906 113.511719 247.589844 111.78125 C 246.550781 110.535156 245.425781 109.40625 244.238281 108.449219 Z M 240.515625 114.261719 C 238.53125 118.796875 237.78125 124.070312 237.78125 128.652344 C 231.007812 125.59375 224.238281 125.183594 216.273438 126.296875 C 226.746094 129.960938 236.0625 133.148438 241.003906 140.480469 C 240.578125 137.515625 241.144531 136.367188 241.132812 133.78125 C 241.132812 128.417969 242.105469 123.359375 243.824219 118.921875 C 242.878906 117.277344 241.78125 115.699219 240.515625 114.261719 Z M 339.828125 114.714844 C 345.195312 129.257812 353.226562 153.808594 332.371094 165.285156 C 338.324219 160.007812 341.375 155.140625 342.6875 150.394531 C 342.6875 150.386719 342.691406 150.375 342.695312 150.367188 C 343.59375 146.839844 343.5625 143.234375 343.226562 139.167969 C 342.664062 141.070312 341.933594 142.914062 340.96875 144.710938 C 340.003906 146.5 336.71875 149.355469 334.820312 149.984375 C 332.632812 145.507812 331.113281 141.246094 329.652344 136.851562 C 329.523438 138.347656 329.339844 139.835938 329.089844 141.324219 C 335.417969 156.960938 330.785156 173.035156 311.472656 168.957031 C 323.074219 169.460938 327.851562 166.855469 329.773438 155.082031 C 331.628906 143.695312 323.121094 131.578125 314.566406 123.507812 C 313.273438 122.289062 311.980469 121.160156 310.722656 120.144531 C 312.660156 131.191406 323.359375 139.871094 322.375 152.40625 C 321.15625 167.878906 306.679688 166.90625 299.304688 159.90625 C 298.925781 159.546875 298.5625 159.171875 298.226562 158.78125 C 299.910156 160.929688 302.382812 165.425781 302.519531 168.976562 C 303.550781 170.1875 304.160156 171.351562 303.722656 172.371094 C 303.265625 173.425781 301.695312 173.71875 299.714844 173.589844 C 298.617188 174.0625 297.324219 174.371094 296.199219 174.742188 C 294.847656 175.1875 292.960938 175.519531 291.589844 175.421875 C 291.46875 175.414062 291.261719 175.390625 291 175.355469 C 291.820312 175.960938 292.730469 176.554688 293.742188 177.160156 C 300.789062 178.007812 309.21875 177.371094 315.078125 172.519531 C 311.089844 175.855469 307.445312 177.613281 304.03125 178.429688 C 311.515625 181 319.011719 171.9375 326.171875 170.003906 C 329.214844 169.179688 329.765625 175.113281 329.550781 178.554688 C 330.292969 176.257812 330.949219 174.011719 332.09375 172.285156 C 333.347656 170.058594 335.105469 169.519531 336.730469 169.242188 C 335.210938 170.164062 334.148438 170.9375 332.964844 173.816406 C 330.183594 180.589844 328.980469 186.566406 324.316406 187.59375 C 323.128906 188.722656 321.878906 189.703125 320.710938 190.441406 C 328.175781 186.035156 334.765625 180.28125 342.28125 175.359375 C 343.234375 174.105469 344.191406 172.785156 345.152344 171.40625 C 346.550781 168.632812 347.480469 165.242188 349.539062 162.550781 C 349.992188 161.960938 350.453125 161.378906 350.917969 160.800781 C 350.488281 160.945312 350.125 161.066406 349.851562 161.15625 C 346.894531 162.132812 344.898438 165.691406 343.824219 168.378906 C 343.316406 161.808594 349.714844 157.21875 353.238281 152.921875 C 356.074219 149.460938 356.566406 138.992188 354.265625 132.722656 C 353.175781 131.148438 351.984375 129.628906 350.75 128.136719 C 346.925781 123.53125 342.683594 119.238281 339.828125 114.714844 Z M 76.035156 116.566406 C 71.03125 119.90625 65.910156 124.242188 63.101562 128.347656 C 61.691406 130.417969 56.726562 138.875 57.859375 141.566406 C 54.683594 134.785156 55.957031 129.960938 58.105469 123.058594 C 58.703125 121.136719 59.199219 119.019531 59.851562 117.046875 C 48.082031 120.503906 37.597656 130.195312 34.484375 141.949219 C 32.582031 149.132812 37.152344 159.925781 42.320312 164.445312 C 43.914062 163.371094 45.566406 162.617188 47.25 162.183594 C 41.9375 155.09375 37.957031 146.796875 40.453125 139.726562 C 39.574219 148.21875 44.246094 156.410156 49.078125 161.84375 C 53.230469 161.347656 57.476562 162.78125 61.292969 166.195312 C 61.859375 165.582031 62.464844 165.054688 63.105469 164.597656 C 62.996094 164.316406 62.914062 164.0625 62.863281 163.855469 C 60.042969 152.023438 60.089844 145.347656 66.894531 129.144531 C 61.648438 145.746094 62.453125 156.546875 65.703125 163.183594 C 71.121094 161.015625 77.835938 162.492188 82.460938 163.53125 C 90.054688 156.773438 104.117188 147.726562 107.804688 138.832031 C 107.410156 136.238281 106.027344 133.4375 103.890625 130.855469 C 102.890625 134.996094 101.253906 138.683594 96.789062 141.53125 C 90.460938 145.5625 74.707031 145.816406 73.308594 136.921875 C 72.476562 131.644531 75.9375 125.800781 79.839844 121.796875 C 78.71875 121.980469 77.582031 122.242188 76.433594 122.59375 C 78.308594 121.121094 79.75 120.085938 82.171875 119.65625 C 82.332031 119.53125 82.488281 119.40625 82.644531 119.285156 C 80.527344 118.050781 78.308594 117.15625 76.035156 116.566406 Z M 215.160156 126.464844 C 213.863281 126.664062 212.535156 126.902344 211.171875 127.175781 C 216.105469 130.722656 228.574219 134.625 234.960938 147.78125 C 236.558594 145.980469 238.085938 144.570312 239.308594 143.785156 C 236.109375 137.867188 228.921875 131.59375 215.160156 126.464844 Z M 293.394531 147.753906 C 284.316406 152.835938 275.824219 153.710938 250.582031 148.976562 C 260.722656 155.515625 285.71875 157.964844 296.796875 156.828125 C 294.988281 154.183594 293.820312 150.472656 293.394531 147.753906 Z M 33.636719 151.832031 C 33.636719 151.832031 33.636719 151.835938 33.636719 151.835938 C 33.636719 151.835938 33.636719 151.832031 33.636719 151.832031 Z M 33.636719 151.835938 C 31.882812 157.46875 26.089844 161.867188 21.589844 167.460938 C 10.007812 181.847656 10.996094 193.816406 16.90625 210.425781 C 18.351562 213.175781 20.570312 215.902344 21.566406 219.144531 C 23.925781 226.824219 24.894531 235.246094 31.824219 238.203125 C 42.550781 242.78125 55.5625 238.421875 66.144531 239.023438 C 51.1875 234.945312 26.539062 227.222656 29.3125 203.582031 C 30.617188 215.882812 35.183594 221.894531 41.378906 225.816406 C 42.347656 226.425781 43.308594 227.019531 44.265625 227.585938 C 46.609375 228.984375 51.75 231.707031 54.035156 232.867188 C 49.324219 228.539062 44.710938 223.785156 42.769531 219.398438 C 47.308594 226.144531 62.640625 235.769531 66.695312 237.875 C 88.804688 245.191406 111.558594 244.082031 133.855469 250.054688 C 149.722656 252.71875 145.476562 254.410156 162.265625 261.578125 C 166.511719 264.429688 171.878906 266.550781 176.539062 267.703125 C 175.28125 264.503906 166.488281 257.742188 166.175781 254.195312 C 165.9375 251.433594 174.007812 252.046875 174.242188 248.609375 C 174.804688 240.269531 159.863281 240.5 165.21875 232.984375 C 167.273438 230.101562 191.039062 228.546875 194.917969 226.925781 C 180.578125 225.355469 182.832031 222.554688 178.726562 221.984375 C 174.984375 221.8125 168.402344 222.722656 167.039062 223.527344 C 163.097656 225.851562 154.691406 239.96875 144.996094 239.828125 C 132.28125 239.640625 110.167969 229.386719 91.652344 223.316406 C 86.449219 221.699219 79.800781 219.847656 75.949219 216.316406 C 73.496094 216.15625 70.980469 216.039062 68.410156 215.964844 C 77.300781 222.582031 83.902344 221.121094 117.140625 234.386719 C 89.699219 224.808594 72.273438 222.960938 62.660156 215.980469 C 60.800781 216.050781 58.960938 216.007812 57.164062 215.855469 C 69.289062 227.707031 83.179688 231.242188 115.277344 244.054688 C 91.414062 235.726562 69.371094 230.917969 54.035156 217.882812 C 52.890625 216.910156 51.789062 215.890625 50.71875 214.824219 C 34.316406 210.890625 23.925781 197.785156 38.460938 184.433594 C 31.3125 193.582031 30.660156 198.988281 39.125 207.390625 C 47.316406 215.515625 62.121094 215.628906 73.664062 213.355469 C 75.496094 212.992188 77.246094 212.570312 78.875 212.109375 C 77.605469 212.625 75.777344 213.296875 73.957031 213.898438 C 74.171875 214.269531 74.417969 214.625 74.6875 214.964844 C 82.105469 214.984375 87.445312 213.867188 101.027344 216.554688 C 99.3125 214.988281 98.851562 213.980469 97.777344 212.675781 C 96.894531 211.605469 95.96875 210.523438 95.007812 209.441406 C 82.683594 210.800781 60.546875 204.402344 51.882812 198.8125 C 42.027344 192.453125 47.632812 184.714844 55.390625 180.066406 C 54.480469 179.933594 53.542969 179.832031 52.585938 179.761719 C 53.851562 179.574219 55.105469 179.492188 56.347656 179.519531 C 63.738281 179.667969 70.722656 183.484375 77.65625 189.34375 C 86.152344 180.273438 84.410156 171.90625 81.5 164.894531 C 74.761719 162.164062 66.496094 162.109375 61.71875 167.257812 C 62.679688 168.917969 64.832031 175.152344 64.472656 178.0625 C 62.945312 172.144531 62.535156 169.007812 58.199219 165.910156 C 53.925781 162.859375 49.667969 161.59375 42.082031 165.238281 C 37.296875 170.476562 32.921875 177.714844 33.464844 185.300781 C 32.652344 174.789062 36.3125 169.1875 40.652344 164.679688 C 37.410156 160.59375 34.210938 156.382812 33.636719 151.835938 Z M 34.503906 163.605469 L 35.660156 164.90625 C 34.789062 167.707031 33.628906 168.777344 32.160156 171.136719 C 30.21875 174.25 29.3125 177.613281 28.199219 181.195312 C 27.046875 184.886719 27.636719 194.273438 22.449219 188.292969 C 20.1875 185.6875 19.554688 178.179688 20.617188 174.757812 C 22.621094 168.324219 27.683594 163.753906 34.503906 163.605469 Z M 51.71875 164.835938 C 55.171875 164.835938 59.464844 169.210938 59.820312 172.632812 L 59.628906 174.246094 C 58.480469 177.945312 55.628906 176.691406 52.738281 175.972656 C 49.628906 175.195312 41.855469 178.894531 40.1875 176.144531 C 38.320312 173.058594 48.929688 165.390625 50.863281 164.933594 C 51.140625 164.867188 51.425781 164.835938 51.71875 164.835938 Z M 286.082031 174.515625 C 284.851562 183.113281 272.414062 187.636719 258.285156 185.820312 C 255.851562 185.507812 250.953125 183.894531 245.675781 181.824219 C 246.234375 182.875 246.457031 184.089844 246.1875 185.375 C 246.070312 185.929688 245.871094 186.433594 245.613281 186.886719 C 260.445312 194.375 280.914062 195.867188 291.855469 178.464844 C 289.875 177.234375 287.8125 176.015625 286.078125 174.515625 Z M 230.988281 175.179688 C 231.308594 175.625 231.652344 176.070312 232.019531 176.515625 L 234.773438 177.097656 C 233.410156 176.441406 232.128906 175.796875 230.988281 175.179688 Z M 16.128906 183.453125 C 15.65625 189.597656 21.476562 194.371094 23.773438 199.285156 C 24.859375 201.601562 24.273438 203.34375 23.558594 204.828125 C 23.691406 203.058594 23.675781 201.742188 22.019531 199.105469 C 17.945312 192.621094 13.574219 188.050781 16.128906 183.453125 Z M 243.714844 196.714844 C 242.90625 198.769531 240.898438 199.988281 238.734375 200.238281 C 238.757812 200.261719 238.773438 200.28125 238.796875 200.300781 C 240.875 201.558594 242.28125 203.835938 241.746094 206.375 C 241.40625 207.980469 240.398438 209.171875 239.09375 209.914062 C 238.90625 210.085938 238.710938 210.261719 238.5 210.441406 C 238.109375 210.773438 237.71875 211.066406 237.324219 211.324219 C 237.996094 211.855469 238.558594 212.503906 238.964844 213.234375 C 242.523438 208.921875 244.296875 206.132812 244.296875 197.882812 C 244.34375 197.964844 244.390625 198.042969 244.4375 198.121094 C 244.203125 197.65625 243.960938 197.183594 243.714844 196.714844 Z M 61.542969 217.886719 C 61.710938 217.878906 62.234375 218.046875 63.175781 218.425781 L 76.96875 223.976562 C 87.976562 228.402344 99.625 231.128906 111.03125 234.679688 L 115.875 236.1875 C 121.46875 240.980469 93.242188 232.90625 90.496094 232.050781 C 82.113281 229.445312 60.167969 217.929688 61.542969 217.886719 Z M 197.746094 224.773438 C 196.261719 224.757812 195.035156 225.011719 194.136719 225.132812 C 198.425781 225.507812 201.804688 226.222656 203.394531 228.816406 C 205.570312 232.367188 204.425781 237.878906 197.992188 236.535156 C 201.195312 237.429688 202.253906 240.058594 200.8125 243.675781 C 199.710938 246.445312 194.226562 247.203125 191.859375 246.941406 C 193.011719 247.5625 197.335938 249.285156 196.328125 253.460938 C 195.730469 255.921875 192.671875 257.914062 190.140625 257.746094 C 195.125 260.917969 194.910156 264.789062 190.882812 267.878906 C 195.019531 266.558594 197.4375 263.625 197.078125 258.566406 C 199.96875 257.082031 201.402344 253.136719 200.011719 249.621094 C 204.0625 246.988281 204.457031 243.113281 203.355469 238.660156 C 207.503906 238.941406 208.519531 229.179688 203.675781 226.421875 C 201.4375 225.144531 199.425781 224.789062 197.746094 224.773438 Z M 197.746094 224.773438 " fill-opacity="1" fill-rule="evenodd"/><path fill="#ffffff" d="M 165.140625 65.292969 C 164.90625 65.292969 164.671875 65.300781 164.4375 65.3125 C 163.9375 65.347656 163.457031 65.417969 163.007812 65.519531 C 163.082031 65.511719 163.15625 65.507812 163.230469 65.507812 C 164.535156 65.519531 165.582031 66.585938 165.570312 67.886719 C 165.5625 68.742188 165.101562 69.484375 164.417969 69.894531 C 165.46875 69.683594 167.386719 69.019531 168.050781 68.367188 C 168.601562 67.820312 168.824219 66.988281 169.445312 66.496094 C 168.484375 65.683594 166.792969 65.296875 165.140625 65.292969 Z M 162.085938 65.796875 C 161.894531 65.871094 161.710938 65.957031 161.546875 66.050781 C 160.230469 66.796875 157.445312 67.71875 156.824219 69.128906 C 159.21875 70.03125 160.546875 70.289062 162.539062 70.128906 C 161.554688 69.835938 160.84375 68.925781 160.851562 67.847656 C 160.859375 66.960938 161.359375 66.191406 162.085938 65.796875 Z M 163.9375 66.050781 C 163.835938 66.058594 163.742188 66.085938 163.660156 66.140625 C 163.328125 66.359375 163.320312 66.921875 163.632812 67.394531 C 163.949219 67.867188 164.472656 68.070312 164.804688 67.847656 C 165.132812 67.628906 165.144531 67.066406 164.828125 66.59375 C 164.59375 66.238281 164.238281 66.039062 163.9375 66.050781 Z M 140.3125 68.136719 C 140.113281 68.136719 139.914062 68.136719 139.722656 68.148438 C 139.496094 68.160156 139.277344 68.183594 139.066406 68.214844 C 140.125 68.527344 140.898438 69.507812 140.890625 70.667969 C 140.878906 71.800781 140.125 72.753906 139.09375 73.070312 C 141.113281 72.671875 142.59375 71.6875 144.003906 70.25 C 143.878906 69.65625 141.484375 68.214844 140.9375 68.167969 C 140.722656 68.148438 140.515625 68.136719 140.3125 68.136719 Z M 138.835938 68.679688 C 138.734375 68.6875 138.640625 68.710938 138.558594 68.769531 C 138.226562 68.988281 138.21875 69.550781 138.53125 70.023438 C 138.847656 70.492188 139.371094 70.695312 139.699219 70.476562 C 140.03125 70.253906 140.042969 69.695312 139.726562 69.222656 C 139.492188 68.867188 139.136719 68.664062 138.835938 68.679688 Z M 136.261719 69.226562 C 135.152344 69.851562 134.09375 70.6875 132.886719 71.5625 C 134.210938 72.050781 136.089844 72.953125 137.796875 73.117188 C 136.660156 72.859375 135.8125 71.839844 135.824219 70.625 C 135.832031 70.105469 135.988281 69.625 136.261719 69.226562 Z M 179.839844 168.789062 C 179.214844 168.789062 178.515625 169.746094 178.25 171 C 177.964844 172.339844 178.273438 173.570312 178.925781 173.707031 L 228.125 184.113281 C 228.777344 184.253906 229.558594 183.257812 229.839844 181.917969 C 230.125 180.578125 229.816406 179.347656 229.164062 179.210938 L 179.964844 168.800781 C 179.925781 168.792969 179.882812 168.789062 179.839844 168.789062 Z M 177.621094 179.289062 C 176.996094 179.289062 176.292969 180.246094 176.027344 181.5 C 175.742188 182.839844 176.050781 184.066406 176.707031 184.207031 C 193.105469 187.675781 209.503906 191.148438 225.902344 194.613281 C 226.558594 194.753906 227.335938 193.753906 227.621094 192.414062 C 227.902344 191.074219 227.59375 189.847656 226.941406 189.710938 C 210.542969 186.238281 194.140625 182.769531 177.742188 179.300781 C 177.703125 179.292969 177.660156 179.289062 177.621094 179.289062 Z M 175.398438 189.789062 C 174.773438 189.789062 174.074219 190.742188 173.808594 192.003906 C 173.523438 193.339844 173.828125 194.570312 174.484375 194.707031 C 190.882812 198.175781 207.285156 201.644531 223.683594 205.113281 C 224.335938 205.25 225.113281 204.253906 225.398438 202.914062 C 225.679688 201.574219 225.375 200.347656 224.71875 200.210938 C 208.320312 196.742188 191.921875 193.273438 175.519531 189.800781 C 175.480469 189.792969 175.441406 189.789062 175.398438 189.789062 Z M 173.179688 200.289062 C 172.550781 200.289062 171.851562 201.242188 171.585938 202.5 C 171.300781 203.839844 171.609375 205.066406 172.265625 205.207031 C 188.664062 208.675781 205.0625 212.144531 221.460938 215.613281 C 222.117188 215.753906 222.890625 214.753906 223.175781 213.414062 C 223.460938 212.074219 223.152344 210.847656 222.5 210.710938 C 206.097656 207.242188 189.699219 203.769531 173.300781 200.300781 C 173.261719 200.292969 173.21875 200.289062 173.179688 200.289062 Z M 170.957031 210.789062 C 170.332031 210.789062 169.628906 211.746094 169.363281 213.003906 C 169.082031 214.339844 169.386719 215.570312 170.042969 215.707031 L 219.242188 226.113281 C 219.894531 226.253906 220.671875 225.253906 220.953125 223.914062 C 221.238281 222.574219 220.929688 221.347656 220.277344 221.210938 L 171.078125 210.800781 C 171.039062 210.792969 170.996094 210.789062 170.957031 210.789062 Z M 159.113281 268.753906 C 158.488281 268.753906 157.785156 269.710938 157.519531 270.964844 C 157.238281 272.304688 157.546875 273.53125 158.199219 273.671875 L 207.398438 284.078125 C 208.050781 284.21875 208.828125 283.21875 209.113281 281.878906 C 209.394531 280.539062 209.085938 279.3125 208.433594 279.171875 L 159.238281 268.765625 C 159.195312 268.757812 159.15625 268.753906 159.113281 268.753906 Z M 156.890625 279.253906 C 156.265625 279.253906 155.566406 280.207031 155.300781 281.464844 C 155.015625 282.804688 155.324219 284.03125 155.976562 284.171875 C 172.378906 287.640625 188.777344 291.109375 205.175781 294.578125 C 205.828125 294.714844 206.605469 293.71875 206.890625 292.378906 C 207.175781 291.039062 206.867188 289.8125 206.214844 289.671875 C 189.816406 286.203125 173.414062 282.734375 157.015625 279.265625 C 156.972656 279.257812 156.933594 279.253906 156.890625 279.253906 Z M 154.671875 289.753906 C 154.046875 289.753906 153.34375 290.707031 153.078125 291.964844 C 152.792969 293.304688 153.101562 294.53125 153.757812 294.671875 C 170.15625 298.140625 186.554688 301.609375 202.953125 305.078125 C 203.609375 305.214844 204.386719 304.21875 204.671875 302.878906 C 204.953125 301.539062 204.644531 300.3125 203.992188 300.171875 C 187.59375 296.703125 171.195312 293.234375 154.792969 289.765625 C 154.753906 289.757812 154.710938 289.753906 154.671875 289.753906 Z M 152.449219 300.253906 C 151.824219 300.253906 151.125 301.207031 150.855469 302.464844 C 150.574219 303.804688 150.882812 305.03125 151.535156 305.167969 C 167.933594 308.640625 184.332031 312.109375 200.734375 315.578125 C 201.386719 315.714844 202.167969 314.71875 202.449219 313.378906 C 202.730469 312.039062 202.425781 310.808594 201.769531 310.671875 C 185.371094 307.203125 168.972656 303.734375 152.574219 300.265625 C 152.53125 300.257812 152.492188 300.253906 152.449219 300.253906 Z M 150.230469 310.75 C 149.601562 310.75 148.902344 311.707031 148.636719 312.964844 C 148.351562 314.304688 148.660156 315.53125 149.316406 315.671875 L 198.511719 326.078125 C 199.164062 326.214844 199.945312 325.21875 200.226562 323.878906 C 200.511719 322.539062 200.203125 321.3125 199.550781 321.171875 L 150.351562 310.765625 C 150.3125 310.757812 150.269531 310.75 150.230469 310.75 Z M 150.230469 310.75 " fill-opacity="1" fill-rule="evenodd"/></svg>