<svg xmlns="http://www.w3.org/2000/svg" xmlns:xlink="http://www.w3.org/1999/xlink" width="500" zoomAndPan="magnify" viewBox="0 0 375 374.999991" height="500" preserveAspectRatio="xMidYMid meet" version="1.0"><defs><clipPath id="cd71b32d18"><path d="M 8 5.46875 L 372.367188 5.46875 L 372.367188 369.21875 L 8 369.21875 Z M 8 5.46875 " clip-rule="nonzero"/></clipPath></defs><path fill="#6ebed7" d="M 176.890625 26.132812 C 186.886719 16.144531 199.988281 11.152344 213.089844 11.152344 C 226.191406 11.152344 239.292969 16.144531 249.289062 26.132812 C 259.285156 36.121094 264.28125 49.210938 264.28125 62.304688 C 264.28125 75.394531 259.285156 88.484375 249.289062 98.472656 L 220.847656 126.890625 C 200.855469 146.867188 168.441406 146.867188 148.449219 126.890625 C 128.457031 106.914062 128.457031 74.527344 148.449219 54.550781 Z M 176.890625 26.132812 " fill-opacity="1" fill-rule="nonzero"/><path fill="#1e78b6" d="M 235.84375 90.722656 C 235.84375 92.398438 235.761719 94.070312 235.59375 95.734375 C 235.429688 97.402344 235.1875 99.058594 234.859375 100.699219 C 234.53125 102.34375 234.125 103.96875 233.636719 105.570312 C 233.152344 107.171875 232.585938 108.75 231.945312 110.296875 C 231.304688 111.84375 230.585938 113.355469 229.796875 114.835938 C 229.007812 116.3125 228.144531 117.746094 227.214844 119.140625 C 226.28125 120.535156 225.285156 121.878906 224.222656 123.171875 C 223.15625 124.46875 222.035156 125.707031 220.847656 126.890625 C 219.664062 128.078125 218.421875 129.199219 217.125 130.261719 C 215.828125 131.324219 214.484375 132.324219 213.089844 133.253906 C 211.695312 134.183594 210.257812 135.042969 208.78125 135.835938 C 207.300781 136.625 205.789062 137.339844 204.238281 137.980469 C 202.691406 138.621094 201.113281 139.183594 199.507812 139.671875 C 197.90625 140.15625 196.28125 140.5625 194.636719 140.890625 C 192.992188 141.21875 191.335938 141.464844 189.667969 141.628906 C 187.996094 141.792969 186.324219 141.875 184.648438 141.875 C 182.972656 141.875 181.300781 141.792969 179.628906 141.628906 C 177.960938 141.464844 176.304688 141.21875 174.660156 140.890625 C 173.015625 140.5625 171.390625 140.15625 169.789062 139.671875 C 168.183594 139.183594 166.605469 138.621094 165.058594 137.980469 C 163.507812 137.339844 161.996094 136.625 160.515625 135.835938 C 159.039062 135.042969 157.601562 134.183594 156.207031 133.253906 C 154.8125 132.324219 153.46875 131.324219 152.171875 130.261719 C 150.875 129.199219 149.636719 128.078125 148.449219 126.890625 C 147.261719 125.707031 146.140625 124.46875 145.074219 123.171875 C 144.011719 121.878906 143.015625 120.535156 142.082031 119.140625 C 141.152344 117.746094 140.289062 116.3125 139.5 114.835938 C 138.710938 113.355469 137.992188 111.84375 137.351562 110.296875 C 136.710938 108.75 136.144531 107.171875 135.660156 105.570312 C 135.171875 103.96875 134.765625 102.34375 134.4375 100.699219 C 134.113281 99.058594 133.867188 97.402344 133.703125 95.734375 C 133.539062 94.070312 133.453125 92.398438 133.453125 90.722656 C 133.453125 89.046875 133.539062 87.375 133.703125 85.707031 C 133.867188 84.039062 134.113281 82.386719 134.4375 80.742188 C 134.765625 79.097656 135.171875 77.476562 135.660156 75.875 C 136.144531 74.269531 136.710938 72.695312 137.351562 71.148438 C 137.992188 69.597656 138.710938 68.085938 139.5 66.609375 C 140.289062 65.132812 141.152344 63.695312 142.082031 62.304688 C 143.015625 60.910156 144.011719 59.566406 145.074219 58.269531 C 146.140625 56.976562 147.261719 55.734375 148.449219 54.550781 C 149.636719 53.367188 150.875 52.242188 152.171875 51.179688 C 153.46875 50.117188 154.8125 49.121094 156.207031 48.191406 C 157.601562 47.257812 159.039062 46.398438 160.515625 45.609375 C 161.996094 44.820312 163.507812 44.105469 165.058594 43.464844 C 166.605469 42.820312 168.183594 42.257812 169.789062 41.773438 C 171.390625 41.285156 173.015625 40.878906 174.660156 40.550781 C 176.304688 40.226562 177.960938 39.980469 179.628906 39.816406 C 181.300781 39.652344 182.972656 39.570312 184.648438 39.570312 C 186.324219 39.570312 187.996094 39.652344 189.667969 39.816406 C 191.335938 39.980469 192.992188 40.226562 194.636719 40.550781 C 196.28125 40.878906 197.90625 41.285156 199.507812 41.773438 C 201.113281 42.257812 202.691406 42.820312 204.238281 43.464844 C 205.789062 44.105469 207.300781 44.820312 208.78125 45.609375 C 210.257812 46.398438 211.695312 47.257812 213.089844 48.191406 C 214.484375 49.121094 215.828125 50.117188 217.125 51.179688 C 218.421875 52.242188 219.664062 53.367188 220.847656 54.550781 C 222.035156 55.734375 223.15625 56.976562 224.222656 58.269531 C 225.285156 59.566406 226.28125 60.910156 227.214844 62.304688 C 228.144531 63.695312 229.007812 65.132812 229.796875 66.609375 C 230.585938 68.085938 231.304688 69.597656 231.945312 71.148438 C 232.585938 72.695312 233.152344 74.269531 233.636719 75.875 C 234.125 77.476562 234.53125 79.097656 234.859375 80.742188 C 235.1875 82.386719 235.429688 84.039062 235.59375 85.707031 C 235.761719 87.375 235.84375 89.046875 235.84375 90.722656 Z M 235.84375 90.722656 " fill-opacity="1" fill-rule="nonzero"/><path fill="#aad2d7" d="M 65.195312 227.128906 C 60.832031 227.128906 56.464844 225.464844 53.132812 222.132812 C 46.464844 215.476562 46.464844 204.679688 53.132812 198.023438 L 172.582031 78.667969 C 179.25 72.007812 190.046875 72.007812 196.714844 78.667969 C 203.378906 85.324219 203.378906 96.121094 196.714844 102.777344 L 77.261719 222.132812 C 73.929688 225.464844 69.5625 227.128906 65.195312 227.128906 Z M 65.195312 227.128906 " fill-opacity="1" fill-rule="nonzero"/><path fill="#6ebed7" d="M 57.4375 145.488281 C 67.433594 135.5 80.535156 130.507812 93.636719 130.507812 C 106.738281 130.507812 119.839844 135.5 129.835938 145.488281 C 139.832031 155.476562 144.832031 168.566406 144.832031 181.660156 C 144.832031 194.75 139.832031 207.839844 129.835938 217.828125 L 101.394531 246.246094 C 81.402344 266.222656 48.988281 266.222656 28.996094 246.246094 C 9.003906 226.269531 9.003906 193.882812 28.996094 173.90625 Z M 57.4375 145.488281 " fill-opacity="1" fill-rule="nonzero"/><path fill="#1e78b6" d="M 101.394531 246.246094 C 91.398438 256.234375 78.296875 261.230469 65.195312 261.230469 C 52.09375 261.230469 38.992188 256.234375 28.996094 246.246094 C 19 236.257812 14.003906 223.167969 14.003906 210.078125 C 14.003906 196.988281 19 183.894531 28.996094 173.90625 C 48.988281 153.929688 81.402344 153.929688 101.394531 173.90625 C 121.386719 193.882812 121.386719 226.269531 101.394531 246.246094 Z M 101.394531 246.246094 " fill-opacity="1" fill-rule="nonzero"/><path fill="#aad2d7" d="M 82.261719 210.078125 C 82.261719 210.636719 82.234375 211.191406 82.179688 211.75 C 82.125 212.304688 82.042969 212.855469 81.933594 213.402344 C 81.824219 213.953125 81.6875 214.492188 81.527344 215.027344 C 81.363281 215.5625 81.175781 216.085938 80.960938 216.601562 C 80.75 217.117188 80.511719 217.621094 80.246094 218.113281 C 79.984375 218.609375 79.695312 219.085938 79.386719 219.550781 C 79.074219 220.015625 78.742188 220.460938 78.386719 220.894531 C 78.035156 221.324219 77.660156 221.738281 77.261719 222.132812 C 76.867188 222.527344 76.453125 222.902344 76.023438 223.257812 C 75.589844 223.613281 75.140625 223.945312 74.675781 224.253906 C 74.210938 224.566406 73.734375 224.851562 73.242188 225.113281 C 72.75 225.378906 72.242188 225.617188 71.726562 225.832031 C 71.210938 226.042969 70.683594 226.230469 70.152344 226.394531 C 69.617188 226.554688 69.074219 226.691406 68.527344 226.800781 C 67.976562 226.910156 67.425781 226.992188 66.871094 227.046875 C 66.3125 227.101562 65.753906 227.128906 65.195312 227.128906 C 64.636719 227.128906 64.082031 227.101562 63.523438 227.046875 C 62.96875 226.992188 62.414062 226.910156 61.867188 226.800781 C 61.320312 226.691406 60.777344 226.554688 60.242188 226.394531 C 59.707031 226.230469 59.183594 226.042969 58.667969 225.832031 C 58.148438 225.617188 57.644531 225.378906 57.152344 225.113281 C 56.660156 224.851562 56.179688 224.566406 55.714844 224.253906 C 55.25 223.945312 54.804688 223.613281 54.371094 223.257812 C 53.9375 222.902344 53.527344 222.527344 53.128906 222.132812 C 52.734375 221.738281 52.359375 221.324219 52.007812 220.894531 C 51.652344 220.460938 51.320312 220.015625 51.007812 219.550781 C 50.699219 219.085938 50.410156 218.609375 50.148438 218.113281 C 49.882812 217.621094 49.644531 217.117188 49.429688 216.601562 C 49.21875 216.085938 49.03125 215.5625 48.867188 215.027344 C 48.703125 214.492188 48.570312 213.953125 48.460938 213.402344 C 48.351562 212.855469 48.269531 212.304688 48.214844 211.75 C 48.160156 211.191406 48.132812 210.636719 48.132812 210.078125 C 48.132812 209.519531 48.160156 208.960938 48.214844 208.40625 C 48.269531 207.851562 48.351562 207.296875 48.460938 206.75 C 48.570312 206.203125 48.703125 205.660156 48.867188 205.128906 C 49.03125 204.59375 49.21875 204.066406 49.429688 203.550781 C 49.644531 203.035156 49.882812 202.53125 50.148438 202.039062 C 50.410156 201.546875 50.699219 201.070312 51.007812 200.605469 C 51.320312 200.140625 51.652344 199.691406 52.007812 199.261719 C 52.359375 198.828125 52.734375 198.414062 53.128906 198.019531 C 53.527344 197.625 53.9375 197.25 54.371094 196.898438 C 54.804688 196.542969 55.25 196.210938 55.714844 195.898438 C 56.179688 195.589844 56.660156 195.304688 57.152344 195.039062 C 57.644531 194.777344 58.148438 194.539062 58.667969 194.324219 C 59.183594 194.109375 59.707031 193.921875 60.242188 193.761719 C 60.777344 193.597656 61.320312 193.464844 61.867188 193.355469 C 62.414062 193.246094 62.96875 193.164062 63.523438 193.109375 C 64.082031 193.054688 64.636719 193.027344 65.195312 193.027344 C 65.753906 193.027344 66.3125 193.054688 66.871094 193.109375 C 67.425781 193.164062 67.976562 193.246094 68.527344 193.355469 C 69.074219 193.464844 69.617188 193.597656 70.152344 193.761719 C 70.683594 193.921875 71.210938 194.109375 71.726562 194.324219 C 72.242188 194.539062 72.75 194.777344 73.242188 195.039062 C 73.734375 195.304688 74.210938 195.589844 74.675781 195.898438 C 75.140625 196.210938 75.589844 196.542969 76.023438 196.898438 C 76.453125 197.25 76.867188 197.625 77.261719 198.019531 C 77.660156 198.414062 78.035156 198.828125 78.386719 199.261719 C 78.742188 199.691406 79.074219 200.140625 79.386719 200.605469 C 79.695312 201.070312 79.984375 201.546875 80.246094 202.039062 C 80.511719 202.53125 80.75 203.035156 80.960938 203.550781 C 81.175781 204.066406 81.363281 204.59375 81.527344 205.128906 C 81.6875 205.660156 81.824219 206.203125 81.933594 206.75 C 82.042969 207.296875 82.125 207.851562 82.179688 208.40625 C 82.234375 208.960938 82.261719 209.519531 82.261719 210.078125 Z M 82.261719 210.078125 " fill-opacity="1" fill-rule="nonzero"/><path fill="#6ebed7" d="M 279.277344 128.4375 C 289.273438 118.449219 302.375 113.457031 315.476562 113.457031 C 328.578125 113.457031 341.679688 118.449219 351.675781 128.4375 C 361.671875 138.425781 366.671875 151.515625 366.671875 164.609375 C 366.671875 177.699219 361.671875 190.789062 351.675781 200.777344 L 323.234375 229.195312 C 303.242188 249.171875 270.828125 249.171875 250.835938 229.195312 C 230.84375 209.21875 230.84375 176.832031 250.835938 156.855469 Z M 279.277344 128.4375 " fill-opacity="1" fill-rule="nonzero"/><path fill="#1e78b6" d="M 338.230469 193.027344 C 338.230469 194.703125 338.148438 196.375 337.984375 198.039062 C 337.820312 199.707031 337.574219 201.363281 337.246094 203.003906 C 336.917969 204.648438 336.511719 206.273438 336.023438 207.875 C 335.539062 209.476562 334.972656 211.054688 334.332031 212.601562 C 333.691406 214.148438 332.976562 215.660156 332.183594 217.140625 C 331.394531 218.617188 330.53125 220.050781 329.601562 221.445312 C 328.671875 222.839844 327.671875 224.183594 326.609375 225.476562 C 325.546875 226.773438 324.421875 228.011719 323.234375 229.195312 C 322.050781 230.382812 320.808594 231.503906 319.511719 232.566406 C 318.214844 233.628906 316.871094 234.628906 315.476562 235.558594 C 314.082031 236.488281 312.648438 237.347656 311.167969 238.140625 C 309.691406 238.929688 308.175781 239.644531 306.625 240.285156 C 305.078125 240.925781 303.5 241.488281 301.894531 241.976562 C 300.292969 242.460938 298.667969 242.867188 297.023438 243.195312 C 295.378906 243.523438 293.722656 243.769531 292.054688 243.933594 C 290.386719 244.097656 288.710938 244.179688 287.035156 244.179688 C 285.359375 244.179688 283.6875 244.097656 282.019531 243.933594 C 280.347656 243.769531 278.691406 243.523438 277.046875 243.195312 C 275.402344 242.867188 273.78125 242.460938 272.175781 241.976562 C 270.570312 241.488281 268.992188 240.925781 267.445312 240.285156 C 265.894531 239.644531 264.382812 238.929688 262.902344 238.140625 C 261.425781 237.347656 259.988281 236.488281 258.59375 235.558594 C 257.199219 234.628906 255.855469 233.628906 254.558594 232.566406 C 253.261719 231.503906 252.023438 230.382812 250.835938 229.195312 C 249.652344 228.011719 248.527344 226.773438 247.460938 225.476562 C 246.398438 224.183594 245.402344 222.839844 244.46875 221.445312 C 243.539062 220.050781 242.675781 218.617188 241.886719 217.140625 C 241.097656 215.660156 240.378906 214.148438 239.738281 212.601562 C 239.097656 211.054688 238.53125 209.476562 238.046875 207.875 C 237.558594 206.273438 237.152344 204.648438 236.824219 203.003906 C 236.5 201.363281 236.253906 199.707031 236.089844 198.039062 C 235.925781 196.375 235.84375 194.703125 235.84375 193.027344 C 235.84375 191.351562 235.925781 189.679688 236.089844 188.011719 C 236.253906 186.34375 236.5 184.691406 236.824219 183.046875 C 237.152344 181.402344 237.558594 179.78125 238.046875 178.179688 C 238.53125 176.574219 239.097656 175 239.738281 173.453125 C 240.378906 171.902344 241.097656 170.390625 241.886719 168.914062 C 242.675781 167.4375 243.539062 166 244.46875 164.609375 C 245.402344 163.214844 246.398438 161.871094 247.460938 160.574219 C 248.527344 159.28125 249.652344 158.039062 250.835938 156.855469 C 252.023438 155.671875 253.261719 154.546875 254.558594 153.484375 C 255.855469 152.421875 257.199219 151.425781 258.59375 150.496094 C 259.988281 149.5625 261.425781 148.703125 262.902344 147.914062 C 264.382812 147.125 265.894531 146.410156 267.445312 145.769531 C 268.992188 145.125 270.570312 144.5625 272.175781 144.078125 C 273.78125 143.589844 275.402344 143.183594 277.046875 142.855469 C 278.691406 142.53125 280.347656 142.285156 282.019531 142.121094 C 283.6875 141.957031 285.359375 141.875 287.035156 141.875 C 288.710938 141.875 290.386719 141.957031 292.054688 142.121094 C 293.722656 142.285156 295.378906 142.53125 297.023438 142.855469 C 298.667969 143.183594 300.292969 143.589844 301.894531 144.078125 C 303.5 144.5625 305.078125 145.125 306.625 145.769531 C 308.175781 146.410156 309.691406 147.125 311.167969 147.914062 C 312.648438 148.703125 314.082031 149.5625 315.476562 150.496094 C 316.871094 151.425781 318.214844 152.421875 319.511719 153.484375 C 320.808594 154.546875 322.050781 155.671875 323.234375 156.855469 C 324.421875 158.039062 325.546875 159.28125 326.609375 160.574219 C 327.671875 161.871094 328.671875 163.214844 329.601562 164.609375 C 330.53125 166 331.394531 167.4375 332.183594 168.914062 C 332.976562 170.390625 333.691406 171.902344 334.332031 173.453125 C 334.972656 175 335.539062 176.574219 336.023438 178.179688 C 336.511719 179.78125 336.917969 181.402344 337.246094 183.046875 C 337.574219 184.691406 337.820312 186.34375 337.984375 188.011719 C 338.148438 189.679688 338.230469 191.351562 338.230469 193.027344 Z M 338.230469 193.027344 " fill-opacity="1" fill-rule="nonzero"/><path fill="#aad2d7" d="M 167.585938 329.433594 C 163.21875 329.433594 158.851562 327.769531 155.519531 324.4375 C 148.851562 317.78125 148.851562 306.984375 155.519531 300.328125 L 274.96875 180.972656 C 281.636719 174.308594 292.433594 174.308594 299.101562 180.972656 C 305.765625 187.628906 305.765625 198.425781 299.101562 205.082031 L 179.648438 324.4375 C 176.316406 327.769531 171.949219 329.433594 167.585938 329.433594 Z M 167.585938 329.433594 " fill-opacity="1" fill-rule="nonzero"/><path fill="#6ebed7" d="M 159.824219 247.792969 C 169.820312 237.804688 182.921875 232.8125 196.023438 232.8125 C 209.125 232.8125 222.226562 237.804688 232.222656 247.792969 C 242.21875 257.78125 247.21875 270.871094 247.21875 283.964844 C 247.21875 297.054688 242.21875 310.144531 232.222656 320.132812 L 203.785156 348.550781 C 183.789062 368.527344 151.378906 368.527344 131.382812 348.550781 C 111.390625 328.574219 111.390625 296.1875 131.382812 276.210938 Z M 159.824219 247.792969 " fill-opacity="1" fill-rule="nonzero"/><path fill="#1e78b6" d="M 203.785156 348.550781 C 193.789062 358.539062 180.6875 363.535156 167.585938 363.535156 C 154.484375 363.535156 141.382812 358.539062 131.382812 348.550781 C 121.386719 338.5625 116.390625 325.472656 116.390625 312.382812 C 116.390625 299.292969 121.386719 286.199219 131.382812 276.210938 C 151.378906 256.234375 183.792969 256.234375 203.785156 276.210938 C 223.777344 296.1875 223.777344 328.574219 203.785156 348.550781 Z M 203.785156 348.550781 " fill-opacity="1" fill-rule="nonzero"/><path fill="#aad2d7" d="M 184.648438 312.382812 C 184.648438 312.941406 184.621094 313.496094 184.566406 314.054688 C 184.511719 314.609375 184.429688 315.160156 184.320312 315.707031 C 184.210938 316.257812 184.074219 316.796875 183.914062 317.332031 C 183.75 317.867188 183.5625 318.390625 183.347656 318.90625 C 183.136719 319.421875 182.898438 319.925781 182.632812 320.417969 C 182.371094 320.910156 182.082031 321.390625 181.773438 321.855469 C 181.460938 322.320312 181.128906 322.765625 180.773438 323.199219 C 180.421875 323.628906 180.046875 324.042969 179.652344 324.4375 C 179.253906 324.832031 178.839844 325.207031 178.410156 325.5625 C 177.976562 325.917969 177.527344 326.25 177.066406 326.558594 C 176.601562 326.871094 176.121094 327.15625 175.628906 327.417969 C 175.136719 327.683594 174.628906 327.921875 174.113281 328.136719 C 173.597656 328.347656 173.074219 328.535156 172.539062 328.699219 C 172.003906 328.859375 171.460938 328.996094 170.914062 329.105469 C 170.363281 329.214844 169.8125 329.296875 169.257812 329.351562 C 168.699219 329.40625 168.144531 329.433594 167.585938 329.433594 C 167.023438 329.433594 166.46875 329.40625 165.910156 329.351562 C 165.355469 329.296875 164.804688 329.214844 164.253906 329.105469 C 163.707031 328.996094 163.164062 328.859375 162.628906 328.699219 C 162.09375 328.535156 161.570312 328.347656 161.054688 328.136719 C 160.539062 327.921875 160.03125 327.683594 159.539062 327.417969 C 159.046875 327.15625 158.566406 326.871094 158.101562 326.558594 C 157.640625 326.25 157.191406 325.917969 156.757812 325.5625 C 156.328125 325.207031 155.914062 324.832031 155.519531 324.4375 C 155.121094 324.042969 154.746094 323.628906 154.394531 323.199219 C 154.039062 322.765625 153.707031 322.320312 153.394531 321.855469 C 153.085938 321.390625 152.796875 320.910156 152.535156 320.417969 C 152.269531 319.925781 152.03125 319.421875 151.820312 318.90625 C 151.605469 318.390625 151.417969 317.867188 151.253906 317.332031 C 151.09375 316.796875 150.957031 316.257812 150.847656 315.707031 C 150.738281 315.160156 150.65625 314.609375 150.601562 314.054688 C 150.546875 313.496094 150.519531 312.941406 150.519531 312.382812 C 150.519531 311.824219 150.546875 311.265625 150.601562 310.710938 C 150.65625 310.15625 150.738281 309.601562 150.847656 309.054688 C 150.957031 308.507812 151.09375 307.964844 151.253906 307.433594 C 151.417969 306.898438 151.605469 306.371094 151.820312 305.855469 C 152.03125 305.339844 152.269531 304.835938 152.535156 304.34375 C 152.796875 303.851562 153.085938 303.375 153.394531 302.910156 C 153.707031 302.445312 154.039062 301.996094 154.394531 301.566406 C 154.746094 301.132812 155.121094 300.71875 155.519531 300.324219 C 155.914062 299.929688 156.328125 299.554688 156.757812 299.203125 C 157.191406 298.847656 157.640625 298.515625 158.101562 298.203125 C 158.566406 297.894531 159.046875 297.609375 159.539062 297.34375 C 160.03125 297.082031 160.539062 296.84375 161.054688 296.628906 C 161.570312 296.414062 162.09375 296.226562 162.628906 296.066406 C 163.164062 295.902344 163.707031 295.769531 164.253906 295.660156 C 164.804688 295.550781 165.355469 295.46875 165.910156 295.414062 C 166.46875 295.359375 167.023438 295.332031 167.585938 295.332031 C 168.144531 295.332031 168.699219 295.359375 169.257812 295.414062 C 169.8125 295.46875 170.363281 295.550781 170.914062 295.660156 C 171.460938 295.769531 172.003906 295.902344 172.539062 296.066406 C 173.074219 296.226562 173.597656 296.414062 174.113281 296.628906 C 174.628906 296.84375 175.136719 297.082031 175.628906 297.34375 C 176.121094 297.609375 176.601562 297.894531 177.066406 298.203125 C 177.527344 298.515625 177.976562 298.847656 178.410156 299.203125 C 178.839844 299.554688 179.253906 299.929688 179.652344 300.324219 C 180.046875 300.71875 180.421875 301.132812 180.773438 301.566406 C 181.128906 301.996094 181.460938 302.445312 181.773438 302.910156 C 182.082031 303.375 182.371094 303.851562 182.632812 304.34375 C 182.898438 304.835938 183.136719 305.339844 183.347656 305.855469 C 183.5625 306.371094 183.75 306.898438 183.914062 307.433594 C 184.074219 307.964844 184.210938 308.507812 184.320312 309.054688 C 184.429688 309.601562 184.511719 310.15625 184.566406 310.710938 C 184.621094 311.265625 184.648438 311.824219 184.648438 312.382812 Z M 184.648438 312.382812 " fill-opacity="1" fill-rule="nonzero"/><g clip-path="url(#cd71b32d18)"><path fill="#000000" d="M 150.503906 181.660156 C 150.503906 174.4375 149.125 167.4375 146.566406 160.90625 L 163.957031 143.53125 C 170.65625 146.148438 177.65625 147.507812 184.628906 147.507812 C 199.40625 147.507812 213.984375 141.773438 224.863281 130.910156 L 253.304688 102.492188 C 264.046875 91.753906 269.964844 77.480469 269.964844 62.304688 C 269.964844 47.125 264.046875 32.851562 253.304688 22.117188 C 242.554688 11.378906 228.273438 5.46875 213.078125 5.46875 C 197.886719 5.46875 183.601562 11.378906 172.855469 22.117188 L 144.410156 50.535156 C 128.394531 66.535156 123.539062 90.550781 131.726562 111.4375 L 114.390625 128.761719 C 107.855469 126.203125 100.847656 124.824219 93.621094 124.824219 C 78.425781 124.824219 64.144531 130.734375 53.394531 141.472656 L 24.953125 169.890625 C 2.769531 192.050781 2.769531 228.105469 24.953125 250.265625 C 35.695312 261.003906 49.984375 266.914062 65.175781 266.914062 C 80.371094 266.914062 94.660156 261.003906 105.402344 250.265625 L 133.84375 221.847656 C 144.589844 211.109375 150.503906 196.835938 150.503906 181.660156 Z M 180.898438 30.152344 C 189.496094 21.5625 200.925781 16.835938 213.078125 16.835938 C 225.234375 16.835938 236.660156 21.5625 245.261719 30.152344 C 253.855469 38.742188 258.585938 50.160156 258.585938 62.304688 C 258.585938 74.449219 253.855469 85.867188 245.261719 94.453125 L 240.882812 98.828125 C 241.261719 96.160156 241.523438 93.464844 241.523438 90.722656 C 241.523438 75.542969 235.605469 61.269531 224.863281 50.535156 C 214.117188 39.796875 199.828125 33.886719 184.636719 33.886719 C 181.890625 33.886719 179.191406 34.144531 176.523438 34.523438 Z M 152.453125 58.570312 C 161.050781 49.980469 172.480469 45.253906 184.636719 45.253906 C 196.792969 45.253906 208.222656 49.980469 216.816406 58.570312 C 234.5625 76.300781 234.5625 105.144531 216.816406 122.871094 C 205.238281 134.433594 188.429688 138.648438 172.957031 134.539062 L 200.722656 106.796875 C 205.023438 102.503906 207.390625 96.792969 207.390625 90.722656 C 207.390625 84.648438 205.023438 78.941406 200.722656 74.648438 C 191.859375 65.785156 177.414062 65.785156 168.546875 74.648438 L 140.78125 102.390625 C 136.667969 86.929688 140.878906 70.136719 152.453125 58.570312 Z M 176.59375 82.683594 C 181.027344 78.253906 188.246094 78.253906 192.679688 82.683594 C 194.832031 84.832031 196.011719 87.6875 196.011719 90.722656 C 196.011719 93.757812 194.832031 96.609375 192.679688 98.757812 L 141.082031 150.3125 C 138.992188 147.167969 136.578125 144.203125 133.84375 141.472656 C 131.109375 138.738281 128.140625 136.328125 124.992188 134.238281 Z M 32.996094 242.226562 C 15.253906 224.5 15.253906 195.65625 32.996094 177.925781 C 41.589844 169.335938 53.023438 164.609375 65.175781 164.609375 C 77.332031 164.609375 88.765625 169.335938 97.359375 177.925781 C 115.101562 195.65625 115.101562 224.5 97.359375 242.226562 C 88.765625 250.816406 77.332031 255.546875 65.175781 255.546875 C 53.023438 255.546875 41.589844 250.816406 32.996094 242.226562 Z M 121.421875 218.183594 C 121.804688 215.515625 122.0625 212.820312 122.0625 210.078125 C 122.0625 194.898438 116.144531 180.625 105.402344 169.890625 C 94.660156 159.152344 80.371094 153.242188 65.175781 153.242188 C 62.433594 153.242188 59.734375 153.5 57.0625 153.878906 L 61.4375 149.507812 C 70.039062 140.917969 81.464844 136.191406 93.621094 136.191406 C 100.621094 136.191406 107.355469 137.804688 113.472656 140.777344 L 113.539062 140.808594 C 118.015625 142.992188 122.171875 145.882812 125.800781 149.507812 C 129.429688 153.132812 132.320312 157.28125 134.507812 161.757812 L 134.539062 161.824219 C 137.511719 167.933594 139.128906 174.664062 139.128906 181.660156 C 139.128906 193.804688 134.394531 205.21875 125.800781 213.808594 Z M 65.175781 187.34375 C 52.628906 187.34375 42.421875 197.542969 42.421875 210.078125 C 42.421875 222.613281 52.628906 232.8125 65.175781 232.8125 C 77.726562 232.8125 87.929688 222.613281 87.929688 210.078125 C 87.929688 197.542969 77.726562 187.34375 65.175781 187.34375 Z M 65.175781 221.445312 C 58.90625 221.445312 53.800781 216.347656 53.800781 210.078125 C 53.800781 203.808594 58.90625 198.710938 65.175781 198.710938 C 71.449219 198.710938 76.554688 203.808594 76.554688 210.078125 C 76.554688 216.347656 71.449219 221.445312 65.175781 221.445312 Z M 355.699219 124.421875 C 344.949219 113.683594 330.667969 107.773438 315.472656 107.773438 C 300.28125 107.773438 285.996094 113.683594 275.246094 124.421875 L 246.804688 152.839844 C 230.789062 168.839844 225.933594 192.855469 234.121094 213.742188 L 216.78125 231.066406 C 210.25 228.507812 203.242188 227.128906 196.011719 227.128906 C 180.820312 227.128906 166.539062 233.039062 155.789062 243.777344 L 127.34375 272.195312 C 105.164062 294.355469 105.164062 330.410156 127.34375 352.570312 C 138.089844 363.308594 152.378906 369.21875 167.570312 369.21875 C 182.765625 369.21875 197.050781 363.308594 207.796875 352.570312 L 236.238281 324.152344 C 246.984375 313.414062 252.898438 299.140625 252.898438 283.964844 C 252.898438 276.742188 251.519531 269.742188 248.957031 263.210938 L 266.351562 245.835938 C 273.050781 248.453125 280.050781 249.8125 287.023438 249.8125 C 301.800781 249.8125 316.378906 244.078125 327.253906 233.214844 L 355.699219 204.796875 C 366.441406 194.058594 372.359375 179.785156 372.359375 164.609375 C 372.359375 149.429688 366.441406 135.15625 355.699219 124.421875 Z M 135.390625 344.53125 C 117.644531 326.804688 117.644531 297.960938 135.390625 280.230469 C 143.984375 271.640625 155.414062 266.914062 167.570312 266.914062 C 179.726562 266.914062 191.15625 271.640625 199.753906 280.230469 C 217.496094 297.960938 217.496094 326.804688 199.753906 344.53125 C 191.15625 353.121094 179.726562 357.851562 167.570312 357.851562 C 155.414062 357.851562 143.984375 353.121094 135.390625 344.53125 Z M 228.195312 316.113281 L 223.816406 320.488281 C 224.195312 317.820312 224.457031 315.125 224.457031 312.382812 C 224.457031 297.203125 218.539062 282.929688 207.796875 272.195312 C 197.050781 261.457031 182.765625 255.546875 167.570312 255.546875 C 164.824219 255.546875 162.128906 255.804688 159.457031 256.183594 L 163.832031 251.8125 C 172.429688 243.222656 183.859375 238.496094 196.011719 238.496094 C 203.011719 238.496094 209.75 240.109375 215.867188 243.082031 L 215.933594 243.113281 C 220.410156 245.296875 224.566406 248.1875 228.195312 251.8125 C 231.820312 255.4375 234.714844 259.585938 236.898438 264.0625 L 236.933594 264.128906 C 239.90625 270.238281 241.523438 276.96875 241.523438 283.964844 C 241.523438 296.109375 236.789062 307.523438 228.195312 316.113281 Z M 236.238281 243.777344 C 233.503906 241.042969 230.535156 238.632812 227.386719 236.542969 L 278.984375 184.988281 C 283.417969 180.558594 290.640625 180.558594 295.074219 184.988281 C 297.222656 187.136719 298.40625 189.992188 298.40625 193.027344 C 298.40625 196.0625 297.222656 198.914062 295.074219 201.0625 L 243.476562 252.617188 C 241.382812 249.472656 238.972656 246.507812 236.238281 243.777344 Z M 275.355469 236.839844 L 303.117188 209.101562 C 307.417969 204.808594 309.785156 199.097656 309.785156 193.027344 C 309.785156 186.953125 307.417969 181.246094 303.117188 176.953125 C 294.25 168.089844 279.808594 168.089844 270.941406 176.953125 L 243.175781 204.695312 C 239.0625 189.234375 243.273438 172.441406 254.847656 160.875 C 263.441406 152.285156 274.875 147.558594 287.03125 147.558594 C 299.183594 147.558594 310.617188 152.285156 319.210938 160.875 C 336.953125 178.605469 336.953125 207.449219 319.210938 225.175781 C 307.632812 236.738281 290.824219 240.945312 275.355469 236.839844 Z M 347.652344 196.757812 L 343.277344 201.132812 C 343.65625 198.464844 343.914062 195.769531 343.914062 193.027344 C 343.914062 177.847656 338 163.574219 327.253906 152.839844 C 316.511719 142.101562 302.222656 136.191406 287.03125 136.191406 C 284.285156 136.191406 281.585938 136.449219 278.917969 136.828125 L 283.292969 132.457031 C 291.890625 123.867188 303.316406 119.140625 315.472656 119.140625 C 327.628906 119.140625 339.054688 123.867188 347.652344 132.457031 C 356.246094 141.046875 360.980469 152.464844 360.980469 164.609375 C 360.980469 176.753906 356.246094 188.167969 347.652344 196.757812 Z M 167.570312 289.648438 C 155.019531 289.648438 144.816406 299.847656 144.816406 312.382812 C 144.816406 324.917969 155.019531 335.117188 167.570312 335.117188 C 180.121094 335.117188 190.324219 324.917969 190.324219 312.382812 C 190.324219 299.847656 180.121094 289.648438 167.570312 289.648438 Z M 167.570312 323.75 C 161.300781 323.75 156.195312 318.652344 156.195312 312.382812 C 156.195312 306.113281 161.300781 301.015625 167.570312 301.015625 C 173.84375 301.015625 178.949219 306.113281 178.949219 312.382812 C 178.949219 318.652344 173.84375 323.75 167.570312 323.75 Z M 167.570312 323.75 " fill-opacity="1" fill-rule="nonzero"/></g></svg>