<svg xmlns="http://www.w3.org/2000/svg" xmlns:xlink="http://www.w3.org/1999/xlink" width="500" zoomAndPan="magnify" viewBox="0 0 375 374.999991" height="500" preserveAspectRatio="xMidYMid meet" version="1.0"><defs><clipPath id="8daca6eee9"><path d="M 5 32.109375 L 370 32.109375 L 370 299 L 5 299 Z M 5 32.109375 " clip-rule="nonzero"/></clipPath><clipPath id="dbc3bcfa5b"><path d="M 84 149 L 291 149 L 291 342.609375 L 84 342.609375 Z M 84 149 " clip-rule="nonzero"/></clipPath></defs><g clip-path="url(#8daca6eee9)"><path fill="#000000" d="M 364.859375 298.648438 L 298.777344 298.648438 C 297.75 298.648438 296.792969 298.164062 296.1875 297.335938 C 295.632812 296.570312 283.035156 278.914062 291.152344 261.519531 C 287.035156 256.015625 274.242188 237.625 268.925781 214.699219 C 268.527344 212.988281 269.597656 211.269531 271.320312 210.878906 C 273.035156 210.476562 274.757812 211.542969 275.148438 213.261719 C 281.074219 238.769531 297.234375 258.960938 297.402344 259.160156 C 298.21875 260.171875 298.339844 261.578125 297.703125 262.714844 C 290.980469 274.800781 297.949219 288.109375 300.503906 292.265625 L 362.210938 292.265625 C 368.039062 257.445312 346.066406 244.171875 345.84375 244.039062 C 344.496094 243.257812 343.914062 241.621094 344.460938 240.167969 C 355.210938 211.558594 338.53125 187.554688 338.355469 187.320312 C 337.742188 186.449219 337.589844 185.320312 337.980469 184.320312 C 344.597656 167.207031 344.539062 152.746094 337.816406 141.34375 C 325.714844 120.796875 295.695312 116.410156 295.398438 116.359375 C 294.242188 116.199219 293.257812 115.425781 292.84375 114.339844 C 287.425781 100.132812 267.171875 98.097656 261.730469 100.050781 C 261.074219 100.292969 260.355469 100.300781 259.699219 100.101562 C 242.921875 94.890625 231.863281 81.855469 227.710938 62.425781 C 225.601562 52.507812 225.792969 43.40625 226.132812 38.554688 L 148.855469 38.554688 C 149.207031 43.40625 149.398438 52.507812 147.277344 62.425781 C 143.125 81.855469 132.066406 94.890625 115.296875 100.101562 C 114.632812 100.300781 113.917969 100.285156 113.265625 100.050781 C 107.820312 98.097656 87.5625 100.132812 82.144531 114.339844 C 81.730469 115.425781 80.757812 116.199219 79.601562 116.359375 C 79.300781 116.40625 49.277344 120.796875 37.171875 141.34375 C 30.449219 152.746094 30.402344 167.207031 37.015625 184.320312 C 37.398438 185.320312 37.253906 186.449219 36.632812 187.320312 C 36.464844 187.554688 19.777344 211.558594 30.527344 240.167969 C 31.074219 241.621094 30.492188 243.257812 29.152344 244.039062 C 28.230469 244.589844 6.964844 257.664062 12.78125 292.265625 L 74.484375 292.265625 C 77.03125 288.101562 83.984375 274.742188 77.289062 262.714844 C 76.648438 261.570312 76.78125 260.148438 77.613281 259.132812 C 77.785156 258.933594 94.375 238.644531 100.273438 213.222656 C 100.671875 211.5 102.386719 210.4375 104.109375 210.828125 C 105.820312 211.226562 106.894531 212.945312 106.496094 214.660156 C 101.179688 237.589844 88.078125 256.027344 83.851562 261.535156 C 91.945312 278.933594 79.359375 296.570312 78.800781 297.335938 C 78.203125 298.164062 77.238281 298.648438 76.214844 298.648438 L 10.128906 298.648438 C 8.605469 298.648438 7.289062 297.574219 6.992188 296.085938 C 0.0546875 261.519531 17.332031 244.878906 23.710938 240.050781 C 14.738281 213.105469 26.816406 190.898438 30.46875 185.070312 C 23.710938 166.691406 24.121094 150.894531 31.691406 138.066406 C 43.695312 117.738281 69.726562 111.652344 76.902344 110.339844 C 84.433594 94.214844 106.121094 91.722656 114.300781 93.710938 C 128.375 89.011719 137.351562 78.101562 140.996094 61.261719 C 143.855469 48.019531 142.191406 35.9375 142.175781 35.8125 C 142.042969 34.898438 142.316406 33.964844 142.925781 33.265625 C 143.53125 32.570312 144.414062 32.171875 145.335938 32.171875 L 229.601562 32.171875 C 229.695312 32.171875 229.785156 32.171875 229.882812 32.179688 C 230.25 32.203125 230.609375 32.289062 230.933594 32.4375 C 231.382812 32.628906 231.765625 32.917969 232.070312 33.277344 C 232.378906 33.632812 232.613281 34.058594 232.738281 34.523438 C 232.828125 34.863281 232.871094 35.222656 232.84375 35.578125 C 232.839844 35.667969 232.828125 35.761719 232.8125 35.851562 C 232.710938 36.574219 231.207031 48.371094 233.992188 61.261719 C 237.636719 78.101562 246.613281 89.011719 260.699219 93.710938 C 268.875 91.714844 290.554688 94.214844 298.082031 110.339844 C 305.261719 111.652344 331.300781 117.738281 343.304688 138.066406 C 350.871094 150.894531 351.277344 166.691406 344.519531 185.070312 C 348.183594 190.898438 360.253906 213.105469 351.277344 240.050781 C 357.65625 244.878906 374.945312 261.519531 367.996094 296.085938 C 367.699219 297.574219 366.382812 298.648438 364.859375 298.648438 Z M 364.859375 298.648438 " fill-opacity="1" fill-rule="evenodd"/></g><path fill="#000000" d="M 34.078125 245.144531 C 30.558594 245.144531 27.574219 244.554688 26.875 244.40625 C 25.144531 244.042969 24.046875 242.34375 24.410156 240.617188 C 24.789062 238.894531 26.484375 237.796875 28.207031 238.164062 C 32.148438 238.996094 40.027344 239.320312 41.257812 236.351562 C 41.933594 234.722656 43.804688 233.949219 45.433594 234.625 C 47.058594 235.296875 47.832031 237.167969 47.15625 238.796875 C 45.003906 243.984375 39.019531 245.144531 34.078125 245.144531 Z M 34.078125 245.144531 " fill-opacity="1" fill-rule="evenodd"/><path fill="#000000" d="M 77.464844 264.917969 C 70.757812 264.917969 63.628906 258.71875 62.636719 257.820312 C 61.324219 256.640625 61.222656 254.621094 62.40625 253.316406 C 63.589844 252.003906 65.609375 251.902344 66.914062 253.082031 C 69.917969 255.777344 76.574219 259.980469 79.125 258.027344 C 80.527344 256.957031 82.527344 257.222656 83.601562 258.617188 C 84.675781 260.023438 84.410156 262.027344 83.011719 263.097656 C 81.304688 264.402344 79.402344 264.917969 77.464844 264.917969 Z M 77.464844 264.917969 " fill-opacity="1" fill-rule="evenodd"/><path fill="#000000" d="M 46.332031 198.234375 C 38.753906 198.234375 32.175781 188.46875 31.351562 187.207031 C 30.394531 185.726562 30.816406 183.75 32.296875 182.792969 C 33.78125 181.828125 35.75 182.253906 36.714844 183.730469 C 38.910156 187.105469 44.253906 192.898438 47.222656 191.667969 C 48.855469 190.996094 50.726562 191.769531 51.398438 193.398438 C 52.074219 195.027344 51.300781 196.898438 49.667969 197.570312 C 48.546875 198.035156 47.421875 198.234375 46.332031 198.234375 Z M 46.332031 198.234375 " fill-opacity="1" fill-rule="evenodd"/><path fill="#000000" d="M 340.910156 245.144531 C 335.96875 245.144531 329.988281 243.984375 327.832031 238.796875 C 327.160156 237.167969 327.933594 235.296875 329.5625 234.625 C 331.195312 233.949219 333.058594 234.722656 333.738281 236.351562 C 334.972656 239.320312 342.847656 238.996094 346.792969 238.164062 C 348.515625 237.796875 350.210938 238.894531 350.578125 240.625 C 350.945312 242.34375 349.847656 244.042969 348.125 244.40625 C 347.417969 244.554688 344.429688 245.144531 340.914062 245.144531 Z M 340.910156 245.144531 " fill-opacity="1" fill-rule="evenodd"/><path fill="#000000" d="M 297.527344 264.917969 C 295.589844 264.917969 293.691406 264.402344 291.976562 263.097656 C 290.582031 262.027344 290.3125 260.023438 291.386719 258.617188 C 292.460938 257.222656 294.464844 256.957031 295.871094 258.027344 C 298.425781 259.980469 305.082031 255.765625 308.082031 253.082031 C 309.390625 251.902344 311.410156 252.011719 312.59375 253.316406 C 313.765625 254.628906 313.664062 256.640625 312.359375 257.820312 C 311.363281 258.71875 304.238281 264.917969 297.527344 264.917969 Z M 297.527344 264.917969 " fill-opacity="1" fill-rule="evenodd"/><path fill="#000000" d="M 328.664062 198.234375 C 327.566406 198.234375 326.453125 198.035156 325.328125 197.570312 C 323.699219 196.898438 322.917969 195.027344 323.597656 193.398438 C 324.273438 191.769531 326.136719 190.996094 327.765625 191.667969 C 330.738281 192.90625 336.078125 187.105469 338.28125 183.730469 C 339.238281 182.253906 341.21875 181.835938 342.699219 182.792969 C 344.179688 183.757812 344.597656 185.726562 343.640625 187.207031 C 342.824219 188.46875 336.242188 198.234375 328.664062 198.234375 Z M 328.664062 198.234375 " fill-opacity="1" fill-rule="evenodd"/><g clip-path="url(#dbc3bcfa5b)"><path fill="#000000" d="M 259.957031 342.542969 L 115.472656 342.542969 C 113.832031 342.542969 112.453125 341.285156 112.292969 339.648438 L 100.480469 216.097656 L 96.503906 189.269531 C 91.230469 179.21875 87.644531 169.910156 85.824219 161.597656 C 85.738281 161.214844 83.785156 152.148438 85.125 149.929688 L 87.863281 151.582031 L 87.863281 154.777344 L 87.863281 151.582031 L 91.039062 151.875 C 91.03125 151.992188 90.347656 163.941406 102.402344 186.773438 C 102.578125 187.089844 102.6875 187.441406 102.742188 187.796875 L 106.8125 215.242188 C 106.820312 215.300781 106.828125 215.351562 106.828125 215.40625 L 118.375 336.160156 L 257.054688 336.160156 L 268.601562 215.40625 C 268.609375 215.351562 268.609375 215.300781 268.617188 215.242188 L 272.695312 187.796875 C 272.746094 187.441406 272.859375 187.089844 273.027344 186.773438 C 285.089844 163.941406 284.398438 151.992188 284.390625 151.875 L 287.578125 151.648438 L 287.578125 151.582031 L 290.304688 149.929688 C 291.652344 152.15625 289.691406 161.214844 289.605469 161.597656 C 287.792969 169.910156 284.199219 179.21875 278.933594 189.269531 L 274.957031 216.097656 L 263.136719 339.648438 C 262.976562 341.285156 261.605469 342.542969 259.957031 342.542969 Z M 259.957031 342.542969 " fill-opacity="1" fill-rule="evenodd"/></g><path fill="#000000" d="M 237.640625 197.289062 C 214.722656 197.289062 195.152344 184.738281 187.714844 167.199219 C 180.289062 184.738281 160.714844 197.289062 137.800781 197.289062 C 108.519531 197.289062 84.683594 176.785156 84.667969 151.582031 C 84.660156 149.820312 86.089844 148.390625 87.855469 148.390625 C 87.855469 148.390625 87.855469 148.390625 87.863281 148.390625 C 89.628906 148.390625 91.050781 149.8125 91.058594 151.574219 C 91.074219 173.269531 112.046875 190.90625 137.800781 190.90625 C 163.566406 190.90625 184.523438 173.269531 184.523438 151.582031 C 184.523438 149.820312 185.953125 148.390625 187.714844 148.390625 C 189.480469 148.390625 190.910156 149.820312 190.910156 151.582031 C 190.914062 173.269531 211.875 190.90625 237.640625 190.90625 C 263.394531 190.90625 284.359375 173.269531 284.382812 151.574219 C 284.386719 149.8125 285.816406 148.390625 287.578125 148.390625 C 289.34375 148.390625 290.773438 149.820312 290.773438 151.582031 C 290.75 176.785156 266.914062 197.289062 237.640625 197.289062 Z M 237.640625 197.289062 " fill-opacity="1" fill-rule="evenodd"/><path fill="#000000" d="M 135.195312 168.207031 C 133.519531 168.207031 132.152344 169.570312 132.152344 171.25 C 132.152344 172.925781 133.515625 174.289062 135.195312 174.289062 C 136.878906 174.289062 138.242188 172.925781 138.242188 171.25 C 138.242188 169.570312 136.878906 168.207031 135.195312 168.207031 Z M 135.195312 180.671875 C 130 180.671875 125.761719 176.441406 125.761719 171.25 C 125.765625 166.054688 129.996094 161.824219 135.195312 161.824219 C 140.40625 161.824219 144.628906 166.054688 144.628906 171.25 C 144.628906 176.441406 140.40625 180.671875 135.195312 180.671875 Z M 135.195312 180.671875 " fill-opacity="1" fill-rule="evenodd"/><path fill="#000000" d="M 240.234375 168.207031 C 238.554688 168.207031 237.191406 169.570312 237.191406 171.25 C 237.191406 172.925781 238.554688 174.289062 240.234375 174.289062 C 241.917969 174.289062 243.28125 172.925781 243.28125 171.25 C 243.28125 169.570312 241.914062 168.207031 240.234375 168.207031 Z M 240.234375 180.671875 C 235.035156 180.671875 230.800781 176.441406 230.800781 171.25 C 230.800781 166.054688 235.035156 161.824219 240.234375 161.824219 C 245.433594 161.824219 249.667969 166.054688 249.667969 171.25 C 249.667969 176.441406 245.433594 180.671875 240.234375 180.671875 Z M 240.234375 180.671875 " fill-opacity="1" fill-rule="evenodd"/><path fill="#000000" d="M 187.714844 154.773438 C 185.953125 154.773438 184.519531 153.34375 184.519531 151.582031 L 184.523438 110.988281 C 184.523438 109.226562 185.953125 107.796875 187.714844 107.796875 C 189.480469 107.796875 190.910156 109.226562 190.910156 110.988281 L 190.910156 151.582031 C 190.910156 153.34375 189.480469 154.773438 187.714844 154.773438 Z M 187.714844 154.773438 " fill-opacity="1" fill-rule="evenodd"/><path fill="#000000" d="M 168.996094 119.550781 C 168.148438 119.550781 167.300781 119.21875 166.667969 118.546875 C 153.640625 104.707031 142.683594 110.207031 142.21875 110.449219 C 140.671875 111.253906 138.734375 110.671875 137.910156 109.136719 C 137.085938 107.589844 137.644531 105.679688 139.171875 104.832031 C 139.808594 104.488281 154.773438 96.601562 171.328125 114.171875 C 172.535156 115.453125 172.476562 117.472656 171.183594 118.6875 C 170.570312 119.269531 169.78125 119.550781 168.996094 119.550781 Z M 168.996094 119.550781 " fill-opacity="1" fill-rule="evenodd"/><path fill="#000000" d="M 206.433594 119.550781 C 205.652344 119.550781 204.859375 119.269531 204.246094 118.6875 C 202.964844 117.472656 202.898438 115.453125 204.113281 114.171875 C 220.660156 96.601562 235.625 104.488281 236.257812 104.832031 C 237.804688 105.679688 238.371094 107.625 237.523438 109.167969 C 236.683594 110.707031 234.75 111.273438 233.210938 110.441406 C 232.707031 110.183594 221.765625 104.738281 208.761719 118.546875 C 208.132812 119.21875 207.28125 119.550781 206.433594 119.550781 Z M 206.433594 119.550781 " fill-opacity="1" fill-rule="evenodd"/><path fill="#000000" d="M 162.335938 274.371094 C 160.222656 274.371094 157.992188 274.34375 155.710938 274.3125 C 143.117188 274.128906 140.769531 271.910156 135.835938 265.511719 C 134.882812 264.28125 133.800781 262.875 132.445312 261.28125 C 131.296875 259.933594 131.460938 257.921875 132.808594 256.773438 C 134.148438 255.636719 136.164062 255.800781 137.308594 257.140625 C 138.765625 258.859375 139.898438 260.324219 140.894531 261.613281 C 144.929688 266.839844 145.65625 267.78125 155.804688 267.929688 C 161.078125 268.003906 169.054688 268.121094 172.449219 267.480469 C 180.0625 266.042969 184.8125 256.867188 184.855469 256.773438 C 185.636719 255.195312 187.558594 254.546875 189.136719 255.328125 C 190.71875 256.109375 191.359375 258.03125 190.578125 259.609375 C 190.335938 260.101562 184.460938 271.703125 173.640625 273.753906 C 171.078125 274.238281 167.007812 274.371094 162.335938 274.371094 Z M 162.335938 274.371094 " fill-opacity="1" fill-rule="evenodd"/><path fill="#000000" d="M 213.105469 274.371094 C 208.421875 274.371094 204.363281 274.238281 201.800781 273.753906 C 190.96875 271.703125 185.101562 260.101562 184.855469 259.609375 C 184.074219 258.03125 184.71875 256.109375 186.300781 255.328125 C 187.875 254.546875 189.785156 255.1875 190.578125 256.765625 C 190.617188 256.859375 195.3125 266.027344 202.988281 267.480469 C 206.375 268.121094 214.34375 268.003906 219.628906 267.929688 C 229.777344 267.78125 230.507812 266.839844 234.535156 261.613281 C 235.535156 260.324219 236.664062 258.859375 238.121094 257.140625 C 239.269531 255.800781 241.28125 255.636719 242.628906 256.773438 C 243.96875 257.921875 244.136719 259.933594 242.988281 261.28125 C 241.632812 262.875 240.550781 264.28125 239.59375 265.511719 C 234.660156 271.910156 232.3125 274.128906 219.71875 274.3125 C 217.449219 274.34375 215.210938 274.371094 213.105469 274.371094 Z M 213.105469 274.371094 " fill-opacity="1" fill-rule="evenodd"/><path fill="#000000" d="M 162.308594 305.496094 C 160.203125 305.496094 157.984375 305.472656 155.710938 305.4375 C 143.117188 305.253906 140.769531 303.027344 135.835938 296.636719 C 134.882812 295.398438 133.800781 294 132.445312 292.398438 C 131.296875 291.058594 131.460938 289.046875 132.808594 287.902344 C 134.148438 286.761719 136.164062 286.921875 137.308594 288.265625 C 138.765625 289.980469 139.898438 291.449219 140.894531 292.738281 C 144.929688 297.964844 145.65625 298.90625 155.804688 299.054688 C 161.085938 299.128906 169.0625 299.246094 172.449219 298.605469 C 180.0625 297.160156 184.8125 287.984375 184.855469 287.890625 C 185.636719 286.3125 187.558594 285.671875 189.136719 286.453125 C 190.71875 287.234375 191.359375 289.15625 190.578125 290.734375 C 190.335938 291.226562 184.460938 302.828125 173.640625 304.875 C 171.070312 305.363281 167 305.496094 162.308594 305.496094 Z M 162.308594 305.496094 " fill-opacity="1" fill-rule="evenodd"/><path fill="#000000" d="M 213.125 305.496094 C 208.4375 305.496094 204.363281 305.363281 201.800781 304.875 C 190.96875 302.828125 185.101562 291.226562 184.855469 290.734375 C 184.074219 289.15625 184.71875 287.234375 186.300781 286.453125 C 187.875 285.671875 189.785156 286.3125 190.578125 287.890625 C 190.617188 287.984375 195.3125 297.152344 202.988281 298.605469 C 206.375 299.246094 214.34375 299.128906 219.628906 299.054688 C 229.777344 298.90625 230.507812 297.964844 234.535156 292.738281 C 235.535156 291.449219 236.664062 289.980469 238.121094 288.265625 C 239.269531 286.921875 241.28125 286.761719 242.628906 287.902344 C 243.96875 289.046875 244.136719 291.058594 242.988281 292.398438 C 241.632812 294 240.550781 295.398438 239.59375 296.636719 C 234.660156 303.027344 232.3125 305.253906 219.71875 305.4375 C 217.457031 305.472656 215.226562 305.496094 213.125 305.496094 Z M 213.125 305.496094 " fill-opacity="1" fill-rule="evenodd"/><path fill="#000000" d="M 162.328125 243.242188 C 160.222656 243.242188 157.992188 243.21875 155.710938 243.183594 C 143.117188 243 140.769531 240.78125 135.835938 234.382812 C 134.882812 233.152344 133.800781 231.746094 132.445312 230.152344 C 131.296875 228.804688 131.460938 226.792969 132.808594 225.65625 C 134.148438 224.507812 136.164062 224.675781 137.308594 226.011719 C 138.765625 227.734375 139.898438 229.195312 140.894531 230.492188 C 144.929688 235.710938 145.65625 236.652344 155.804688 236.800781 C 161.085938 236.882812 169.054688 237 172.449219 236.351562 C 180.0625 234.914062 184.8125 225.738281 184.855469 225.648438 C 185.636719 224.066406 187.558594 223.417969 189.136719 224.199219 C 190.71875 224.992188 191.359375 226.902344 190.578125 228.480469 C 190.335938 228.972656 184.460938 240.574219 173.640625 242.628906 C 171.070312 243.109375 167.007812 243.242188 162.328125 243.242188 Z M 162.328125 243.242188 " fill-opacity="1" fill-rule="evenodd"/><path fill="#000000" d="M 213.105469 243.242188 C 208.429688 243.242188 204.363281 243.109375 201.800781 242.628906 C 190.96875 240.574219 185.101562 228.972656 184.855469 228.480469 C 184.074219 226.902344 184.71875 224.992188 186.300781 224.199219 C 187.875 223.417969 189.785156 224.066406 190.578125 225.636719 C 190.617188 225.730469 195.3125 234.898438 202.988281 236.351562 C 206.375 236.992188 214.351562 236.875 219.628906 236.800781 C 229.777344 236.652344 230.507812 235.710938 234.535156 230.492188 C 235.535156 229.195312 236.664062 227.734375 238.121094 226.011719 C 239.269531 224.675781 241.28125 224.507812 242.628906 225.65625 C 243.96875 226.792969 244.136719 228.804688 242.988281 230.152344 C 241.632812 231.746094 240.550781 233.152344 239.59375 234.382812 C 234.660156 240.78125 232.3125 243 219.71875 243.183594 C 217.449219 243.21875 215.210938 243.242188 213.105469 243.242188 Z M 213.105469 243.242188 " fill-opacity="1" fill-rule="evenodd"/><path fill="#000000" d="M 187.714844 292.507812 C 185.953125 292.507812 184.519531 291.078125 184.519531 289.316406 L 184.523438 148.402344 C 184.523438 146.640625 185.953125 145.210938 187.714844 145.210938 C 189.480469 145.210938 190.910156 146.640625 190.910156 148.402344 L 190.910156 289.316406 C 190.910156 291.078125 189.480469 292.507812 187.714844 292.507812 Z M 187.714844 292.507812 " fill-opacity="1" fill-rule="evenodd"/><path fill="#fcc09c" d="M 139.171875 104.832031 C 139.808594 104.488281 154.773438 96.601562 171.328125 114.171875 C 172.535156 115.453125 172.476562 117.472656 171.183594 118.6875 C 170.570312 119.269531 169.78125 119.550781 168.996094 119.550781 C 168.148438 119.550781 167.300781 119.21875 166.667969 118.546875 C 153.640625 104.707031 142.683594 110.207031 142.21875 110.449219 C 140.671875 111.253906 138.734375 110.671875 137.910156 109.136719 C 137.085938 107.589844 137.644531 105.679688 139.171875 104.832031 Z M 184.519531 151.582031 L 184.523438 151.484375 C 184.519531 151.515625 184.519531 151.550781 184.519531 151.582031 Z M 190.910156 151.621094 L 190.910156 151.65625 C 190.910156 151.644531 190.910156 151.632812 190.910156 151.621094 Z M 137.800781 190.90625 C 163.566406 190.90625 184.519531 173.269531 184.519531 151.582031 L 184.523438 151.484375 L 184.523438 110.988281 C 184.523438 109.226562 185.953125 107.796875 187.714844 107.796875 C 189.480469 107.796875 190.910156 109.226562 190.910156 110.988281 L 190.910156 151.621094 C 190.910156 151.632812 190.910156 151.644531 190.910156 151.660156 C 190.960938 173.308594 211.902344 190.90625 237.636719 190.90625 C 263.394531 190.90625 284.359375 173.269531 284.382812 151.574219 C 284.382812 149.8125 285.8125 148.390625 287.578125 148.390625 C 289.34375 148.390625 290.773438 149.820312 290.773438 151.582031 C 290.773438 151.769531 290.769531 151.957031 290.769531 152.140625 C 290.902344 155.632812 289.671875 161.296875 289.609375 161.597656 C 287.796875 169.910156 284.199219 179.21875 278.933594 189.269531 L 275.289062 213.859375 C 280.691406 236.433594 294 254.722656 296.859375 258.460938 C 299.851562 259.070312 305.414062 255.472656 308.085938 253.082031 C 309.390625 251.902344 311.410156 252.011719 312.59375 253.316406 C 313.769531 254.628906 313.667969 256.640625 312.359375 257.820312 C 311.363281 258.71875 304.242188 264.917969 297.527344 264.917969 C 297.234375 264.917969 296.9375 264.90625 296.644531 264.882812 C 291.792969 276.351562 298.105469 288.355469 300.503906 292.265625 L 362.210938 292.265625 C 367.347656 261.582031 350.894531 247.628906 346.761719 244.660156 C 345.410156 244.878906 343.28125 245.144531 340.914062 245.144531 C 335.972656 245.144531 329.988281 243.984375 327.832031 238.796875 C 327.160156 237.167969 327.933594 235.296875 329.5625 234.625 C 331.195312 233.949219 333.058594 234.722656 333.742188 236.351562 C 334.8125 238.933594 340.910156 239.023438 345.074219 238.457031 C 352.289062 217.261719 344.730469 198.84375 340.632812 191.152344 C 337.84375 194.339844 333.453125 198.234375 328.664062 198.234375 C 327.570312 198.234375 326.453125 198.035156 325.328125 197.570312 C 323.699219 196.898438 322.917969 195.027344 323.597656 193.398438 C 324.273438 191.769531 326.136719 190.996094 327.765625 191.667969 C 330.664062 192.878906 335.808594 187.394531 338.109375 183.992188 C 344.597656 167.023438 344.496094 152.671875 337.816406 141.34375 C 325.714844 120.796875 295.695312 116.410156 295.398438 116.359375 C 294.242188 116.199219 293.257812 115.429688 292.84375 114.339844 C 287.429688 100.132812 267.171875 98.097656 261.730469 100.050781 C 261.074219 100.292969 260.359375 100.300781 259.699219 100.101562 C 242.921875 94.890625 231.863281 81.859375 227.714844 62.425781 C 225.601562 52.507812 225.792969 43.40625 226.132812 38.554688 L 148.859375 38.554688 C 149.207031 43.40625 149.398438 52.507812 147.277344 62.425781 C 143.125 81.859375 132.070312 94.890625 115.296875 100.101562 C 114.632812 100.300781 113.917969 100.285156 113.269531 100.050781 C 107.820312 98.097656 87.5625 100.132812 82.144531 114.339844 C 81.730469 115.429688 80.757812 116.199219 79.601562 116.359375 C 79.300781 116.410156 49.277344 120.796875 37.171875 141.34375 C 30.496094 152.671875 30.402344 167.023438 36.886719 183.992188 C 39.179688 187.394531 44.328125 192.867188 47.222656 191.667969 C 48.855469 190.996094 50.726562 191.769531 51.398438 193.398438 C 52.074219 195.027344 51.300781 196.898438 49.667969 197.570312 C 48.546875 198.035156 47.421875 198.234375 46.332031 198.234375 C 41.546875 198.234375 37.15625 194.335938 34.363281 191.148438 C 30.265625 198.839844 22.703125 217.261719 29.914062 238.457031 C 34.078125 239.023438 40.1875 238.9375 41.257812 236.351562 C 41.933594 234.722656 43.804688 233.949219 45.433594 234.625 C 47.058594 235.296875 47.832031 237.167969 47.15625 238.796875 C 45.003906 243.984375 39.019531 245.144531 34.078125 245.144531 C 31.703125 245.144531 29.570312 244.878906 28.21875 244.65625 C 23.996094 247.628906 7.589844 261.359375 12.78125 292.265625 L 74.484375 292.265625 C 76.878906 288.347656 83.171875 276.304688 78.34375 264.882812 C 78.050781 264.90625 77.757812 264.917969 77.464844 264.917969 C 70.757812 264.917969 63.628906 258.71875 62.636719 257.820312 C 61.324219 256.640625 61.222656 254.621094 62.40625 253.316406 C 63.589844 252.003906 65.609375 251.902344 66.914062 253.082031 C 69.589844 255.484375 75.160156 259.082031 78.152344 258.460938 C 81.042969 254.761719 94.75 236.355469 100.140625 213.789062 L 96.503906 189.269531 C 91.230469 179.21875 87.644531 169.910156 85.824219 161.597656 C 85.757812 161.296875 84.515625 155.542969 84.671875 152.058594 C 84.667969 151.902344 84.667969 151.742188 84.667969 151.582031 C 84.664062 150.976562 84.832031 150.410156 85.125 149.929688 C 85.679688 149.003906 86.695312 148.390625 87.863281 148.390625 C 89.625 148.390625 91.046875 149.8125 91.054688 151.574219 C 91.074219 173.269531 112.046875 190.90625 137.800781 190.90625 Z M 125.761719 171.25 C 125.765625 166.054688 129.996094 161.824219 135.195312 161.824219 C 140.40625 161.824219 144.628906 166.054688 144.628906 171.25 C 144.628906 176.441406 140.40625 180.671875 135.195312 180.671875 C 130 180.671875 125.761719 176.441406 125.761719 171.25 Z M 230.800781 171.25 C 230.800781 166.054688 235.035156 161.824219 240.234375 161.824219 C 245.433594 161.824219 249.667969 166.054688 249.667969 171.25 C 249.667969 176.441406 245.433594 180.671875 240.234375 180.671875 C 235.035156 180.671875 230.800781 176.441406 230.800781 171.25 Z M 204.246094 118.6875 C 202.964844 117.472656 202.898438 115.453125 204.113281 114.171875 C 220.660156 96.601562 235.625 104.488281 236.257812 104.832031 C 237.804688 105.679688 238.371094 107.625 237.523438 109.167969 C 236.683594 110.707031 234.75 111.273438 233.210938 110.441406 C 232.707031 110.183594 221.765625 104.738281 208.761719 118.546875 C 208.132812 119.21875 207.28125 119.550781 206.433594 119.550781 C 205.652344 119.550781 204.859375 119.269531 204.246094 118.6875 Z M 204.246094 118.6875 " fill-opacity="1" fill-rule="evenodd"/><path fill="#fcc09c" d="M 237.640625 197.289062 C 217.476562 197.289062 199.910156 187.574219 190.910156 173.300781 L 190.910156 226.246094 C 192.109375 228.332031 196.476562 235.117188 202.992188 236.351562 C 206.375 236.992188 214.355469 236.875 219.628906 236.800781 C 229.777344 236.652344 230.511719 235.710938 234.535156 230.492188 C 235.535156 229.195312 236.667969 227.734375 238.121094 226.011719 C 239.269531 224.675781 241.285156 224.507812 242.632812 225.65625 C 243.972656 226.792969 244.136719 228.804688 242.988281 230.152344 C 241.632812 231.75 240.550781 233.152344 239.59375 234.382812 C 234.660156 240.78125 232.316406 243 219.71875 243.183594 C 217.449219 243.21875 215.210938 243.242188 213.109375 243.242188 C 208.433594 243.242188 204.363281 243.109375 201.800781 242.628906 C 197.296875 241.773438 193.652344 239.269531 190.914062 236.597656 L 190.914062 257.375 C 192.109375 259.457031 196.476562 266.246094 202.992188 267.480469 C 206.375 268.121094 214.347656 268.003906 219.628906 267.929688 C 229.777344 267.777344 230.511719 266.839844 234.535156 261.613281 C 235.535156 260.324219 236.667969 258.859375 238.121094 257.140625 C 239.269531 255.800781 241.285156 255.636719 242.632812 256.773438 C 243.972656 257.921875 244.136719 259.933594 242.988281 261.277344 C 241.632812 262.875 240.550781 264.28125 239.59375 265.511719 C 234.660156 271.910156 232.316406 274.128906 219.71875 274.3125 C 217.449219 274.34375 215.210938 274.371094 213.109375 274.371094 C 208.421875 274.371094 204.363281 274.238281 201.800781 273.753906 C 197.296875 272.902344 193.652344 270.394531 190.914062 267.726562 L 190.914062 288.5 C 192.109375 290.585938 196.476562 297.371094 202.992188 298.605469 C 206.375 299.246094 214.347656 299.128906 219.628906 299.054688 C 229.777344 298.90625 230.511719 297.964844 234.535156 292.738281 C 235.535156 291.449219 236.667969 289.980469 238.121094 288.265625 C 239.269531 286.921875 241.28125 286.761719 242.632812 287.902344 C 243.972656 289.046875 244.136719 291.058594 242.988281 292.398438 C 241.632812 294 240.550781 295.398438 239.59375 296.636719 C 234.660156 303.027344 232.316406 305.253906 219.71875 305.4375 C 217.457031 305.472656 215.226562 305.496094 213.125 305.496094 C 208.441406 305.496094 204.363281 305.363281 201.800781 304.875 C 195.230469 303.632812 190.488281 298.878906 187.71875 295.21875 C 184.949219 298.878906 180.203125 303.632812 173.640625 304.875 C 171.070312 305.363281 167.003906 305.496094 162.3125 305.496094 C 160.207031 305.496094 157.984375 305.472656 155.714844 305.4375 C 143.121094 305.253906 140.773438 303.027344 135.839844 296.636719 C 134.882812 295.398438 133.800781 294 132.445312 292.398438 C 131.296875 291.058594 131.464844 289.046875 132.8125 287.902344 C 134.148438 286.761719 136.164062 286.921875 137.3125 288.265625 C 138.769531 289.980469 139.898438 291.449219 140.898438 292.738281 C 144.929688 297.964844 145.65625 298.90625 155.804688 299.054688 C 161.089844 299.128906 169.066406 299.246094 172.453125 298.605469 C 178.917969 297.378906 183.316406 290.570312 184.523438 288.496094 L 184.523438 267.730469 C 181.78125 270.398438 178.140625 272.902344 173.640625 273.753906 C 171.078125 274.238281 167.011719 274.371094 162.335938 274.371094 C 160.222656 274.371094 157.992188 274.34375 155.714844 274.3125 C 143.121094 274.128906 140.773438 271.910156 135.839844 265.511719 C 134.882812 264.28125 133.800781 262.875 132.445312 261.277344 C 131.296875 259.933594 131.464844 257.921875 132.8125 256.773438 C 134.148438 255.636719 136.164062 255.800781 137.3125 257.140625 C 138.769531 258.859375 139.898438 260.324219 140.898438 261.613281 C 144.929688 266.839844 145.65625 267.777344 155.804688 267.929688 C 161.078125 268.003906 169.054688 268.121094 172.449219 267.480469 C 178.917969 266.257812 183.320312 259.453125 184.523438 257.375 L 184.523438 236.601562 C 181.785156 239.269531 178.140625 241.773438 173.640625 242.628906 C 171.070312 243.109375 167.011719 243.242188 162.328125 243.242188 C 160.222656 243.242188 157.992188 243.21875 155.714844 243.183594 C 143.121094 243 140.773438 240.78125 135.839844 234.382812 C 134.882812 233.152344 133.800781 231.75 132.445312 230.152344 C 131.296875 228.804688 131.464844 226.792969 132.8125 225.65625 C 134.148438 224.507812 136.164062 224.675781 137.3125 226.011719 C 138.769531 227.734375 139.898438 229.195312 140.898438 230.492188 C 144.929688 235.710938 145.65625 236.652344 155.804688 236.800781 C 161.089844 236.882812 169.054688 237 172.449219 236.351562 C 178.917969 235.132812 183.320312 228.324219 184.523438 226.246094 L 184.523438 173.300781 C 175.53125 187.574219 157.957031 197.289062 137.800781 197.289062 C 123.730469 197.289062 110.914062 192.554688 101.398438 184.835938 C 101.722656 185.472656 102.058594 186.121094 102.40625 186.773438 C 102.582031 187.089844 102.6875 187.4375 102.746094 187.796875 L 106.816406 215.242188 C 106.824219 215.300781 106.832031 215.347656 106.832031 215.40625 L 118.378906 336.15625 L 257.058594 336.15625 L 268.605469 215.40625 C 268.613281 215.347656 268.609375 215.300781 268.621094 215.242188 L 272.695312 187.796875 C 272.746094 187.4375 272.863281 187.089844 273.027344 186.773438 C 273.375 186.121094 273.710938 185.476562 274.035156 184.839844 C 264.515625 192.554688 251.707031 197.289062 237.640625 197.289062 Z M 237.640625 197.289062 " fill-opacity="1" fill-rule="evenodd"/><path fill="#ab7261" d="M 135.195312 174.289062 C 136.878906 174.289062 138.242188 172.925781 138.242188 171.25 C 138.242188 169.570312 136.878906 168.207031 135.195312 168.207031 C 133.519531 168.207031 132.152344 169.570312 132.152344 171.25 C 132.152344 172.925781 133.515625 174.289062 135.195312 174.289062 Z M 135.195312 174.289062 " fill-opacity="1" fill-rule="evenodd"/><path fill="#ab7261" d="M 240.234375 168.207031 C 238.554688 168.207031 237.191406 169.570312 237.191406 171.25 C 237.191406 172.925781 238.554688 174.289062 240.234375 174.289062 C 241.917969 174.289062 243.28125 172.925781 243.28125 171.25 C 243.28125 169.570312 241.914062 168.207031 240.234375 168.207031 Z M 240.234375 168.207031 " fill-opacity="1" fill-rule="evenodd"/></svg>