<svg xmlns="http://www.w3.org/2000/svg" xmlns:xlink="http://www.w3.org/1999/xlink" width="500" zoomAndPan="magnify" viewBox="0 0 375 374.999991" height="500" preserveAspectRatio="xMidYMid meet" version="1.0"><path fill="#ebaf8c" d="M 369.148438 234.300781 C 369.148438 246.003906 334.691406 284.789062 310.648438 286.953125 C 246.292969 292.804688 222.894531 310.355469 152.691406 310.355469 C 106.296875 310.355469 82.898438 297.601562 63.941406 290.640625 C 51.65625 333.753906 23.519531 334.691406 6.433594 368.855469 L 6.433594 152.398438 C 32.644531 141.925781 77.75 154.914062 99.394531 174.628906 C 110.21875 169.128906 121.859375 164.097656 146.839844 164.097656 C 190.542969 164.097656 218.972656 194.695312 255.890625 198.730469 C 251.441406 189.429688 247.816406 177.964844 246.292969 164.097656 C 240.445312 111.445312 211.195312 93.894531 211.195312 93.894531 C 195.984375 93.894531 185.160156 89.507812 174.921875 80.675781 C 168.371094 84.476562 159.007812 80.382812 146.839844 76.34375 C 134.4375 72.191406 115.835938 69.96875 123.441406 47.09375 C 129.289062 29.542969 135.140625 6.144531 152.691406 6.144531 C 168.019531 6.144531 178.898438 10.648438 204.933594 19.597656 C 208.621094 20.886719 212.65625 22.230469 217.042969 23.695312 C 252.144531 35.394531 234.59375 41.246094 263.84375 64.644531 C 315.914062 106.296875 369.148438 205.050781 369.148438 234.300781 Z M 369.148438 234.300781 " fill-opacity="1" fill-rule="nonzero"/><path fill="#000000" d="M 154.785156 264.347656 C 133.664062 264.347656 113.546875 258.136719 102.644531 250.871094 C 99.957031 249.078125 99.230469 245.445312 101.023438 242.757812 C 102.8125 240.066406 106.441406 239.335938 109.136719 241.132812 C 123.507812 250.714844 173.582031 263.648438 201.207031 236.015625 C 203.492188 233.730469 207.195312 233.730469 209.480469 236.015625 C 211.765625 238.300781 211.765625 242.003906 209.480469 244.289062 C 194.746094 259.023438 174.335938 264.347656 154.785156 264.347656 Z M 267.5 60.078125 C 255.886719 50.785156 252.390625 44.804688 249.304688 39.53125 C 244.234375 30.867188 240.058594 25.199219 218.894531 18.144531 C 211.011719 15.515625 204.3125 13.183594 198.460938 11.148438 C 177.699219 3.921875 167.273438 0.292969 152.691406 0.292969 C 132.457031 0.292969 125.246094 22.566406 119.453125 40.464844 L 117.890625 45.242188 C 115.039062 53.796875 115.101562 60.734375 118.078125 66.457031 C 122.617188 75.175781 132.605469 78.15625 140.632812 80.546875 C 142.132812 80.996094 143.601562 81.433594 144.992188 81.894531 L 149.332031 83.371094 C 158.609375 86.558594 166.78125 89.359375 173.957031 87.390625 C 184.40625 95.523438 195.523438 99.421875 209.375 99.726562 C 214.738281 103.617188 235.664062 121.398438 240.480469 164.734375 C 241.496094 174.015625 243.539062 182.8125 246.460938 191.066406 C 234.757812 188.171875 223.578125 182.84375 211.902344 177.238281 C 192.457031 167.902344 172.351562 158.25 146.84375 158.25 C 123.460938 158.25 110.972656 162.539062 100.230469 167.703125 C 76.601562 148.492188 32.234375 135.808594 4.265625 146.964844 C 1.265625 148.164062 -0.191406 151.570312 1.003906 154.570312 C 2.203125 157.570312 5.613281 159.027344 8.609375 157.832031 C 30.558594 149.0625 67.320312 158.863281 88.628906 173.621094 C 82.007812 176.9375 74.839844 179.898438 63.96875 181.730469 C 60.78125 182.265625 58.636719 185.285156 59.167969 188.472656 C 59.707031 191.660156 62.707031 193.777344 65.910156 193.269531 C 81.53125 190.636719 90.585938 185.871094 99.335938 181.265625 L 102.046875 179.84375 C 112.703125 174.429688 123.429688 169.949219 146.84375 169.949219 C 169.6875 169.949219 188.574219 179.015625 206.839844 187.785156 C 221.101562 194.632812 235.839844 201.636719 252.042969 204.066406 C 265.085938 229.453125 283.804688 239.117188 284.625 239.53125 C 285.464844 239.953125 286.355469 240.152344 287.234375 240.152344 C 289.371094 240.152344 291.421875 238.976562 292.453125 236.941406 C 293.910156 234.066406 292.757812 230.550781 289.890625 229.082031 C 289.71875 228.996094 272.414062 219.929688 261.167969 196.207031 C 256.460938 186.363281 253.414062 175.34375 252.109375 163.453125 C 246.011719 108.554688 215.5 89.65625 214.207031 88.878906 C 213.292969 88.335938 212.253906 88.046875 211.195312 88.046875 C 200.304688 88.046875 191.789062 85.578125 183.738281 80.058594 C 185.199219 77.914062 186.472656 75.40625 187.492188 72.347656 C 187.871094 71.207031 188.246094 70.234375 188.621094 69.203125 C 203.625 76.242188 216.4375 76.34375 217.042969 76.34375 C 220.265625 76.34375 222.875 73.738281 222.886719 70.515625 C 222.894531 67.289062 220.285156 64.664062 217.066406 64.644531 C 216.941406 64.644531 205.945312 64.457031 193.246094 58.421875 C 195.886719 53.316406 197.78125 51.230469 197.78125 51.230469 C 200.066406 48.945312 200.066406 45.242188 197.78125 42.957031 C 195.496094 40.671875 191.792969 40.671875 189.507812 42.957031 C 188.808594 43.65625 182.503906 50.3125 176.394531 68.644531 C 175.113281 72.484375 173.554688 74.878906 171.761719 75.765625 C 168.253906 77.496094 161.242188 75.085938 153.128906 72.304688 L 148.691406 70.796875 C 147.1875 70.296875 145.597656 69.816406 143.972656 69.335938 C 137.453125 67.390625 130.707031 65.382812 128.460938 61.058594 C 127.042969 58.332031 127.21875 54.253906 128.992188 48.945312 L 130.585938 44.066406 C 136.46875 25.894531 141.832031 11.992188 152.691406 11.992188 C 165.296875 11.992188 174.484375 15.191406 194.617188 22.199219 C 200.507812 24.246094 207.253906 26.59375 215.195312 29.242188 C 233.253906 35.261719 235.367188 38.875 239.207031 45.4375 C 242.445312 50.980469 246.882812 58.566406 260.191406 69.210938 C 311.539062 110.289062 363.300781 208.335938 363.300781 234.300781 C 363.300781 242.65625 331.480469 279.1875 310.121094 281.125 C 282.21875 283.664062 261.984375 288.351562 242.417969 292.882812 C 216.605469 298.859375 192.226562 304.503906 152.691406 304.503906 C 114.609375 304.503906 92.8125 295.773438 75.300781 288.761719 C 61.273438 283.144531 49.164062 278.28125 34.539062 281.21875 C 31.371094 281.851562 29.316406 284.933594 29.953125 288.101562 C 30.582031 291.269531 33.648438 293.308594 36.835938 292.691406 C 43.605469 291.335938 49.800781 292.226562 56.570312 294.300781 C 49.921875 313.402344 39.640625 322.851562 28.765625 332.683594 C 19.097656 341.417969 9.101562 350.449219 1.203125 366.242188 C -0.242188 369.132812 0.929688 372.644531 3.820312 374.089844 C 4.660156 374.511719 5.554688 374.707031 6.433594 374.707031 C 8.578125 374.707031 10.644531 373.523438 11.671875 371.472656 C 18.582031 357.652344 27.339844 349.742188 36.609375 341.363281 C 48.140625 330.941406 60.023438 320.164062 67.636719 298.304688 C 68.726562 298.738281 69.808594 299.164062 70.949219 299.621094 C 88.421875 306.621094 112.355469 316.207031 152.691406 316.207031 C 193.5625 316.207031 218.574219 310.410156 245.054688 304.28125 C 264.242188 299.835938 284.074219 295.242188 311.175781 292.78125 C 337.238281 290.414062 375 249.988281 375 234.300781 C 375 202.675781 320.816406 102.730469 267.5 60.078125 Z M 267.5 60.078125 " fill-opacity="1" fill-rule="nonzero"/></svg>