<svg xmlns="http://www.w3.org/2000/svg" xmlns:xlink="http://www.w3.org/1999/xlink" width="500" zoomAndPan="magnify" viewBox="0 0 375 374.999991" height="500" preserveAspectRatio="xMidYMid meet" version="1.0"><defs><clipPath id="b911a5606a"><path d="M 112 291 L 160 291 L 160 312.96875 L 112 312.96875 Z M 112 291 " clip-rule="nonzero"/></clipPath><clipPath id="17f6fe9274"><path d="M 212 291 L 259 291 L 259 312.96875 L 212 312.96875 Z M 212 291 " clip-rule="nonzero"/></clipPath><clipPath id="b66bc55a59"><path d="M 67 61.71875 L 300 61.71875 L 300 251 L 67 251 Z M 67 61.71875 " clip-rule="nonzero"/></clipPath></defs><path fill="#da3941" d="M 153.269531 227.984375 C 135.90625 251.246094 127.511719 281.324219 130.554688 302.777344 L 151.539062 302.941406 C 145.121094 281.242188 154.089844 251.574219 167.011719 226.671875 Z M 153.269531 227.984375 " fill-opacity="1" fill-rule="evenodd"/><path fill="#da3941" d="M 217.863281 227.984375 C 235.308594 251.246094 243.703125 281.324219 240.574219 302.777344 L 219.675781 302.941406 C 226.09375 281.242188 217.125 251.574219 204.121094 226.671875 Z M 217.863281 227.984375 " fill-opacity="1" fill-rule="evenodd"/><path fill="#da3941" d="M 113.441406 145.140625 C 113.441406 145.140625 91.46875 156.480469 67.933594 151.140625 C 52.300781 147.605469 25.144531 128.042969 25.144531 128.042969 L 17.328125 137.660156 C 17.328125 137.660156 40.367188 163.632812 63.574219 171.359375 C 100.519531 183.6875 131.625 171.523438 131.625 171.523438 Z M 113.441406 145.140625 " fill-opacity="1" fill-rule="evenodd"/><path fill="#da3941" d="M 26.378906 129.6875 C 26.378906 129.6875 22.925781 121.46875 21.113281 120.074219 C 19.304688 118.675781 16.09375 119.578125 14.035156 120.648438 C 11.980469 121.714844 2.761719 129.113281 2.761719 129.113281 C 6.628906 133.386719 12.554688 137.660156 18.890625 138.8125 Z M 26.378906 129.6875 " fill-opacity="1" fill-rule="evenodd"/><path fill="#da3941" d="M 261.558594 147.195312 C 261.558594 147.195312 283.449219 158.535156 306.980469 153.277344 C 322.617188 149.742188 349.855469 130.265625 349.855469 130.265625 L 357.671875 139.878906 C 357.671875 139.878906 334.546875 165.851562 311.34375 173.496094 C 274.3125 185.742188 243.292969 173.578125 243.292969 173.578125 Z M 261.558594 147.195312 " fill-opacity="1" fill-rule="evenodd"/><path fill="#da3941" d="M 348.621094 131.824219 C 348.621094 131.824219 352.074219 123.6875 353.96875 122.292969 C 355.863281 120.894531 358.90625 121.796875 361.046875 122.867188 C 363.183594 123.933594 372.238281 131.414062 372.238281 131.414062 C 368.371094 135.605469 362.363281 139.878906 356.027344 141.03125 Z M 348.621094 131.824219 " fill-opacity="1" fill-rule="evenodd"/><path fill="#da3941" d="M 365.324219 135.359375 C 368.039062 135.605469 372.8125 131.742188 373.882812 129.933594 C 374.953125 128.125 373.636719 124.757812 371.167969 125.578125 C 368.699219 126.402344 364.667969 130.347656 363.351562 131.496094 C 362.03125 132.648438 363.265625 135.113281 365.324219 135.359375 Z M 365.324219 135.359375 " fill-opacity="1" fill-rule="evenodd"/><path fill="#da3941" d="M 363.351562 130.675781 C 364.996094 130.757812 370.507812 126.484375 371.824219 125.332031 C 373.140625 124.183594 371.660156 120.15625 369.191406 120.976562 C 366.722656 121.796875 362.691406 125.660156 361.375 126.894531 C 360.058594 128.125 361.292969 130.675781 363.351562 130.675781 Z M 363.351562 130.675781 " fill-opacity="1" fill-rule="evenodd"/><path fill="#da3941" d="M 360.304688 128.621094 C 361.867188 128.375 366.640625 123.277344 367.792969 121.878906 C 368.945312 120.484375 366.640625 116.785156 364.335938 118.101562 C 362.03125 119.414062 358.742188 123.851562 357.671875 125.25 C 356.601562 126.648438 358.246094 128.949219 360.304688 128.621094 Z M 360.304688 128.621094 " fill-opacity="1" fill-rule="evenodd"/><path fill="#da3941" d="M 353.558594 132.070312 C 355.53125 129.03125 358.082031 122.046875 358.164062 119.992188 C 358.328125 115.550781 355.121094 115.140625 354.214844 115.796875 C 353.308594 116.457031 353.722656 119.085938 353.144531 121.058594 C 352.570312 123.03125 350.347656 128.125 350.347656 128.125 Z M 353.558594 132.070312 " fill-opacity="1" fill-rule="evenodd"/><path fill="#da3941" d="M 9.675781 133.058594 C 6.960938 133.386719 2.1875 129.523438 1.117188 127.714844 C 0.046875 125.90625 1.363281 122.457031 3.832031 123.359375 C 6.300781 124.265625 10.332031 128.042969 11.648438 129.277344 C 12.96875 130.511719 11.648438 132.894531 9.675781 133.058594 Z M 9.675781 133.058594 " fill-opacity="1" fill-rule="evenodd"/><path fill="#da3941" d="M 11.648438 128.457031 C 10.003906 128.457031 4.492188 124.265625 3.175781 123.113281 C 1.859375 121.960938 3.339844 117.851562 5.808594 118.757812 C 8.277344 119.660156 12.308594 123.441406 13.625 124.675781 C 14.941406 125.90625 13.707031 128.457031 11.648438 128.457031 Z M 11.648438 128.457031 " fill-opacity="1" fill-rule="evenodd"/><path fill="#da3941" d="M 14.695312 126.402344 C 13.132812 126.15625 8.359375 121.058594 7.289062 119.660156 C 6.21875 118.265625 8.359375 114.566406 10.664062 115.878906 C 12.96875 117.195312 16.257812 121.632812 17.328125 123.03125 C 18.398438 124.429688 16.753906 126.730469 14.695312 126.402344 Z M 14.695312 126.402344 " fill-opacity="1" fill-rule="evenodd"/><path fill="#da3941" d="M 20.949219 128.210938 C 18.972656 125.167969 16.917969 119.824219 16.835938 117.769531 C 16.753906 113.332031 19.878906 112.921875 20.785156 113.578125 C 21.691406 114.238281 21.277344 116.867188 21.855469 118.839844 C 22.429688 120.8125 24.652344 125.90625 24.652344 125.90625 Z M 20.949219 128.210938 " fill-opacity="1" fill-rule="evenodd"/><g clip-path="url(#b911a5606a)"><path fill="#ffa925" d="M 158.945312 312.148438 C 158.945312 312.148438 160.757812 298.503906 152.363281 293.820312 C 143.96875 289.132812 128.089844 293.570312 121.011719 297.765625 C 112.207031 302.941406 112.207031 312.96875 112.207031 312.96875 Z M 158.945312 312.148438 " fill-opacity="1" fill-rule="evenodd"/></g><g clip-path="url(#17f6fe9274)"><path fill="#ffa925" d="M 212.269531 312.148438 C 212.269531 312.148438 210.457031 298.503906 218.851562 293.820312 C 227.246094 289.132812 243.042969 293.570312 250.203125 297.765625 C 259.007812 302.941406 258.925781 312.96875 258.925781 312.96875 Z M 212.269531 312.148438 " fill-opacity="1" fill-rule="evenodd"/></g><path fill="#da3941" d="M 114.675781 311.40625 L 156.394531 310.75 C 156.667969 310.75 156.902344 310.652344 157.09375 310.460938 C 157.285156 310.269531 157.382812 310.035156 157.382812 309.761719 C 157.359375 309.484375 157.246094 309.25 157.042969 309.058594 C 156.835938 308.871094 156.59375 308.777344 156.3125 308.777344 L 114.59375 309.351562 C 114.3125 309.375 114.078125 309.488281 113.890625 309.691406 C 113.699219 309.898438 113.605469 310.140625 113.605469 310.421875 C 113.644531 310.691406 113.761719 310.917969 113.964844 311.105469 C 114.164062 311.289062 114.402344 311.390625 114.675781 311.40625 Z M 256.539062 309.351562 L 214.902344 308.777344 C 214.765625 308.765625 214.628906 308.78125 214.5 308.828125 C 214.367188 308.871094 214.25 308.941406 214.148438 309.035156 C 214.046875 309.128906 213.96875 309.238281 213.914062 309.367188 C 213.859375 309.492188 213.832031 309.625 213.832031 309.761719 C 213.832031 310.035156 213.929688 310.269531 214.121094 310.460938 C 214.3125 310.652344 214.546875 310.75 214.820312 310.75 L 256.539062 311.40625 C 256.8125 311.40625 257.046875 311.3125 257.238281 311.117188 C 257.429688 310.925781 257.527344 310.691406 257.527344 310.421875 C 257.539062 310.28125 257.523438 310.148438 257.476562 310.019531 C 257.433594 309.886719 257.363281 309.769531 257.269531 309.667969 C 257.175781 309.566406 257.066406 309.488281 256.9375 309.433594 C 256.8125 309.378906 256.679688 309.351562 256.539062 309.351562 Z M 248.886719 296.613281 L 246.253906 301.875 C 246.132812 302.113281 246.113281 302.359375 246.191406 302.613281 C 246.269531 302.871094 246.429688 303.0625 246.664062 303.1875 C 246.917969 303.3125 247.175781 303.335938 247.445312 303.257812 C 247.714844 303.179688 247.921875 303.019531 248.0625 302.777344 L 250.695312 297.515625 C 250.753906 297.398438 250.78125 297.273438 250.789062 297.140625 C 250.792969 297.007812 250.773438 296.878906 250.726562 296.757812 C 250.679688 296.632812 250.609375 296.523438 250.519531 296.425781 C 250.429688 296.332031 250.324219 296.257812 250.203125 296.203125 C 249.964844 296.082031 249.71875 296.058594 249.460938 296.140625 C 249.207031 296.21875 249.015625 296.378906 248.886719 296.613281 Z M 120.515625 297.515625 L 123.152344 302.777344 C 123.277344 303.011719 123.46875 303.171875 123.726562 303.25 C 123.980469 303.332031 124.226562 303.308594 124.46875 303.1875 C 124.589844 303.132812 124.695312 303.058594 124.785156 302.964844 C 124.875 302.867188 124.941406 302.757812 124.988281 302.632812 C 125.035156 302.511719 125.058594 302.382812 125.050781 302.25 C 125.046875 302.117188 125.015625 301.992188 124.960938 301.875 L 122.328125 296.613281 C 122.183594 296.371094 121.980469 296.210938 121.710938 296.132812 C 121.441406 296.054688 121.179688 296.078125 120.929688 296.203125 C 120.691406 296.328125 120.535156 296.519531 120.457031 296.777344 C 120.375 297.03125 120.394531 297.277344 120.515625 297.515625 Z M 244.691406 294.886719 L 242.140625 300.148438 C 242.0625 300.378906 242.066406 300.605469 242.15625 300.828125 C 242.25 301.054688 242.402344 301.222656 242.617188 301.335938 C 242.832031 301.449219 243.058594 301.480469 243.292969 301.425781 C 243.53125 301.371094 243.722656 301.246094 243.867188 301.050781 L 246.5 295.792969 C 246.621094 295.550781 246.644531 295.304688 246.5625 295.050781 C 246.484375 294.792969 246.324219 294.601562 246.089844 294.476562 C 245.839844 294.351562 245.578125 294.328125 245.308594 294.40625 C 245.039062 294.484375 244.832031 294.644531 244.691406 294.886719 Z M 124.632812 295.792969 L 127.265625 301.050781 C 127.40625 301.292969 127.613281 301.453125 127.882812 301.53125 C 128.152344 301.609375 128.414062 301.585938 128.664062 301.460938 C 128.898438 301.335938 129.058594 301.144531 129.136719 300.886719 C 129.21875 300.632812 129.195312 300.386719 129.074219 300.148438 L 126.441406 294.886719 C 126.316406 294.652344 126.125 294.492188 125.867188 294.414062 C 125.613281 294.335938 125.363281 294.355469 125.125 294.476562 C 125.003906 294.53125 124.898438 294.605469 124.808594 294.699219 C 124.71875 294.796875 124.648438 294.90625 124.601562 295.03125 C 124.558594 295.152344 124.535156 295.28125 124.542969 295.414062 C 124.546875 295.546875 124.578125 295.671875 124.632812 295.792969 Z M 124.632812 295.792969 " fill-opacity="1" fill-rule="evenodd"/><g clip-path="url(#b66bc55a59)"><path fill="#fb7077" d="M 129.074219 91.71875 C 129.734375 75.117188 143.804688 61.800781 161.003906 61.800781 C 162.460938 61.789062 163.914062 61.875 165.363281 62.0625 C 166.808594 62.25 168.238281 62.53125 169.644531 62.914062 C 171.050781 63.296875 172.429688 63.769531 173.769531 64.339844 C 175.113281 64.910156 176.414062 65.566406 177.664062 66.3125 C 178.917969 67.0625 180.113281 67.890625 181.253906 68.796875 C 182.394531 69.707031 183.464844 70.691406 184.472656 71.75 C 185.476562 72.804688 186.402344 73.925781 187.253906 75.105469 C 188.109375 76.289062 188.875 77.527344 189.558594 78.8125 C 190.269531 77.617188 191.058594 76.472656 191.921875 75.375 C 192.785156 74.28125 193.714844 73.246094 194.710938 72.273438 C 195.710938 71.296875 196.765625 70.394531 197.878906 69.558594 C 198.996094 68.71875 200.160156 67.957031 201.375 67.273438 C 202.589844 66.589844 203.84375 65.984375 205.136719 65.460938 C 206.429688 64.9375 207.75 64.503906 209.101562 64.152344 C 210.449219 63.800781 211.816406 63.539062 213.203125 63.363281 C 214.585938 63.191406 215.976562 63.109375 217.371094 63.117188 C 233.582031 63.117188 247.078125 74.949219 249.050781 90.15625 C 266.496094 90.402344 280.566406 104.210938 280.566406 121.222656 C 280.566406 125.453125 279.714844 129.507812 278.015625 133.386719 C 279.542969 133.847656 281.023438 134.425781 282.457031 135.117188 C 283.890625 135.808594 285.265625 136.605469 286.578125 137.507812 C 287.890625 138.410156 289.125 139.410156 290.28125 140.503906 C 291.4375 141.597656 292.503906 142.777344 293.476562 144.035156 C 294.453125 145.292969 295.324219 146.621094 296.09375 148.015625 C 296.859375 149.410156 297.515625 150.855469 298.0625 152.347656 C 298.605469 153.84375 299.03125 155.375 299.339844 156.933594 C 299.648438 158.496094 299.832031 160.074219 299.894531 161.664062 C 299.957031 163.253906 299.898438 164.839844 299.714844 166.417969 C 299.53125 168 299.226562 169.558594 298.804688 171.09375 C 298.378906 172.625 297.839844 174.117188 297.183594 175.570312 C 296.527344 177.019531 295.761719 178.410156 294.890625 179.742188 C 294.019531 181.074219 293.050781 182.332031 291.984375 183.515625 C 290.917969 184.695312 289.765625 185.789062 288.53125 186.792969 C 287.292969 187.796875 285.988281 188.699219 284.609375 189.503906 C 283.234375 190.304688 281.804688 190.996094 280.320312 191.578125 C 280.652344 193.257812 280.816406 194.957031 280.816406 196.671875 C 280.816406 213.847656 266.414062 227.738281 248.804688 227.738281 C 246.78125 227.753906 244.78125 227.5625 242.796875 227.164062 C 238.765625 239.738281 226.585938 248.863281 212.351562 248.863281 C 209.910156 248.875 207.496094 248.617188 205.113281 248.082031 C 202.730469 247.546875 200.4375 246.753906 198.238281 245.703125 C 196.035156 244.648438 193.976562 243.359375 192.070312 241.839844 C 190.160156 240.320312 188.445312 238.605469 186.925781 236.699219 C 185.429688 238.792969 183.707031 240.679688 181.761719 242.359375 C 179.8125 244.039062 177.691406 245.46875 175.402344 246.640625 C 173.109375 247.8125 170.710938 248.699219 168.210938 249.296875 C 165.707031 249.894531 163.167969 250.1875 160.589844 250.175781 C 145.367188 250.175781 132.613281 239.820312 129.40625 226.011719 C 125.992188 227.1875 122.480469 227.761719 118.871094 227.738281 C 101.261719 227.738281 86.945312 213.847656 86.945312 196.671875 C 86.957031 194.964844 87.09375 193.265625 87.355469 191.578125 C 85.871094 190.996094 84.441406 190.304688 83.066406 189.503906 C 81.6875 188.699219 80.382812 187.796875 79.148438 186.792969 C 77.910156 185.789062 76.757812 184.695312 75.691406 183.515625 C 74.625 182.332031 73.65625 181.074219 72.785156 179.742188 C 71.914062 178.410156 71.148438 177.019531 70.492188 175.570312 C 69.835938 174.117188 69.296875 172.625 68.871094 171.09375 C 68.449219 169.558594 68.144531 168 67.960938 166.417969 C 67.777344 164.839844 67.71875 163.253906 67.78125 161.664062 C 67.84375 160.074219 68.03125 158.496094 68.335938 156.933594 C 68.644531 155.375 69.070312 153.84375 69.613281 152.347656 C 70.160156 150.855469 70.816406 149.410156 71.585938 148.015625 C 72.351562 146.621094 73.222656 145.292969 74.199219 144.035156 C 75.171875 142.777344 76.238281 141.597656 77.394531 140.503906 C 78.550781 139.410156 79.785156 138.410156 81.097656 137.507812 C 82.410156 136.605469 83.785156 135.808594 85.21875 135.117188 C 86.65625 134.425781 88.132812 133.847656 89.660156 133.386719 C 87.960938 129.507812 87.113281 125.453125 87.109375 121.222656 C 87.109375 104.046875 101.507812 90.15625 119.117188 90.15625 C 122.519531 90.167969 125.835938 90.6875 129.074219 91.71875 Z M 129.074219 91.71875 " fill-opacity="1" fill-rule="evenodd"/></g><path fill="#1f3c74" d="M 155.242188 185.414062 C 156.890625 179.578125 167.421875 180.070312 180.339844 180.234375 C 193.261719 180.398438 201.570312 179.164062 204.367188 184.097656 C 207.167969 189.027344 199.265625 201.601562 179.929688 201.769531 C 160.59375 201.933594 154.253906 189.027344 155.242188 185.414062 Z M 155.242188 185.414062 " fill-opacity="1" fill-rule="evenodd"/><path fill="#da3941" d="M 157.957031 192.972656 C 161.367188 191.007812 164.964844 189.492188 168.753906 188.4375 C 172.542969 187.378906 176.40625 186.808594 180.339844 186.726562 C 188.734375 186.726562 195.976562 189.769531 201.40625 193.136719 C 197.703125 197.574219 190.625 201.683594 179.929688 201.769531 C 169.230469 201.851562 161.414062 197.410156 157.957031 192.972656 Z M 157.957031 192.972656 " fill-opacity="1" fill-rule="evenodd"/><path fill="#ffffff" d="M 162.320312 180.808594 C 166.84375 179.988281 173.265625 180.152344 180.339844 180.234375 C 187.417969 180.316406 194 179.90625 198.445312 180.726562 C 195.070312 184.261719 189.0625 189.027344 181 188.945312 C 179.25 188.917969 177.523438 188.71875 175.8125 188.347656 C 174.105469 187.976562 172.449219 187.441406 170.84375 186.742188 C 169.242188 186.046875 167.722656 185.195312 166.289062 184.199219 C 164.855469 183.199219 163.53125 182.070312 162.320312 180.808594 Z M 162.320312 180.808594 " fill-opacity="1" fill-rule="evenodd"/><path fill="#ffffff" d="M 171.617188 156.976562 C 171.617188 157.519531 171.589844 158.066406 171.539062 158.609375 C 171.484375 159.152344 171.402344 159.695312 171.296875 160.230469 C 171.191406 160.765625 171.058594 161.296875 170.898438 161.816406 C 170.742188 162.339844 170.554688 162.855469 170.347656 163.359375 C 170.136719 163.863281 169.902344 164.359375 169.644531 164.839844 C 169.386719 165.320312 169.105469 165.789062 168.804688 166.246094 C 168.5 166.699219 168.171875 167.136719 167.828125 167.558594 C 167.480469 167.980469 167.113281 168.386719 166.726562 168.773438 C 166.339844 169.160156 165.933594 169.527344 165.511719 169.871094 C 165.089844 170.21875 164.648438 170.542969 164.195312 170.847656 C 163.738281 171.152344 163.269531 171.429688 162.789062 171.6875 C 162.304688 171.945312 161.8125 172.179688 161.304688 172.390625 C 160.800781 172.597656 160.285156 172.78125 159.761719 172.941406 C 159.238281 173.097656 158.710938 173.230469 158.171875 173.339844 C 157.636719 173.445312 157.09375 173.523438 156.550781 173.578125 C 156.007812 173.632812 155.460938 173.660156 154.914062 173.660156 C 154.367188 173.660156 153.820312 173.632812 153.277344 173.578125 C 152.730469 173.523438 152.191406 173.445312 151.65625 173.339844 C 151.117188 173.230469 150.589844 173.097656 150.066406 172.941406 C 149.542969 172.78125 149.027344 172.597656 148.519531 172.390625 C 148.015625 172.179688 147.523438 171.945312 147.039062 171.6875 C 146.558594 171.429688 146.089844 171.152344 145.632812 170.847656 C 145.179688 170.542969 144.738281 170.21875 144.316406 169.871094 C 143.894531 169.527344 143.488281 169.160156 143.101562 168.773438 C 142.714844 168.386719 142.347656 167.980469 142 167.558594 C 141.652344 167.136719 141.328125 166.699219 141.023438 166.246094 C 140.71875 165.789062 140.441406 165.320312 140.183594 164.839844 C 139.925781 164.359375 139.691406 163.863281 139.480469 163.359375 C 139.273438 162.855469 139.085938 162.339844 138.929688 161.816406 C 138.769531 161.296875 138.636719 160.765625 138.53125 160.230469 C 138.421875 159.695312 138.34375 159.152344 138.289062 158.609375 C 138.234375 158.066406 138.210938 157.519531 138.210938 156.976562 C 138.210938 156.429688 138.234375 155.882812 138.289062 155.339844 C 138.34375 154.796875 138.421875 154.257812 138.53125 153.71875 C 138.636719 153.183594 138.769531 152.65625 138.929688 152.132812 C 139.085938 151.609375 139.273438 151.09375 139.480469 150.589844 C 139.691406 150.085938 139.925781 149.59375 140.183594 149.109375 C 140.441406 148.628906 140.71875 148.160156 141.023438 147.707031 C 141.328125 147.25 141.652344 146.8125 142 146.390625 C 142.347656 145.96875 142.714844 145.5625 143.101562 145.175781 C 143.488281 144.792969 143.894531 144.425781 144.316406 144.078125 C 144.738281 143.730469 145.179688 143.40625 145.632812 143.101562 C 146.089844 142.800781 146.558594 142.519531 147.039062 142.261719 C 147.523438 142.003906 148.015625 141.769531 148.519531 141.5625 C 149.027344 141.351562 149.542969 141.167969 150.066406 141.007812 C 150.589844 140.851562 151.117188 140.71875 151.65625 140.613281 C 152.191406 140.503906 152.730469 140.425781 153.277344 140.371094 C 153.820312 140.316406 154.367188 140.289062 154.914062 140.289062 C 155.460938 140.289062 156.007812 140.316406 156.550781 140.371094 C 157.09375 140.425781 157.636719 140.503906 158.171875 140.613281 C 158.710938 140.71875 159.238281 140.851562 159.761719 141.007812 C 160.285156 141.167969 160.800781 141.351562 161.304688 141.5625 C 161.8125 141.769531 162.304688 142.003906 162.789062 142.261719 C 163.269531 142.519531 163.738281 142.800781 164.195312 143.101562 C 164.648438 143.40625 165.089844 143.730469 165.511719 144.078125 C 165.933594 144.425781 166.339844 144.792969 166.726562 145.175781 C 167.113281 145.5625 167.480469 145.96875 167.828125 146.390625 C 168.171875 146.8125 168.5 147.25 168.804688 147.707031 C 169.105469 148.160156 169.386719 148.628906 169.644531 149.109375 C 169.902344 149.59375 170.136719 150.085938 170.347656 150.589844 C 170.554688 151.09375 170.742188 151.609375 170.898438 152.132812 C 171.058594 152.65625 171.191406 153.183594 171.296875 153.71875 C 171.402344 154.257812 171.484375 154.796875 171.539062 155.339844 C 171.589844 155.882812 171.617188 156.429688 171.617188 156.976562 Z M 171.617188 156.976562 " fill-opacity="1" fill-rule="nonzero"/><path fill="#ffffff" d="M 223.378906 156.976562 C 223.378906 157.519531 223.351562 158.066406 223.296875 158.609375 C 223.242188 159.152344 223.164062 159.695312 223.054688 160.230469 C 222.949219 160.765625 222.816406 161.296875 222.660156 161.816406 C 222.5 162.339844 222.316406 162.855469 222.105469 163.359375 C 221.898438 163.863281 221.664062 164.359375 221.40625 164.839844 C 221.148438 165.320312 220.867188 165.789062 220.5625 166.246094 C 220.257812 166.699219 219.933594 167.136719 219.585938 167.558594 C 219.238281 167.980469 218.871094 168.386719 218.484375 168.773438 C 218.097656 169.160156 217.691406 169.527344 217.269531 169.871094 C 216.847656 170.21875 216.410156 170.542969 215.953125 170.847656 C 215.5 171.152344 215.03125 171.429688 214.546875 171.6875 C 214.066406 171.945312 213.570312 172.179688 213.066406 172.390625 C 212.558594 172.597656 212.046875 172.78125 211.523438 172.941406 C 211 173.097656 210.46875 173.230469 209.933594 173.339844 C 209.394531 173.445312 208.855469 173.523438 208.308594 173.578125 C 207.765625 173.632812 207.21875 173.660156 206.671875 173.660156 C 206.125 173.660156 205.582031 173.632812 205.035156 173.578125 C 204.492188 173.523438 203.949219 173.445312 203.414062 173.339844 C 202.878906 173.230469 202.347656 173.097656 201.824219 172.941406 C 201.300781 172.78125 200.785156 172.597656 200.28125 172.390625 C 199.773438 172.179688 199.28125 171.945312 198.796875 171.6875 C 198.316406 171.429688 197.847656 171.152344 197.390625 170.847656 C 196.9375 170.542969 196.5 170.21875 196.074219 169.871094 C 195.652344 169.527344 195.25 169.160156 194.859375 168.773438 C 194.472656 168.386719 194.109375 167.980469 193.761719 167.558594 C 193.414062 167.136719 193.085938 166.699219 192.785156 166.246094 C 192.480469 165.789062 192.199219 165.320312 191.941406 164.839844 C 191.683594 164.359375 191.449219 163.863281 191.238281 163.359375 C 191.03125 162.855469 190.847656 162.339844 190.6875 161.816406 C 190.527344 161.296875 190.394531 160.765625 190.289062 160.230469 C 190.183594 159.695312 190.101562 159.152344 190.050781 158.609375 C 189.996094 158.066406 189.96875 157.519531 189.96875 156.976562 C 189.96875 156.429688 189.996094 155.882812 190.050781 155.339844 C 190.101562 154.796875 190.183594 154.257812 190.289062 153.71875 C 190.394531 153.183594 190.527344 152.65625 190.6875 152.132812 C 190.847656 151.609375 191.03125 151.09375 191.238281 150.589844 C 191.449219 150.085938 191.683594 149.59375 191.941406 149.109375 C 192.199219 148.628906 192.480469 148.160156 192.785156 147.707031 C 193.085938 147.25 193.414062 146.8125 193.761719 146.390625 C 194.109375 145.96875 194.472656 145.5625 194.859375 145.175781 C 195.25 144.792969 195.652344 144.425781 196.074219 144.078125 C 196.5 143.730469 196.9375 143.40625 197.390625 143.101562 C 197.847656 142.800781 198.316406 142.519531 198.796875 142.261719 C 199.28125 142.003906 199.773438 141.769531 200.28125 141.5625 C 200.785156 141.351562 201.300781 141.167969 201.824219 141.007812 C 202.347656 140.851562 202.878906 140.71875 203.414062 140.613281 C 203.949219 140.503906 204.492188 140.425781 205.035156 140.371094 C 205.582031 140.316406 206.125 140.289062 206.671875 140.289062 C 207.21875 140.289062 207.765625 140.316406 208.308594 140.371094 C 208.855469 140.425781 209.394531 140.503906 209.933594 140.613281 C 210.46875 140.71875 211 140.851562 211.523438 141.007812 C 212.046875 141.167969 212.558594 141.351562 213.066406 141.5625 C 213.570312 141.769531 214.066406 142.003906 214.546875 142.261719 C 215.03125 142.519531 215.5 142.800781 215.953125 143.101562 C 216.410156 143.40625 216.847656 143.730469 217.269531 144.078125 C 217.691406 144.425781 218.097656 144.792969 218.484375 145.175781 C 218.871094 145.5625 219.238281 145.96875 219.585938 146.390625 C 219.933594 146.8125 220.257812 147.25 220.5625 147.707031 C 220.867188 148.160156 221.148438 148.628906 221.40625 149.109375 C 221.664062 149.59375 221.898438 150.085938 222.105469 150.589844 C 222.316406 151.09375 222.5 151.609375 222.660156 152.132812 C 222.816406 152.65625 222.949219 153.183594 223.054688 153.71875 C 223.164062 154.257812 223.242188 154.796875 223.296875 155.339844 C 223.351562 155.882812 223.378906 156.429688 223.378906 156.976562 Z M 223.378906 156.976562 " fill-opacity="1" fill-rule="nonzero"/><path fill="#1f3c74" d="M 169.398438 156.152344 C 169.398438 156.988281 169.316406 157.816406 169.152344 158.636719 C 168.988281 159.457031 168.746094 160.253906 168.425781 161.027344 C 168.105469 161.800781 167.710938 162.535156 167.246094 163.230469 C 166.78125 163.925781 166.253906 164.570312 165.660156 165.160156 C 165.070312 165.753906 164.425781 166.28125 163.726562 166.746094 C 163.03125 167.210938 162.296875 167.601562 161.523438 167.921875 C 160.75 168.242188 159.953125 168.484375 159.128906 168.648438 C 158.308594 168.8125 157.480469 168.890625 156.640625 168.890625 C 155.804688 168.890625 154.976562 168.8125 154.152344 168.648438 C 153.332031 168.484375 152.535156 168.242188 151.761719 167.921875 C 150.988281 167.601562 150.253906 167.210938 149.554688 166.746094 C 148.859375 166.28125 148.214844 165.753906 147.625 165.160156 C 147.03125 164.570312 146.503906 163.925781 146.035156 163.230469 C 145.570312 162.535156 145.179688 161.800781 144.859375 161.027344 C 144.539062 160.253906 144.296875 159.457031 144.132812 158.636719 C 143.96875 157.816406 143.886719 156.988281 143.886719 156.152344 C 143.886719 155.316406 143.96875 154.488281 144.132812 153.667969 C 144.296875 152.847656 144.539062 152.050781 144.859375 151.277344 C 145.179688 150.503906 145.570312 149.769531 146.035156 149.074219 C 146.503906 148.378906 147.03125 147.738281 147.625 147.144531 C 148.214844 146.554688 148.859375 146.027344 149.554688 145.5625 C 150.253906 145.097656 150.988281 144.703125 151.761719 144.382812 C 152.535156 144.0625 153.332031 143.820312 154.152344 143.660156 C 154.976562 143.496094 155.804688 143.414062 156.640625 143.414062 C 157.480469 143.414062 158.308594 143.496094 159.128906 143.660156 C 159.953125 143.820312 160.75 144.0625 161.523438 144.382812 C 162.296875 144.703125 163.03125 145.097656 163.726562 145.5625 C 164.425781 146.027344 165.070312 146.554688 165.660156 147.144531 C 166.253906 147.738281 166.78125 148.378906 167.246094 149.074219 C 167.710938 149.769531 168.105469 150.503906 168.425781 151.277344 C 168.746094 152.050781 168.988281 152.847656 169.152344 153.667969 C 169.316406 154.488281 169.398438 155.316406 169.398438 156.152344 Z M 169.398438 156.152344 " fill-opacity="1" fill-rule="nonzero"/><path fill="#1f3c74" d="M 217.699219 156.152344 C 217.699219 156.988281 217.617188 157.816406 217.453125 158.636719 C 217.292969 159.457031 217.050781 160.253906 216.730469 161.027344 C 216.410156 161.800781 216.015625 162.535156 215.550781 163.230469 C 215.085938 163.925781 214.554688 164.570312 213.964844 165.160156 C 213.371094 165.753906 212.726562 166.28125 212.03125 166.746094 C 211.335938 167.210938 210.601562 167.601562 209.824219 167.921875 C 209.050781 168.242188 208.253906 168.484375 207.433594 168.648438 C 206.613281 168.8125 205.78125 168.890625 204.945312 168.890625 C 204.109375 168.890625 203.277344 168.8125 202.457031 168.648438 C 201.636719 168.484375 200.835938 168.242188 200.0625 167.921875 C 199.289062 167.601562 198.554688 167.210938 197.859375 166.746094 C 197.164062 166.28125 196.519531 165.753906 195.925781 165.160156 C 195.332031 164.570312 194.804688 163.925781 194.339844 163.230469 C 193.875 162.535156 193.480469 161.800781 193.160156 161.027344 C 192.839844 160.253906 192.597656 159.457031 192.433594 158.636719 C 192.273438 157.816406 192.191406 156.988281 192.191406 156.152344 C 192.191406 155.316406 192.273438 154.488281 192.433594 153.667969 C 192.597656 152.847656 192.839844 152.050781 193.160156 151.277344 C 193.480469 150.503906 193.875 149.769531 194.339844 149.074219 C 194.804688 148.378906 195.332031 147.738281 195.925781 147.144531 C 196.519531 146.554688 197.164062 146.027344 197.859375 145.5625 C 198.554688 145.097656 199.289062 144.703125 200.0625 144.382812 C 200.835938 144.0625 201.636719 143.820312 202.457031 143.660156 C 203.277344 143.496094 204.109375 143.414062 204.945312 143.414062 C 205.78125 143.414062 206.613281 143.496094 207.433594 143.660156 C 208.253906 143.820312 209.050781 144.0625 209.824219 144.382812 C 210.601562 144.703125 211.335938 145.097656 212.03125 145.5625 C 212.726562 146.027344 213.371094 146.554688 213.964844 147.144531 C 214.554688 147.738281 215.085938 148.378906 215.550781 149.074219 C 216.015625 149.769531 216.410156 150.503906 216.730469 151.277344 C 217.050781 152.050781 217.292969 152.847656 217.453125 153.667969 C 217.617188 154.488281 217.699219 155.316406 217.699219 156.152344 Z M 217.699219 156.152344 " fill-opacity="1" fill-rule="nonzero"/><path fill="#ffffff" d="M 151.046875 163.304688 C 151.046875 163.804688 150.949219 164.289062 150.757812 164.75 C 150.566406 165.214844 150.292969 165.621094 149.9375 165.976562 C 149.582031 166.332031 149.171875 166.605469 148.710938 166.796875 C 148.246094 166.988281 147.761719 167.085938 147.261719 167.085938 C 146.757812 167.085938 146.277344 166.988281 145.8125 166.796875 C 145.347656 166.605469 144.941406 166.332031 144.585938 165.976562 C 144.230469 165.621094 143.957031 165.214844 143.765625 164.75 C 143.570312 164.289062 143.476562 163.804688 143.476562 163.304688 C 143.476562 162.800781 143.570312 162.320312 143.765625 161.855469 C 143.957031 161.394531 144.230469 160.984375 144.585938 160.628906 C 144.941406 160.277344 145.347656 160.003906 145.8125 159.8125 C 146.277344 159.617188 146.757812 159.523438 147.261719 159.523438 C 147.761719 159.523438 148.246094 159.617188 148.710938 159.8125 C 149.171875 160.003906 149.582031 160.277344 149.9375 160.628906 C 150.292969 160.984375 150.566406 161.394531 150.757812 161.855469 C 150.949219 162.320312 151.046875 162.800781 151.046875 163.304688 Z M 151.046875 163.304688 " fill-opacity="1" fill-rule="nonzero"/><path fill="#ffffff" d="M 218.109375 163.304688 C 218.109375 163.804688 218.015625 164.289062 217.824219 164.75 C 217.632812 165.214844 217.359375 165.621094 217.003906 165.976562 C 216.648438 166.332031 216.238281 166.605469 215.773438 166.796875 C 215.3125 166.988281 214.828125 167.085938 214.324219 167.085938 C 213.824219 167.085938 213.339844 166.988281 212.878906 166.796875 C 212.414062 166.605469 212.003906 166.332031 211.648438 165.976562 C 211.292969 165.621094 211.019531 165.214844 210.828125 164.75 C 210.636719 164.289062 210.539062 163.804688 210.539062 163.304688 C 210.539062 162.800781 210.636719 162.320312 210.828125 161.855469 C 211.019531 161.394531 211.292969 160.984375 211.648438 160.628906 C 212.003906 160.277344 212.414062 160.003906 212.878906 159.8125 C 213.339844 159.617188 213.824219 159.523438 214.324219 159.523438 C 214.828125 159.523438 215.3125 159.617188 215.773438 159.8125 C 216.238281 160.003906 216.648438 160.277344 217.003906 160.628906 C 217.359375 160.984375 217.632812 161.394531 217.824219 161.855469 C 218.015625 162.320312 218.109375 162.800781 218.109375 163.304688 Z M 218.109375 163.304688 " fill-opacity="1" fill-rule="nonzero"/><path fill="#1f3c74" d="M 152.117188 129.523438 C 152.691406 126.566406 167.09375 126.8125 171.042969 132.152344 C 171.238281 132.4375 171.398438 132.738281 171.527344 133.054688 C 171.652344 133.375 171.738281 133.707031 171.785156 134.046875 C 171.832031 134.386719 171.839844 134.726562 171.804688 135.070312 C 171.773438 135.410156 171.699219 135.742188 171.585938 136.070312 C 171.472656 136.394531 171.324219 136.699219 171.140625 136.988281 C 170.957031 137.277344 170.738281 137.542969 170.492188 137.78125 C 170.246094 138.019531 169.972656 138.226562 169.675781 138.398438 C 169.378906 138.574219 169.066406 138.710938 168.738281 138.8125 C 165.941406 139.796875 151.539062 132.320312 152.117188 129.523438 Z M 152.117188 129.523438 " fill-opacity="1" fill-rule="evenodd"/><path fill="#1f3c74" d="M 208.648438 129.523438 C 208.070312 126.566406 193.671875 126.8125 189.722656 132.152344 C 189.535156 132.4375 189.378906 132.738281 189.261719 133.058594 C 189.144531 133.378906 189.0625 133.707031 189.019531 134.046875 C 188.976562 134.382812 188.972656 134.722656 189.007812 135.058594 C 189.046875 135.398438 189.117188 135.730469 189.230469 136.050781 C 189.339844 136.371094 189.488281 136.675781 189.667969 136.964844 C 189.851562 137.253906 190.0625 137.515625 190.304688 137.757812 C 190.546875 137.996094 190.8125 138.203125 191.105469 138.382812 C 191.394531 138.5625 191.703125 138.703125 192.027344 138.8125 C 194.824219 139.796875 209.222656 132.320312 208.648438 129.523438 Z M 208.648438 129.523438 " fill-opacity="1" fill-rule="evenodd"/><path fill="#da3941" d="M 187.417969 228.148438 C 180.175781 224.699219 174.910156 218.535156 171.867188 209.65625 C 171.773438 209.402344 171.734375 209.136719 171.746094 208.867188 C 171.757812 208.59375 171.820312 208.335938 171.9375 208.085938 C 172.054688 207.839844 172.210938 207.625 172.414062 207.441406 C 172.613281 207.257812 172.84375 207.121094 173.097656 207.027344 C 173.363281 206.949219 173.628906 206.921875 173.902344 206.941406 C 174.175781 206.964844 174.433594 207.039062 174.679688 207.160156 C 174.921875 207.285156 175.136719 207.445312 175.320312 207.652344 C 175.5 207.855469 175.640625 208.085938 175.734375 208.34375 C 178.367188 215.65625 182.480469 220.917969 188.40625 223.957031 C 189.886719 219.191406 192.847656 215.246094 197.128906 213.191406 C 197.382812 213.082031 197.652344 213.019531 197.933594 213.015625 C 198.210938 213.007812 198.484375 213.054688 198.746094 213.15625 C 199.007812 213.253906 199.238281 213.402344 199.445312 213.59375 C 199.648438 213.785156 199.808594 214.007812 199.925781 214.261719 C 200.039062 214.503906 200.101562 214.761719 200.109375 215.035156 C 200.121094 215.304688 200.082031 215.566406 199.988281 215.820312 C 199.894531 216.074219 199.757812 216.300781 199.578125 216.5 C 199.394531 216.699219 199.183594 216.855469 198.9375 216.972656 C 195.5625 218.535156 193.507812 221.574219 192.355469 225.273438 C 191.488281 228.15625 191.132812 231.101562 191.289062 234.105469 C 191.445312 237.109375 192.101562 240 193.261719 242.78125 C 191.097656 241.226562 189.179688 239.417969 187.5 237.355469 C 187.015625 234.289062 186.988281 231.222656 187.417969 228.148438 Z M 241.152344 231.355469 C 236.9375 229.757812 233.152344 227.457031 229.796875 224.453125 C 229.589844 224.269531 229.433594 224.058594 229.316406 223.808594 C 229.199219 223.5625 229.140625 223.304688 229.132812 223.03125 C 229.125 222.757812 229.171875 222.496094 229.269531 222.242188 C 229.371094 221.988281 229.519531 221.765625 229.714844 221.574219 C 229.894531 221.375 230.109375 221.21875 230.351562 221.101562 C 230.59375 220.984375 230.851562 220.917969 231.121094 220.902344 C 231.390625 220.890625 231.652344 220.925781 231.90625 221.011719 C 232.160156 221.101562 232.390625 221.234375 232.59375 221.410156 C 235.597656 224.074219 238.96875 226.128906 242.714844 227.574219 C 242.222656 228.890625 241.726562 230.121094 241.152344 231.355469 Z M 129.488281 226.261719 C 132.617188 225.328125 135.605469 224.070312 138.457031 222.480469 C 138.699219 222.34375 138.957031 222.253906 139.230469 222.21875 C 139.503906 222.183594 139.777344 222.199219 140.046875 222.265625 C 140.316406 222.335938 140.5625 222.453125 140.785156 222.617188 C 141.007812 222.78125 141.191406 222.984375 141.335938 223.21875 C 141.472656 223.453125 141.554688 223.703125 141.59375 223.972656 C 141.628906 224.242188 141.609375 224.507812 141.542969 224.769531 C 141.472656 225.03125 141.355469 225.269531 141.191406 225.484375 C 141.027344 225.699219 140.828125 225.875 140.597656 226.011719 C 137.453125 227.761719 134.160156 229.15625 130.722656 230.203125 C 130.234375 228.914062 129.824219 227.597656 129.488281 226.261719 Z M 281.390625 181.21875 C 280.402344 187.054688 276.453125 193.714844 271.597656 196.015625 C 271.382812 196.148438 271.199219 196.3125 271.046875 196.511719 C 270.894531 196.710938 270.78125 196.933594 270.707031 197.175781 C 270.636719 197.414062 270.609375 197.660156 270.628906 197.914062 C 270.648438 198.164062 270.710938 198.402344 270.816406 198.632812 C 270.921875 198.859375 271.066406 199.0625 271.246094 199.238281 C 271.425781 199.410156 271.632812 199.550781 271.863281 199.648438 C 272.097656 199.75 272.339844 199.804688 272.589844 199.816406 C 272.839844 199.828125 273.085938 199.792969 273.328125 199.714844 C 279.332031 196.917969 284.269531 189.027344 285.421875 181.878906 C 285.46875 181.605469 285.460938 181.332031 285.398438 181.0625 C 285.335938 180.792969 285.226562 180.546875 285.0625 180.324219 C 284.898438 180.097656 284.699219 179.914062 284.460938 179.769531 C 284.226562 179.625 283.96875 179.535156 283.695312 179.496094 C 283.429688 179.460938 283.164062 179.476562 282.902344 179.542969 C 282.644531 179.613281 282.40625 179.726562 282.191406 179.886719 C 281.972656 180.050781 281.796875 180.246094 281.660156 180.476562 C 281.519531 180.707031 281.429688 180.953125 281.390625 181.21875 Z M 83.078125 189.4375 C 83.539062 186.148438 84.414062 182.96875 85.710938 179.90625 C 85.816406 179.65625 85.96875 179.433594 86.167969 179.242188 C 86.363281 179.050781 86.589844 178.90625 86.84375 178.808594 C 87.101562 178.707031 87.363281 178.660156 87.636719 178.664062 C 87.910156 178.667969 88.175781 178.726562 88.425781 178.835938 C 88.683594 178.9375 88.914062 179.082031 89.109375 179.277344 C 89.308594 179.472656 89.457031 179.699219 89.558594 179.957031 C 89.660156 180.214844 89.707031 180.484375 89.695312 180.761719 C 89.683594 181.039062 89.617188 181.300781 89.496094 181.550781 C 88.160156 184.683594 87.308594 187.941406 86.945312 191.328125 C 85.589844 190.832031 84.300781 190.203125 83.078125 189.441406 Z M 95.335938 164.042969 C 93.050781 165.683594 90.5 166.535156 87.683594 166.589844 L 77.398438 164.699219 C 77.140625 164.597656 76.914062 164.449219 76.71875 164.253906 C 76.519531 164.0625 76.367188 163.835938 76.257812 163.582031 C 76.148438 163.328125 76.09375 163.0625 76.09375 162.785156 C 76.089844 162.511719 76.140625 162.242188 76.242188 161.988281 C 76.347656 161.730469 76.496094 161.503906 76.691406 161.308594 C 76.886719 161.109375 77.109375 160.957031 77.363281 160.851562 C 77.621094 160.742188 77.886719 160.6875 78.160156 160.683594 C 78.4375 160.683594 78.707031 160.734375 78.960938 160.839844 C 81.714844 161.898438 84.566406 162.421875 87.519531 162.398438 C 90.070312 162.316406 92.703125 161.578125 94.351562 159.03125 C 95.996094 156.480469 95.253906 150.976562 93.117188 146.785156 C 90.921875 142.578125 88.207031 138.746094 84.96875 135.277344 C 86.277344 134.617188 87.621094 134.042969 89 133.550781 C 92.082031 137.003906 94.6875 140.785156 96.820312 144.894531 C 99.535156 150.316406 100.769531 156.152344 98.054688 160.839844 C 99.953125 162.078125 101.324219 163.746094 102.167969 165.851562 C 103.402344 168.808594 103.566406 172.097656 102.25 174.398438 C 102.125 174.644531 101.960938 174.859375 101.75 175.039062 C 101.539062 175.222656 101.304688 175.355469 101.039062 175.4375 C 100.777344 175.523438 100.507812 175.554688 100.234375 175.53125 C 99.957031 175.507812 99.695312 175.429688 99.453125 175.304688 C 99.207031 175.164062 99 174.984375 98.828125 174.765625 C 98.652344 174.546875 98.527344 174.300781 98.453125 174.03125 C 98.375 173.761719 98.351562 173.488281 98.382812 173.210938 C 98.414062 172.933594 98.496094 172.671875 98.628906 172.425781 C 99.371094 171.113281 99.121094 169.222656 98.382812 167.496094 C 97.792969 165.972656 96.777344 164.820312 95.335938 164.042969 Z M 259.585938 154.589844 C 259.019531 155.105469 258.515625 155.667969 258.0625 156.28125 C 257.609375 156.894531 257.226562 157.546875 256.902344 158.238281 C 256.582031 158.925781 256.332031 159.640625 256.152344 160.382812 C 255.972656 161.121094 255.867188 161.871094 255.835938 162.632812 C 255.804688 163.394531 255.847656 164.148438 255.96875 164.902344 C 256.089844 165.652344 256.28125 166.386719 256.546875 167.097656 C 256.8125 167.8125 257.144531 168.492188 257.546875 169.140625 C 257.945312 169.789062 258.40625 170.390625 258.925781 170.945312 C 259.113281 171.152344 259.335938 171.316406 259.589844 171.429688 C 259.84375 171.546875 260.109375 171.609375 260.390625 171.617188 C 260.667969 171.625 260.9375 171.578125 261.199219 171.476562 C 261.460938 171.375 261.6875 171.226562 261.886719 171.027344 C 262.09375 170.847656 262.253906 170.632812 262.367188 170.386719 C 262.484375 170.140625 262.546875 169.882812 262.554688 169.609375 C 262.5625 169.335938 262.515625 169.074219 262.414062 168.820312 C 262.3125 168.566406 262.164062 168.34375 261.972656 168.152344 C 261.773438 167.945312 261.589844 167.726562 261.417969 167.5 C 261.25 167.269531 261.089844 167.035156 260.949219 166.789062 C 260.804688 166.539062 260.675781 166.285156 260.5625 166.023438 C 260.449219 165.761719 260.351562 165.496094 260.269531 165.222656 C 260.1875 164.949219 260.121094 164.671875 260.070312 164.390625 C 260.019531 164.109375 259.988281 163.828125 259.972656 163.542969 C 259.953125 163.257812 259.953125 162.972656 259.972656 162.6875 C 259.988281 162.402344 260.023438 162.121094 260.070312 161.839844 C 260.121094 161.558594 260.1875 161.28125 260.269531 161.007812 C 260.351562 160.734375 260.449219 160.46875 260.5625 160.207031 C 260.675781 159.945312 260.804688 159.691406 260.949219 159.445312 C 261.09375 159.199219 261.25 158.960938 261.421875 158.730469 C 261.59375 158.503906 261.777344 158.285156 261.972656 158.078125 C 262.167969 157.871094 262.378906 157.675781 262.597656 157.496094 C 262.816406 157.3125 263.046875 157.144531 263.285156 156.988281 C 263.523438 156.832031 263.773438 156.691406 264.027344 156.5625 L 264.109375 156.5625 C 266.125 157.097656 268.175781 157.339844 270.257812 157.300781 C 272.339844 157.257812 274.378906 156.929688 276.371094 156.316406 C 276.632812 156.242188 276.871094 156.117188 277.082031 155.945312 C 277.296875 155.777344 277.46875 155.570312 277.597656 155.332031 C 277.730469 155.09375 277.808594 154.839844 277.839844 154.566406 C 277.871094 154.296875 277.847656 154.03125 277.769531 153.769531 C 277.683594 153.503906 277.550781 153.265625 277.375 153.054688 C 277.195312 152.839844 276.984375 152.667969 276.738281 152.539062 C 276.492188 152.40625 276.230469 152.328125 275.953125 152.300781 C 275.675781 152.269531 275.402344 152.292969 275.136719 152.371094 C 263.863281 155.742188 253.578125 148.015625 256.539062 138.8125 C 256.617188 138.554688 256.644531 138.292969 256.621094 138.027344 C 256.597656 137.761719 256.523438 137.507812 256.398438 137.269531 C 256.277344 137.03125 256.113281 136.828125 255.910156 136.652344 C 255.707031 136.476562 255.476562 136.347656 255.222656 136.261719 C 254.960938 136.183594 254.695312 136.15625 254.421875 136.179688 C 254.148438 136.203125 253.890625 136.273438 253.644531 136.398438 C 253.398438 136.519531 253.183594 136.683594 253.003906 136.886719 C 252.820312 137.089844 252.683594 137.320312 252.589844 137.578125 C 250.367188 144.398438 253.660156 151.058594 259.585938 154.589844 Z M 123.726562 101.167969 C 127.347656 96.15625 132.449219 93.195312 139.445312 92.621094 C 139.710938 92.601562 139.960938 92.53125 140.199219 92.410156 C 140.4375 92.292969 140.644531 92.132812 140.820312 91.933594 C 141 91.734375 141.132812 91.511719 141.21875 91.257812 C 141.308594 91.007812 141.347656 90.75 141.335938 90.484375 C 141.324219 90.210938 141.261719 89.953125 141.148438 89.703125 C 141.035156 89.457031 140.875 89.242188 140.675781 89.054688 C 140.476562 88.871094 140.246094 88.730469 139.992188 88.636719 C 139.734375 88.542969 139.46875 88.5 139.195312 88.511719 C 130.804688 89.167969 124.632812 92.785156 120.351562 98.785156 C 120.195312 99.007812 120.085938 99.253906 120.023438 99.519531 C 119.964844 99.789062 119.957031 100.054688 120.003906 100.324219 C 120.050781 100.597656 120.144531 100.847656 120.292969 101.078125 C 120.4375 101.308594 120.621094 101.503906 120.847656 101.664062 C 121.070312 101.820312 121.316406 101.929688 121.582031 101.988281 C 121.851562 102.050781 122.117188 102.058594 122.390625 102.011719 C 122.660156 101.964844 122.910156 101.867188 123.140625 101.722656 C 123.375 101.578125 123.570312 101.390625 123.726562 101.167969 Z M 220.578125 91.390625 C 218.6875 94.511719 213.175781 101.578125 202.3125 100.019531 C 197.292969 99.359375 194 97.46875 191.945312 95.085938 C 189.886719 92.703125 188.40625 86.539062 189.308594 81.691406 C 189.570312 80.269531 189.925781 78.871094 190.378906 77.5 C 192.625 74.136719 195.394531 71.289062 198.691406 68.953125 C 198.675781 69.128906 198.621094 69.292969 198.527344 69.445312 C 196.136719 73.503906 194.4375 77.832031 193.425781 82.429688 C 192.765625 85.964844 192.765625 89.746094 195.070312 92.375 C 197.375 95.003906 199.101562 95.414062 202.886719 95.992188 C 203.570312 96.105469 204.257812 96.164062 204.949219 96.171875 C 205.640625 96.183594 206.328125 96.136719 207.011719 96.042969 C 207.699219 95.945312 208.371094 95.800781 209.035156 95.601562 C 209.699219 95.402344 210.339844 95.15625 210.964844 94.859375 C 211.589844 94.566406 212.191406 94.222656 212.761719 93.835938 C 213.335938 93.449219 213.878906 93.023438 214.386719 92.554688 C 214.894531 92.085938 215.363281 91.582031 215.792969 91.042969 C 216.226562 90.503906 216.613281 89.933594 216.960938 89.332031 C 215.757812 88.328125 214.832031 87.109375 214.183594 85.683594 C 213.535156 84.257812 213.226562 82.761719 213.257812 81.199219 C 213.257812 80.925781 213.308594 80.664062 213.414062 80.410156 C 213.515625 80.160156 213.664062 79.9375 213.859375 79.746094 C 214.050781 79.550781 214.273438 79.402344 214.527344 79.300781 C 214.777344 79.195312 215.039062 79.144531 215.3125 79.144531 C 215.585938 79.144531 215.847656 79.195312 216.101562 79.300781 C 216.351562 79.402344 216.574219 79.550781 216.769531 79.746094 C 216.960938 79.9375 217.109375 80.160156 217.214844 80.410156 C 217.316406 80.664062 217.371094 80.925781 217.371094 81.199219 C 217.371094 86.949219 223.871094 89.417969 228.972656 87.527344 C 229.234375 87.445312 229.503906 87.417969 229.777344 87.441406 C 230.046875 87.464844 230.308594 87.535156 230.550781 87.660156 C 230.796875 87.78125 231.011719 87.945312 231.191406 88.148438 C 231.375 88.351562 231.511719 88.582031 231.605469 88.839844 C 231.699219 89.097656 231.738281 89.359375 231.726562 89.632812 C 231.714844 89.90625 231.648438 90.164062 231.535156 90.410156 C 231.417969 90.65625 231.261719 90.871094 231.058594 91.054688 C 230.855469 91.238281 230.628906 91.378906 230.371094 91.472656 C 228.785156 92.03125 227.152344 92.304688 225.46875 92.292969 C 223.785156 92.277344 222.15625 91.976562 220.578125 91.390625 Z M 220.578125 91.390625 " fill-opacity="1" fill-rule="evenodd"/><path fill="#1f3c74" d="M 296.941406 179.164062 C 299.761719 180.695312 302.285156 182.613281 304.511719 184.917969 C 305.8125 186.277344 306.523438 187.894531 306.652344 189.769531 C 306.652344 191.742188 305.582031 193.550781 303.9375 195.355469 C 301.105469 197.996094 297.925781 200.105469 294.390625 201.683594 C 273.820312 211.875 232.347656 218.699219 184.621094 218.699219 C 136.894531 218.699219 95.335938 211.875 74.765625 201.683594 C 71.269531 200.085938 68.113281 197.976562 65.300781 195.355469 C 63.574219 193.550781 62.585938 191.742188 62.585938 189.769531 C 62.585938 187.796875 63.410156 186.480469 64.808594 184.835938 C 67.089844 182.457031 69.695312 180.511719 72.625 179 C 72.992188 178.800781 73.304688 178.535156 73.5625 178.210938 C 73.824219 177.882812 74.011719 177.519531 74.128906 177.121094 C 74.242188 176.71875 74.277344 176.3125 74.230469 175.898438 C 74.183594 175.484375 74.0625 175.09375 73.859375 174.726562 C 73.65625 174.363281 73.394531 174.050781 73.066406 173.789062 C 72.742188 173.53125 72.378906 173.34375 71.976562 173.226562 C 71.574219 173.109375 71.167969 173.078125 70.75 173.125 C 70.335938 173.167969 69.945312 173.292969 69.582031 173.496094 C 60.777344 178.34375 56.25 184.097656 56.25 189.769531 C 56.277344 191.257812 56.554688 192.699219 57.074219 194.097656 C 57.597656 195.492188 58.339844 196.761719 59.296875 197.90625 C 61.847656 201.191406 66.125 204.480469 71.96875 207.355469 C 93.117188 217.792969 135.660156 225.027344 184.621094 225.027344 C 233.582031 225.027344 276.125 217.792969 297.191406 207.355469 C 303.113281 204.480469 307.394531 201.191406 309.945312 197.90625 C 310.902344 196.761719 311.640625 195.492188 312.164062 194.097656 C 312.6875 192.699219 312.960938 191.257812 312.988281 189.769531 C 312.988281 184.179688 308.546875 178.507812 299.988281 173.742188 C 299.808594 173.617188 299.617188 173.515625 299.417969 173.429688 C 299.21875 173.347656 299.011719 173.285156 298.796875 173.242188 C 298.582031 173.203125 298.367188 173.183594 298.148438 173.1875 C 297.929688 173.191406 297.714844 173.21875 297.503906 173.265625 C 297.292969 173.316406 297.085938 173.386719 296.890625 173.480469 C 296.691406 173.570312 296.507812 173.679688 296.332031 173.8125 C 296.160156 173.941406 296 174.089844 295.855469 174.253906 C 295.714844 174.417969 295.589844 174.59375 295.480469 174.78125 C 295.375 174.972656 295.289062 175.171875 295.226562 175.378906 C 295.160156 175.585938 295.117188 175.796875 295.097656 176.015625 C 295.074219 176.230469 295.078125 176.449219 295.101562 176.664062 C 295.128906 176.878906 295.171875 177.089844 295.242188 177.296875 C 295.3125 177.503906 295.402344 177.699219 295.511719 177.886719 C 295.621094 178.074219 295.75 178.25 295.894531 178.410156 C 296.042969 178.570312 296.203125 178.714844 296.378906 178.84375 C 296.554688 178.96875 296.742188 179.078125 296.941406 179.164062 Z M 296.941406 179.164062 " fill-opacity="1" fill-rule="evenodd"/><path fill="#1f3c74" d="M 53.125 180.808594 C 43.742188 187.136719 49.089844 199.796875 57.320312 202.425781 C 57.613281 202.507812 57.898438 202.476562 58.167969 202.332031 C 58.4375 202.191406 58.621094 201.972656 58.71875 201.683594 C 58.800781 201.390625 58.769531 201.109375 58.628906 200.839844 C 58.484375 200.570312 58.269531 200.386719 57.980469 200.289062 C 51.230469 198.234375 46.621094 187.796875 54.359375 182.617188 C 54.476562 182.542969 54.578125 182.445312 54.660156 182.328125 C 54.742188 182.214844 54.800781 182.085938 54.832031 181.945312 C 54.863281 181.808594 54.863281 181.667969 54.839844 181.527344 C 54.816406 181.386719 54.765625 181.257812 54.6875 181.136719 C 54.601562 181.015625 54.5 180.914062 54.375 180.828125 C 54.253906 180.746094 54.117188 180.691406 53.972656 180.660156 C 53.824219 180.628906 53.679688 180.625 53.53125 180.652344 C 53.386719 180.679688 53.25 180.730469 53.125 180.808594 Z M 53.125 180.808594 " fill-opacity="1" fill-rule="evenodd"/><path fill="#1f3c74" d="M 314.636719 182.617188 C 322.371094 187.796875 317.679688 198.234375 310.933594 200.289062 C 310.703125 200.425781 310.542969 200.617188 310.445312 200.863281 C 310.351562 201.109375 310.34375 201.363281 310.421875 201.613281 C 310.5 201.867188 310.648438 202.070312 310.867188 202.222656 C 311.082031 202.375 311.324219 202.441406 311.589844 202.425781 C 319.820312 199.796875 325.25 187.136719 315.789062 180.808594 C 315.667969 180.734375 315.535156 180.683594 315.394531 180.65625 C 315.257812 180.632812 315.117188 180.632812 314.976562 180.664062 C 314.835938 180.695312 314.710938 180.75 314.59375 180.832031 C 314.476562 180.914062 314.378906 181.015625 314.300781 181.136719 C 314.226562 181.257812 314.175781 181.386719 314.152344 181.527344 C 314.125 181.667969 314.128906 181.808594 314.160156 181.945312 C 314.191406 182.085938 314.25 182.210938 314.332031 182.328125 C 314.414062 182.445312 314.515625 182.542969 314.636719 182.617188 Z M 314.636719 182.617188 " fill-opacity="1" fill-rule="evenodd"/><path fill="#1f3c74" d="M 45.882812 183.273438 C 43.414062 185.660156 42.835938 189.441406 43.496094 192.890625 C 44.152344 196.34375 46.292969 199.382812 48.761719 200.371094 C 48.863281 200.425781 48.972656 200.457031 49.089844 200.46875 C 49.207031 200.476562 49.320312 200.460938 49.429688 200.421875 C 49.539062 200.382812 49.636719 200.324219 49.722656 200.242188 C 49.804688 200.160156 49.871094 200.066406 49.914062 199.960938 C 50 199.734375 49.996094 199.507812 49.898438 199.285156 C 49.804688 199.0625 49.644531 198.902344 49.421875 198.808594 C 47.363281 197.988281 45.800781 195.355469 45.222656 192.480469 C 44.648438 189.605469 44.976562 186.480469 47.035156 184.507812 C 47.203125 184.359375 47.296875 184.171875 47.3125 183.949219 C 47.328125 183.726562 47.261719 183.527344 47.117188 183.359375 C 46.953125 183.183594 46.753906 183.089844 46.515625 183.074219 C 46.277344 183.058594 46.066406 183.125 45.882812 183.273438 Z M 45.882812 183.273438 " fill-opacity="1" fill-rule="evenodd"/><path fill="#1f3c74" d="M 321.875 184.507812 C 323.933594 186.480469 324.34375 189.6875 323.769531 192.480469 C 323.191406 195.273438 321.628906 197.988281 319.574219 198.808594 C 319.457031 198.84375 319.355469 198.902344 319.265625 198.984375 C 319.175781 199.0625 319.105469 199.160156 319.058594 199.269531 C 319.011719 199.382812 318.988281 199.496094 318.992188 199.617188 C 318.996094 199.738281 319.023438 199.851562 319.078125 199.960938 C 319.113281 200.066406 319.167969 200.15625 319.246094 200.238281 C 319.324219 200.316406 319.414062 200.378906 319.515625 200.417969 C 319.621094 200.457031 319.726562 200.472656 319.835938 200.464844 C 319.949219 200.457031 320.050781 200.425781 320.148438 200.371094 C 322.699219 199.382812 324.757812 196.34375 325.414062 192.890625 C 326.074219 189.441406 325.578125 185.660156 323.027344 183.273438 C 322.859375 183.117188 322.65625 183.042969 322.425781 183.050781 C 322.191406 183.058594 321.996094 183.148438 321.835938 183.316406 C 321.679688 183.488281 321.601562 183.6875 321.609375 183.921875 C 321.617188 184.152344 321.707031 184.347656 321.875 184.507812 Z M 321.875 184.507812 " fill-opacity="1" fill-rule="evenodd"/></svg>