<svg xmlns="http://www.w3.org/2000/svg" xmlns:xlink="http://www.w3.org/1999/xlink" width="500" zoomAndPan="magnify" viewBox="0 0 375 374.999991" height="500" preserveAspectRatio="xMidYMid meet" version="1.0"><defs><g/><clipPath id="cb706f4944"><path d="M 187.5 0 C 83.945312 0 0 83.945312 0 187.5 C 0 291.054688 83.945312 375 187.5 375 C 291.054688 375 375 291.054688 375 187.5 C 375 83.945312 291.054688 0 187.5 0 Z M 187.5 0 " clip-rule="nonzero"/></clipPath><clipPath id="04ca7cb50b"><path d="M 9.453125 137 L 86 137 L 86 228 L 9.453125 228 Z M 9.453125 137 " clip-rule="nonzero"/></clipPath><clipPath id="01ecba96f5"><path d="M 9.453125 86.378906 L 91 86.378906 L 91 160 L 9.453125 160 Z M 9.453125 86.378906 " clip-rule="nonzero"/></clipPath><clipPath id="613a3a65e6"><path d="M 289 137 L 365.703125 137 L 365.703125 228 L 289 228 Z M 289 137 " clip-rule="nonzero"/></clipPath><clipPath id="d29ac3c019"><path d="M 284 86.378906 L 365.703125 86.378906 L 365.703125 160 L 284 160 Z M 284 86.378906 " clip-rule="nonzero"/></clipPath><clipPath id="da4e65ccf0"><path d="M 90 129 L 285 129 L 285 303.878906 L 90 303.878906 Z M 90 129 " clip-rule="nonzero"/></clipPath><clipPath id="5f2cce9e7b"><path d="M 18 86.378906 L 365 86.378906 L 365 303.878906 L 18 303.878906 Z M 18 86.378906 " clip-rule="nonzero"/></clipPath><clipPath id="ca1a85cb5d"><path d="M 266.90625 266.90625 L 375 266.90625 L 375 375 L 266.90625 375 Z M 266.90625 266.90625 " clip-rule="nonzero"/></clipPath><clipPath id="b301433557"><path d="M 320.953125 266.90625 C 291.105469 266.90625 266.90625 291.105469 266.90625 320.953125 C 266.90625 350.800781 291.105469 375 320.953125 375 C 350.800781 375 375 350.800781 375 320.953125 C 375 291.105469 350.800781 266.90625 320.953125 266.90625 Z M 320.953125 266.90625 " clip-rule="nonzero"/></clipPath></defs><g clip-path="url(#cb706f4944)"><rect x="-37.5" width="450" fill="#000000" y="-37.499999" height="449.999989" fill-opacity="1"/></g><path fill="#eeb79e" d="M 112.914062 210.125 L 114.050781 160.226562 C 93.765625 162.984375 91.121094 177.398438 91.121094 177.398438 C 81.578125 170.816406 81.578125 170.816406 71.519531 170.191406 C 56.257812 169.253906 45.730469 177.742188 45.730469 177.742188 C 49.003906 167.109375 45.402344 162.289062 45.003906 151.300781 C 44.835938 146.496094 44.578125 144.773438 45.730469 134.824219 C 46.300781 129.863281 48.746094 123.976562 50.410156 119.316406 C 53.140625 121.164062 59.757812 118.09375 62.21875 116.628906 C 64.734375 115.121094 66.910156 113.160156 69.414062 111.636719 C 73.609375 109.09375 79.101562 106.761719 78.417969 101.246094 C 77.820312 96.355469 73.226562 94.097656 68.988281 92.234375 C 65.902344 90.882812 62.773438 86.417969 58.945312 87.328125 C 57.125 87.769531 56.15625 89.589844 54.707031 90.570312 C 53.097656 91.664062 51.109375 92.175781 49.34375 93.015625 C 47.082031 94.082031 45.019531 95.773438 42.84375 96.867188 C 37.308594 99.625 36.628906 103.519531 34.847656 108.824219 C 31.433594 119.058594 26.226562 127.558594 20.585938 136.886719 C 14.640625 146.707031 12.300781 155.679688 10.796875 166.851562 C 10.050781 172.367188 10.511719 178.621094 11.246094 184.011719 C 11.921875 188.984375 10.96875 194.574219 16.039062 197.671875 C 16.875 198.183594 18.148438 198.269531 19.136719 198.867188 C 20.0625 199.433594 20.800781 200.316406 21.667969 200.941406 C 28.804688 206.117188 36.753906 208.050781 45.089844 210.394531 C 52.929688 212.582031 59.785156 216.992188 67.75 218.953125 C 75.816406 220.929688 84.351562 221.15625 92.558594 219.863281 C 92.558594 219.863281 104.933594 219.40625 112.914062 210.125 " fill-opacity="1" fill-rule="nonzero"/><path stroke-linecap="butt" transform="matrix(0.142245, 0, 0, -0.142157, -114.764242, 497.779071)" fill="none" stroke-linejoin="miter" d="M 1447.395935 2253.712198 C 1447.395935 2253.712198 1445.693331 2210.790859 1477.49358 2186.30756 " stroke="#dea08d" stroke-width="20" stroke-opacity="1" stroke-miterlimit="10"/><g clip-path="url(#04ca7cb50b)"><path stroke-linecap="butt" transform="matrix(0.142245, 0, 0, -0.142157, -114.764242, 497.779071)" fill="none" stroke-linejoin="miter" d="M 1128.294985 2251.294095 C 1128.294985 2251.294095 1105.996364 2191.198724 1071.806976 2186.30756 " stroke="#dea08d" stroke-width="20" stroke-opacity="1" stroke-miterlimit="10"/></g><g clip-path="url(#01ecba96f5)"><path stroke-linecap="butt" transform="matrix(0.142245, 0, 0, -0.142157, -114.764242, 497.779071)" fill="none" stroke-linejoin="miter" d="M 1100.009789 2704.496173 C 1100.009789 2704.496173 1118.793356 2661.492398 1161.193688 2662.289273 " stroke="#dea08d" stroke-width="20" stroke-opacity="1" stroke-miterlimit="10"/></g><path fill="#eeb79e" d="M 262.386719 210.125 L 261.246094 160.226562 C 281.53125 162.984375 284.175781 177.398438 284.175781 177.398438 C 293.722656 170.816406 293.722656 170.816406 303.777344 170.191406 C 319.027344 169.253906 329.566406 177.742188 329.566406 177.742188 C 326.296875 167.109375 329.894531 162.289062 330.292969 151.300781 C 330.464844 146.480469 330.71875 144.773438 329.566406 134.824219 C 328.984375 129.863281 326.550781 123.976562 324.886719 119.316406 C 322.15625 121.164062 315.542969 118.09375 313.082031 116.628906 C 310.5625 115.121094 308.386719 113.160156 305.882812 111.636719 C 301.6875 109.09375 296.195312 106.761719 296.878906 101.246094 C 297.476562 96.355469 302.070312 94.097656 306.308594 92.234375 C 309.398438 90.882812 312.527344 86.417969 316.339844 87.328125 C 318.171875 87.769531 319.140625 89.574219 320.59375 90.570312 C 322.199219 91.664062 324.191406 92.175781 325.953125 93.015625 C 328.214844 94.082031 330.277344 95.773438 332.457031 96.867188 C 337.988281 99.625 338.671875 103.519531 340.449219 108.824219 C 343.863281 119.058594 349.070312 127.558594 354.714844 136.886719 C 360.664062 146.707031 362.996094 155.679688 364.503906 166.851562 C 365.242188 172.367188 364.789062 178.621094 364.046875 184.011719 C 363.378906 188.972656 364.332031 194.574219 359.253906 197.671875 C 358.429688 198.183594 357.148438 198.269531 356.167969 198.867188 C 355.230469 199.433594 354.488281 200.316406 353.636719 200.941406 C 346.496094 206.117188 338.542969 208.050781 330.207031 210.394531 C 322.371094 212.582031 315.5 216.992188 307.546875 218.953125 C 299.46875 220.929688 290.949219 221.15625 282.742188 219.863281 C 282.742188 219.863281 270.363281 219.40625 262.386719 210.125 " fill-opacity="1" fill-rule="nonzero"/><path stroke-linecap="butt" transform="matrix(0.142245, 0, 0, -0.142157, -114.764242, 497.779071)" fill="none" stroke-linejoin="miter" d="M 2804.591042 2253.712198 C 2804.591042 2253.712198 2806.293646 2210.790859 2774.493397 2186.30756 " stroke="#dea08d" stroke-width="20" stroke-opacity="1" stroke-miterlimit="10"/><g clip-path="url(#613a3a65e6)"><path stroke-linecap="butt" transform="matrix(0.142245, 0, 0, -0.142157, -114.764242, 497.779071)" fill="none" stroke-linejoin="miter" d="M 3123.691992 2251.294095 C 3123.691992 2251.294095 3145.990613 2191.198724 3180.207462 2186.30756 " stroke="#dea08d" stroke-width="20" stroke-opacity="1" stroke-miterlimit="10"/></g><g clip-path="url(#d29ac3c019)"><path stroke-linecap="butt" transform="matrix(0.142245, 0, 0, -0.142157, -114.764242, 497.779071)" fill="none" stroke-linejoin="miter" d="M 3152.00465 2704.496173 C 3152.00465 2704.496173 3133.193621 2661.492398 3090.793289 2662.289273 " stroke="#dea08d" stroke-width="20" stroke-opacity="1" stroke-miterlimit="10"/></g><g clip-path="url(#da4e65ccf0)"><path fill="#ec3152" d="M 187.648438 303.90625 L 101.960938 206.898438 C 85.035156 187.722656 86.855469 158.449219 106.042969 141.519531 C 125.230469 124.601562 154.507812 126.410156 171.460938 145.585938 L 187.648438 163.921875 L 203.835938 145.585938 C 220.777344 126.410156 250.066406 124.601562 269.242188 141.519531 C 288.445312 158.449219 290.28125 187.722656 273.339844 206.898438 L 187.648438 303.90625 " fill-opacity="1" fill-rule="nonzero"/></g><g clip-path="url(#5f2cce9e7b)"><path stroke-linecap="butt" transform="matrix(0.142245, 0, 0, -0.142157, -114.764242, 497.779071)" fill="none" stroke-linejoin="miter" d="M 1641.79487 2038.006365 L 2125.993488 2038.006365 L 2213.705058 2319.687957 L 2313.911544 1782.401821 L 2420.40668 2049.712184 L 2662.286299 2049.712184 " stroke="#ffffff" stroke-width="50" stroke-opacity="1" stroke-miterlimit="10"/></g><g clip-path="url(#ca1a85cb5d)"><g clip-path="url(#b301433557)"><path fill="#fecf40" d="M 266.90625 266.90625 L 375 266.90625 L 375 375 L 266.90625 375 Z M 266.90625 266.90625 " fill-opacity="1" fill-rule="nonzero"/></g></g><g fill="#000000" fill-opacity="1"><g transform="translate(314.189983, 338.578807)"><g><path d="M 11.171875 -25.03125 C 11.171875 -23.988281 11.15625 -22.941406 11.125 -21.890625 C 11.09375 -20.835938 11.054688 -19.785156 11.015625 -18.734375 C 10.953125 -17.015625 10.921875 -15.296875 10.921875 -13.578125 C 10.921875 -11.867188 10.867188 -10.15625 10.765625 -8.4375 C 10.734375 -7.851562 10.695312 -7.078125 10.65625 -6.109375 C 10.625 -5.148438 10.5 -4.203125 10.28125 -3.265625 C 10.0625 -2.335938 9.710938 -1.523438 9.234375 -0.828125 C 8.765625 -0.140625 8.109375 0.203125 7.265625 0.203125 C 6.453125 0.203125 5.789062 -0.0703125 5.28125 -0.625 C 4.769531 -1.1875 4.367188 -1.898438 4.078125 -2.765625 C 3.796875 -3.628906 3.601562 -4.59375 3.5 -5.65625 C 3.40625 -6.726562 3.347656 -7.78125 3.328125 -8.8125 C 3.304688 -9.84375 3.3125 -10.796875 3.34375 -11.671875 C 3.382812 -12.554688 3.40625 -13.238281 3.40625 -13.71875 C 3.40625 -16.019531 3.410156 -18.320312 3.421875 -20.625 C 3.441406 -22.925781 3.46875 -25.226562 3.5 -27.53125 C 2.820312 -28.101562 2.289062 -28.800781 1.90625 -29.625 C 1.519531 -30.457031 1.328125 -31.316406 1.328125 -32.203125 C 1.328125 -33.585938 1.738281 -34.769531 2.5625 -35.75 C 3.394531 -36.726562 4.539062 -37.21875 6 -37.21875 C 7.25 -37.21875 8.226562 -36.742188 8.9375 -35.796875 C 9.644531 -34.847656 10.160156 -33.710938 10.484375 -32.390625 C 10.804688 -31.078125 11 -29.734375 11.0625 -28.359375 C 11.132812 -26.992188 11.171875 -25.882812 11.171875 -25.03125 Z M 11.171875 -25.03125 "/></g></g></g></svg>