<svg xmlns="http://www.w3.org/2000/svg" xmlns:xlink="http://www.w3.org/1999/xlink" width="500" zoomAndPan="magnify" viewBox="0 0 375 374.999991" height="500" preserveAspectRatio="xMidYMid meet" version="1.0"><defs><g/><clipPath id="01c577cbeb"><path d="M 187.5 0 C 83.945312 0 0 83.945312 0 187.5 C 0 291.054688 83.945312 375 187.5 375 C 291.054688 375 375 291.054688 375 187.5 C 375 83.945312 291.054688 0 187.5 0 Z M 187.5 0 " clip-rule="nonzero"/></clipPath><clipPath id="17320ed575"><path d="M 62.800781 304 L 312.472656 304 L 312.472656 310.019531 L 62.800781 310.019531 Z M 62.800781 304 " clip-rule="nonzero"/></clipPath><clipPath id="ed7c7e2fd5"><path d="M 199 42.269531 L 218 42.269531 L 218 61 L 199 61 Z M 199 42.269531 " clip-rule="nonzero"/></clipPath><clipPath id="58818cc92f"><path d="M 266.90625 266.90625 L 375 266.90625 L 375 375 L 266.90625 375 Z M 266.90625 266.90625 " clip-rule="nonzero"/></clipPath><clipPath id="4fb2feeacc"><path d="M 320.953125 266.90625 C 291.105469 266.90625 266.90625 291.105469 266.90625 320.953125 C 266.90625 350.800781 291.105469 375 320.953125 375 C 350.800781 375 375 350.800781 375 320.953125 C 375 291.105469 350.800781 266.90625 320.953125 266.90625 Z M 320.953125 266.90625 " clip-rule="nonzero"/></clipPath></defs><g clip-path="url(#01c577cbeb)"><rect x="-37.5" width="450" fill="#000000" y="-37.499999" height="449.999989" fill-opacity="1"/></g><path fill="#d2a588" d="M 168.542969 212.082031 C 168.152344 212.90625 168.609375 213.878906 169.492188 214.117188 L 173.363281 217.664062 L 179.605469 221.359375 L 182.269531 227.828125 L 176.320312 227.464844 L 157.1875 225.640625 L 154.25 225.363281 L 154.25 200.730469 L 162.519531 195.0625 L 162.519531 195.054688 C 163.042969 190.835938 164.003906 186.699219 165.382812 182.695312 C 166.757812 178.699219 168.546875 174.84375 170.742188 171.199219 L 175.125 163.882812 C 175.15625 163.832031 175.132812 163.765625 175.078125 163.746094 L 164.65625 160.273438 C 163.054688 159.738281 161.429688 159.292969 159.78125 158.945312 L 159.472656 158.875 L 158.804688 158.734375 L 150.542969 156.96875 L 150.542969 156.960938 L 150.113281 156.871094 L 145.011719 155.777344 L 138.855469 135.457031 L 157.9375 132.992188 C 157.945312 132.992188 157.945312 132.992188 157.945312 132.992188 L 158 133.011719 L 173.261719 138.671875 C 173.296875 138.6875 173.328125 138.707031 173.363281 138.726562 C 180.796875 142.390625 187.394531 147.617188 192.695312 154.066406 L 193.988281 155.644531 C 195.277344 157.214844 195.472656 159.40625 194.480469 161.171875 L 181.960938 183.488281 L 170.042969 208.886719 L 168.542969 212.082031 " fill-opacity="1" fill-rule="nonzero"/><path fill="#af5d28" d="M 182.269531 227.828125 L 176.320312 227.464844 L 157.1875 225.640625 L 154.25 225.363281 L 154.25 214.96875 L 159.636719 210.429688 C 159.636719 210.429688 167.195312 210.429688 169.34375 209.199219 C 169.578125 209.0625 169.8125 208.960938 170.042969 208.886719 L 168.542969 212.082031 C 168.21875 212.769531 168.480469 213.558594 169.089844 213.941406 C 169.40625 214.140625 169.726562 214.332031 170.003906 214.585938 L 173.363281 217.664062 L 179.605469 221.359375 L 182.269531 227.828125 " fill-opacity="1" fill-rule="nonzero"/><path fill="#394a7b" d="M 287.945312 305.632812 L 280.128906 309.257812 L 206.773438 151.261719 L 214.589844 147.636719 L 287.945312 305.632812 " fill-opacity="1" fill-rule="nonzero"/><path fill="#394a7b" d="M 102.5 307.265625 L 91.128906 306.082031 L 224.128906 182.261719 L 230 188.570312 L 102.5 307.265625 " fill-opacity="1" fill-rule="nonzero"/><path fill="#394a7b" d="M 175.382812 235.878906 L 143.101562 225.292969 C 141.472656 224.757812 140.585938 223.007812 141.121094 221.382812 L 143.527344 214.046875 C 144.058594 212.421875 145.8125 211.535156 147.4375 212.066406 L 179.71875 222.65625 C 181.34375 223.1875 182.230469 224.941406 181.695312 226.570312 L 179.292969 233.898438 C 178.757812 235.527344 177.007812 236.414062 175.382812 235.878906 " fill-opacity="1" fill-rule="nonzero"/><path fill="#e97025" d="M 284.421875 248.496094 C 284.421875 268.617188 268.109375 284.925781 247.988281 284.925781 C 227.863281 284.925781 211.550781 268.617188 211.550781 248.496094 C 211.550781 228.371094 227.863281 212.058594 247.988281 212.058594 C 268.109375 212.058594 284.421875 228.371094 284.421875 248.496094 " fill-opacity="1" fill-rule="nonzero"/><path fill="#394a7b" d="M 261.511719 244.761719 C 265.09375 258.851562 199.132812 285.113281 179.632812 290.070312 C 160.128906 295.027344 141.414062 287.625 137.832031 273.535156 C 134.25 259.445312 147.15625 244 166.65625 239.042969 C 186.160156 234.085938 257.929688 230.671875 261.511719 244.761719 " fill-opacity="1" fill-rule="nonzero"/><path fill="#394a7b" d="M 156.128906 221.628906 L 146.636719 226.035156 L 116.035156 160.128906 L 125.53125 155.722656 L 156.128906 221.628906 " fill-opacity="1" fill-rule="nonzero"/><path fill="#d2a588" d="M 209.742188 108.019531 L 211.695312 119.03125 C 212.398438 123 212.835938 127.007812 213.003906 131.039062 L 213.367188 139.765625 L 220.957031 138.121094 C 225.3125 137.171875 229.789062 136.921875 234.222656 137.378906 L 245.390625 138.535156 L 254.484375 136.71875 C 256.566406 136.300781 258.726562 136.628906 260.589844 137.648438 L 260.671875 137.691406 C 262.917969 138.914062 264.046875 141.5 263.429688 143.972656 C 262.125 144.835938 260.546875 145.1875 259 144.96875 L 257.089844 144.695312 L 231.84375 139.152344 L 212.753906 144.695312 L 202.28125 137.304688 L 208.441406 107.746094 L 209.742188 108.019531 " fill-opacity="1" fill-rule="nonzero"/><path fill="#394a7b" d="M 128.386719 171.171875 L 106.945312 160.183594 C 102.5625 157.933594 101.355469 152.226562 104.453125 148.394531 L 106.292969 146.125 C 108.589844 143.289062 112.75 142.851562 115.589844 145.148438 L 132.46875 158.8125 L 128.386719 171.171875 " fill-opacity="1" fill-rule="nonzero"/><path fill="#394a7b" d="M 160.78125 297.542969 L 128.203125 286.855469 C 121.808594 284.757812 118.324219 277.878906 120.421875 271.480469 L 121.800781 267.269531 C 123.898438 260.878906 130.785156 257.390625 137.175781 259.488281 L 169.761719 270.175781 C 176.15625 272.273438 179.640625 279.15625 177.542969 285.554688 L 176.160156 289.761719 C 174.0625 296.15625 167.179688 299.640625 160.78125 297.542969 " fill-opacity="1" fill-rule="nonzero"/><g clip-path="url(#17320ed575)"><path fill="#394a7b" d="M 309.703125 310.035156 L 65.570312 310.035156 C 64.042969 310.035156 62.800781 308.796875 62.800781 307.265625 C 62.800781 305.734375 64.042969 304.492188 65.570312 304.492188 L 309.703125 304.492188 C 311.234375 304.492188 312.472656 305.734375 312.472656 307.265625 C 312.472656 308.796875 311.234375 310.035156 309.703125 310.035156 " fill-opacity="1" fill-rule="nonzero"/></g><path fill="#394a7b" d="M 175.515625 229.054688 L 172.5 226.355469 L 176.472656 221.914062 C 177.960938 220.25 180.519531 220.105469 182.183594 221.597656 L 175.515625 229.054688 " fill-opacity="1" fill-rule="nonzero"/><path fill="#394a7b" d="M 272.675781 140.207031 L 212.851562 158.910156 L 210.480469 151.332031 L 270.308594 132.628906 C 271.929688 132.121094 273.65625 133.023438 274.164062 134.644531 L 274.695312 136.351562 C 275.203125 137.976562 274.296875 139.699219 272.675781 140.207031 " fill-opacity="1" fill-rule="nonzero"/><path fill="#e3bca1" d="M 261.183594 145.589844 L 261.113281 145.789062 C 260.808594 146.617188 260.335938 147.34375 259.726562 147.933594 C 259.117188 148.53125 258.371094 148.988281 257.546875 149.265625 C 257.101562 149.410156 256.648438 149.480469 256.199219 149.480469 C 254.878906 149.480469 253.597656 148.871094 252.78125 147.773438 L 243.542969 142.847656 L 220.667969 149.140625 C 219.496094 149.460938 218.3125 149.726562 217.109375 149.925781 L 204.710938 152.070312 C 204.4375 152.121094 204.160156 152.140625 203.890625 152.140625 C 202.03125 152.140625 200.292969 151.0625 199.492188 149.328125 C 198.078125 146.257812 197.203125 142.976562 196.894531 139.613281 L 195.976562 129.511719 L 195.507812 124.371094 L 193.949219 126.152344 C 192.246094 128.105469 189.636719 129.003906 187.085938 128.527344 L 181.34375 127.449219 L 177.582031 129.128906 C 177.335938 129.238281 177.089844 129.339844 176.835938 129.441406 C 173.304688 130.902344 169.515625 131.640625 165.710938 131.640625 C 164.578125 131.640625 163.4375 131.578125 162.304688 131.441406 C 162.101562 131.417969 161.898438 131.40625 161.695312 131.40625 C 161.300781 131.40625 160.914062 131.449219 160.53125 131.539062 L 160.527344 131.539062 C 159.582031 131.757812 158.707031 132.230469 158.007812 132.933594 C 157.988281 132.953125 157.964844 132.96875 157.945312 132.992188 C 157.945312 132.992188 157.945312 132.992188 157.9375 132.992188 C 157.101562 133.820312 156.097656 134.460938 155 134.867188 C 152.949219 135.636719 151.300781 137.210938 150.433594 139.234375 L 147.769531 145.433594 C 146.8125 147.6875 146.921875 150.261719 148.089844 152.421875 L 150.433594 156.753906 C 150.46875 156.828125 150.511719 156.886719 150.542969 156.960938 L 150.542969 156.96875 C 151.34375 158.445312 152.101562 159.941406 152.816406 161.457031 C 156.921875 170.070312 159.824219 179.214844 161.429688 188.644531 L 162.519531 195.054688 L 162.519531 195.0625 L 162.988281 197.796875 C 163.3125 199.722656 163.160156 201.707031 162.542969 203.558594 L 161.023438 208.121094 C 161.023438 208.121094 158.941406 217.839844 157.1875 225.640625 C 156.078125 230.574219 155.105469 234.746094 154.867188 235.214844 C 154.558594 235.839844 153.621094 238.179688 152.765625 240.347656 C 151.710938 243.039062 151.171875 245.902344 151.171875 248.796875 L 151.171875 266.007812 L 156.097656 272.164062 L 159.390625 276.5625 C 160.882812 278.546875 162.648438 280.3125 164.632812 281.804688 L 168.503906 284.703125 C 169.8125 285.6875 169.546875 287.726562 168.027344 288.328125 L 166.695312 288.867188 C 165.820312 289.214844 164.839844 289.234375 163.949219 288.914062 L 147.765625 283.167969 C 146.753906 282.8125 145.707031 282.578125 144.640625 282.472656 L 136.816406 281.691406 C 135.949219 281.605469 135.148438 281.253906 134.5 280.71875 C 133.859375 280.183594 133.375 279.453125 133.132812 278.613281 C 132.851562 277.621094 132.882812 276.570312 133.226562 275.597656 L 135.898438 268.015625 L 136.390625 266.621094 L 137.140625 239.621094 C 137.460938 228.125 139.421875 216.730469 142.960938 205.789062 L 143.761719 203.3125 C 144.164062 202.070312 143.96875 200.722656 143.246094 199.636719 L 134.859375 187.210938 C 131.191406 181.765625 127.953125 176.058594 125.183594 170.125 C 123.773438 167.113281 122.480469 164.050781 121.3125 160.933594 L 119.148438 155.160156 L 115.09375 141.457031 C 112.667969 133.242188 115.046875 124.347656 121.253906 118.4375 L 122.128906 117.605469 C 123.410156 116.386719 124.949219 115.472656 126.628906 114.933594 L 142.511719 109.851562 L 144.429688 109.238281 C 151.234375 107.0625 157.570312 103.640625 163.117188 99.136719 C 163.199219 99.082031 163.269531 99.019531 163.34375 98.957031 L 168.457031 94.777344 C 172.898438 91.148438 178.050781 88.5 183.582031 87.011719 L 191.199219 84.960938 L 195.933594 83.121094 C 198.207031 82.234375 200.183594 80.800781 201.710938 78.976562 C 202.886719 77.578125 203.796875 75.949219 204.371094 74.167969 L 205.707031 70.011719 L 206.035156 69.007812 L 220.140625 84.34375 L 219.453125 85.289062 C 218.902344 86.039062 218.320312 86.761719 217.6875 87.4375 C 216.730469 88.472656 215.6875 89.414062 214.566406 90.257812 C 213.613281 90.980469 212.605469 91.625 211.550781 92.183594 C 210.640625 92.675781 209.695312 93.109375 208.726562 93.472656 C 208.632812 93.515625 208.53125 93.546875 208.441406 93.582031 L 209.121094 97.121094 C 209.609375 99.710938 209.859375 102.332031 209.859375 104.949219 C 209.859375 108.585938 209.382812 112.21875 208.441406 115.75 L 209.507812 128.011719 C 209.617188 129.28125 209.628906 130.550781 209.539062 131.820312 L 209.058594 138.535156 L 212.011719 138.144531 C 213.953125 137.882812 215.898438 137.753906 217.851562 137.753906 C 220.09375 137.753906 222.332031 137.925781 224.558594 138.265625 C 225.714844 138.445312 226.890625 138.480469 228.054688 138.363281 L 243.816406 136.84375 C 244.859375 136.738281 245.917969 136.746094 246.964844 136.855469 L 254.671875 137.667969 C 256.257812 137.835938 257.785156 138.382812 259.117188 139.269531 C 261.179688 140.648438 262.035156 143.253906 261.183594 145.589844 " fill-opacity="1" fill-rule="nonzero"/><path fill="#e97025" d="M 211.550781 92.183594 C 210.640625 92.675781 209.695312 93.109375 208.726562 93.472656 C 206.824219 91.335938 204.402344 88.613281 202.28125 86.191406 C 197.972656 81.265625 186.886719 86.191406 179.496094 95.429688 C 172.109375 104.667969 202.28125 112.054688 202.28125 112.054688 L 202.28125 123.757812 C 202.28125 123.757812 199.84375 126.84375 195.976562 129.511719 L 195.507812 124.371094 L 193.949219 126.152344 C 192.246094 128.105469 189.636719 129.003906 187.085938 128.527344 L 181.34375 127.449219 L 177.582031 129.128906 C 177.335938 129.238281 177.089844 129.339844 176.835938 129.441406 C 170.917969 122.703125 165.832031 108.25 163.117188 99.136719 C 163.199219 99.082031 163.269531 99.019531 163.34375 98.957031 L 168.457031 94.777344 C 172.898438 91.148438 178.050781 88.5 183.582031 87.011719 L 191.199219 84.960938 L 195.933594 83.121094 C 198.207031 82.234375 200.183594 80.800781 201.710938 78.976562 C 208.132812 82.148438 210.609375 87.960938 211.550781 92.183594 " fill-opacity="1" fill-rule="nonzero"/><path fill="#e3bca1" d="M 195.816406 129.605469 C 195.816406 129.605469 193.96875 109.902344 197.664062 106.207031 C 201.359375 102.511719 205.976562 108.359375 206.132812 118.675781 C 206.285156 128.992188 203.824219 135.765625 195.816406 129.605469 " fill-opacity="1" fill-rule="nonzero"/><path fill="#e97025" d="M 160.53125 131.539062 L 160.527344 131.539062 C 151.152344 127.125 145.636719 117.570312 142.511719 109.851562 L 126.628906 114.933594 C 124.949219 115.472656 123.410156 116.386719 122.128906 117.605469 L 121.253906 118.4375 C 115.046875 124.347656 112.667969 133.242188 115.09375 141.457031 L 119.148438 155.160156 L 121.3125 160.933594 C 122.480469 164.050781 123.773438 167.113281 125.183594 170.125 C 133.699219 162.496094 145.59375 161.339844 152.816406 161.457031 C 152.101562 159.941406 151.34375 158.445312 150.542969 156.96875 L 160.53125 131.539062 " fill-opacity="1" fill-rule="nonzero"/><path fill="#af5d28" d="M 168.027344 288.328125 L 166.695312 288.867188 C 165.820312 289.214844 164.839844 289.234375 163.949219 288.914062 L 147.765625 283.167969 C 146.753906 282.8125 145.707031 282.578125 144.640625 282.472656 L 136.816406 281.691406 C 135.949219 281.605469 135.148438 281.253906 134.5 280.71875 C 133.859375 280.183594 133.375 279.453125 133.132812 278.613281 C 132.851562 277.621094 132.882812 276.570312 133.226562 275.597656 L 135.898438 268.015625 C 140.535156 270.21875 145.8125 271.59375 147.640625 267.75 C 149.421875 264.023438 150.019531 260.195312 151.171875 258.050781 L 151.171875 266.007812 L 156.097656 272.164062 L 159.390625 276.5625 C 160.882812 278.546875 162.648438 280.3125 164.632812 281.804688 L 168.503906 284.703125 C 169.8125 285.6875 169.546875 287.726562 168.027344 288.328125 " fill-opacity="1" fill-rule="nonzero"/><path fill="#af5d28" d="M 173.363281 138.726562 C 171.351562 140.367188 159.207031 150.625 159.472656 158.875 L 158.804688 158.734375 L 150.542969 156.96875 L 150.542969 156.960938 L 150.113281 156.871094 C 148.664062 154.726562 145.929688 149.4375 149.144531 143.558594 C 153.148438 136.246094 158.476562 133.78125 160.34375 131.453125 L 173.261719 138.671875 C 173.296875 138.6875 173.328125 138.707031 173.363281 138.726562 " fill-opacity="1" fill-rule="nonzero"/><path fill="#394a7b" d="M 154.234375 293.863281 L 148.171875 289.589844 L 166.773438 263.171875 L 172.839844 267.441406 L 154.234375 293.863281 " fill-opacity="1" fill-rule="nonzero"/><path fill="#d2a588" d="M 220.140625 84.34375 L 219.453125 85.289062 C 218.902344 86.039062 218.320312 86.761719 217.6875 87.4375 C 211.75 82.722656 206.199219 75.324219 205.707031 70.011719 L 206.035156 69.007812 L 220.140625 84.34375 " fill-opacity="1" fill-rule="nonzero"/><path fill="#e3bca1" d="M 234.601562 80.238281 L 233.796875 80.238281 C 233.226562 85.257812 231.652344 89.269531 227.53125 89.269531 C 221.902344 89.269531 213.039062 81.777344 208.53125 74.476562 C 208.53125 74.476562 208.53125 74.476562 208.527344 74.476562 C 208.113281 73.816406 207.746094 73.15625 207.410156 72.503906 L 207.410156 72.496094 C 206.804688 71.296875 206.328125 70.121094 206.035156 69.007812 L 206.027344 68.992188 C 205.792969 68.117188 205.671875 67.277344 205.671875 66.488281 C 205.671875 58.15625 212.011719 51.398438 219.832031 51.398438 C 225.132812 51.398438 229.75 54.496094 232.175781 59.09375 C 232.207031 59.136719 232.226562 59.171875 232.242188 59.214844 C 232.261719 59.246094 232.273438 59.269531 232.285156 59.292969 C 232.292969 59.3125 232.296875 59.324219 232.304688 59.332031 C 232.539062 59.800781 232.753906 60.28125 232.9375 60.773438 C 233.621094 62.535156 233.996094 64.46875 233.996094 66.488281 C 233.996094 68.855469 234.109375 71.710938 234.085938 74.59375 L 235.917969 78.050781 C 236.441406 79.046875 235.722656 80.238281 234.601562 80.238281 " fill-opacity="1" fill-rule="nonzero"/><path fill="#394a7b" d="M 232.9375 60.773438 C 225.265625 56.980469 220.117188 64.609375 217.867188 69.636719 C 216.972656 67.550781 215.476562 66.25 214.296875 66.613281 C 212.949219 67.03125 212.519531 69.492188 213.335938 72.105469 C 213.527344 72.703125 213.761719 73.253906 214.03125 73.75 C 211.429688 74.820312 208.53125 74.476562 208.53125 74.476562 C 208.53125 74.476562 208.53125 74.476562 208.527344 74.476562 C 208.113281 73.816406 207.746094 73.15625 207.410156 72.503906 L 207.410156 72.496094 C 206.804688 71.296875 206.328125 70.121094 206.035156 69.007812 L 206.027344 68.992188 C 205.792969 68.117188 205.671875 67.277344 205.671875 66.488281 C 205.671875 58.15625 212.011719 51.398438 219.832031 51.398438 C 225.132812 51.398438 229.75 54.496094 232.175781 59.09375 C 232.207031 59.136719 232.226562 59.171875 232.242188 59.214844 C 232.261719 59.246094 232.273438 59.269531 232.285156 59.292969 C 232.292969 59.3125 232.296875 59.324219 232.304688 59.332031 C 232.539062 59.800781 232.753906 60.28125 232.9375 60.773438 " fill-opacity="1" fill-rule="nonzero"/><g clip-path="url(#ed7c7e2fd5)"><path fill="#394a7b" d="M 217.78125 51.398438 C 217.78125 56.445312 213.691406 60.535156 208.644531 60.535156 C 203.601562 60.535156 199.511719 56.445312 199.511719 51.398438 C 199.511719 46.355469 203.601562 42.265625 208.644531 42.265625 C 213.691406 42.265625 217.78125 46.355469 217.78125 51.398438 " fill-opacity="1" fill-rule="nonzero"/></g><g clip-path="url(#58818cc92f)"><g clip-path="url(#4fb2feeacc)"><path fill="#fecf40" d="M 266.90625 266.90625 L 375 266.90625 L 375 375 L 266.90625 375 Z M 266.90625 266.90625 " fill-opacity="1" fill-rule="nonzero"/></g></g><g fill="#000000" fill-opacity="1"><g transform="translate(307.38139, 338.578807)"><g><path d="M 28.640625 -20.46875 C 28.640625 -19.582031 28.398438 -18.882812 27.921875 -18.375 C 27.453125 -17.875 26.8125 -17.539062 26 -17.375 C 24.40625 -17 22.847656 -16.742188 21.328125 -16.609375 C 21.191406 -15.285156 21.070312 -13.972656 20.96875 -12.671875 C 20.875 -11.367188 20.773438 -10.070312 20.671875 -8.78125 C 20.597656 -8.175781 20.523438 -7.335938 20.453125 -6.265625 C 20.390625 -5.203125 20.234375 -4.160156 19.984375 -3.140625 C 19.734375 -2.128906 19.359375 -1.242188 18.859375 -0.484375 C 18.367188 0.273438 17.703125 0.65625 16.859375 0.65625 C 16.046875 0.65625 15.410156 0.300781 14.953125 -0.40625 C 14.492188 -1.113281 14.144531 -1.941406 13.90625 -2.890625 C 13.675781 -3.835938 13.523438 -4.796875 13.453125 -5.765625 C 13.390625 -6.734375 13.359375 -7.488281 13.359375 -8.03125 C 13.359375 -9.414062 13.398438 -10.773438 13.484375 -12.109375 C 13.566406 -13.453125 13.644531 -14.800781 13.71875 -16.15625 C 12.832031 -16.082031 11.945312 -16.035156 11.0625 -16.015625 C 10.1875 -16.003906 9.3125 -16 8.4375 -16 C 8.03125 -16 7.519531 -16.003906 6.90625 -16.015625 C 6.300781 -16.035156 5.691406 -16.078125 5.078125 -16.140625 C 4.472656 -16.210938 3.90625 -16.34375 3.375 -16.53125 C 2.851562 -16.71875 2.472656 -17 2.234375 -17.375 C 2.066406 -17.601562 1.941406 -18.015625 1.859375 -18.609375 C 1.773438 -19.203125 1.707031 -19.84375 1.65625 -20.53125 C 1.601562 -21.226562 1.578125 -21.898438 1.578125 -22.546875 C 1.578125 -23.191406 1.578125 -23.664062 1.578125 -23.96875 C 1.578125 -24.75 1.578125 -25.507812 1.578125 -26.25 C 1.578125 -27 1.609375 -27.765625 1.671875 -28.546875 C 1.710938 -29.285156 1.753906 -30.171875 1.796875 -31.203125 C 1.847656 -32.234375 2.019531 -33.222656 2.3125 -34.171875 C 2.601562 -35.117188 3.023438 -35.929688 3.578125 -36.609375 C 4.140625 -37.285156 4.945312 -37.625 6 -37.625 C 6.632812 -37.625 7.144531 -37.316406 7.53125 -36.703125 C 7.925781 -36.097656 8.234375 -35.390625 8.453125 -34.578125 C 8.671875 -33.765625 8.8125 -32.941406 8.875 -32.109375 C 8.945312 -31.285156 8.984375 -30.65625 8.984375 -30.21875 C 8.984375 -29.195312 8.941406 -28.175781 8.859375 -27.15625 C 8.773438 -26.144531 8.648438 -25.148438 8.484375 -24.171875 C 9.460938 -24.242188 10.429688 -24.300781 11.390625 -24.34375 C 12.359375 -24.394531 13.335938 -24.457031 14.328125 -24.53125 C 14.359375 -24.863281 14.414062 -25.546875 14.5 -26.578125 C 14.582031 -27.617188 14.691406 -28.722656 14.828125 -29.890625 C 14.960938 -31.054688 15.097656 -32.144531 15.234375 -33.15625 C 15.367188 -34.175781 15.503906 -34.835938 15.640625 -35.140625 C 15.910156 -35.785156 16.332031 -36.316406 16.90625 -36.734375 C 17.488281 -37.160156 18.148438 -37.375 18.890625 -37.375 C 19.773438 -37.375 20.398438 -37.101562 20.765625 -36.5625 C 21.140625 -36.019531 21.394531 -35.378906 21.53125 -34.640625 C 21.695312 -33.691406 21.796875 -32.707031 21.828125 -31.6875 C 21.867188 -30.675781 21.890625 -29.675781 21.890625 -28.6875 C 21.890625 -27.238281 21.835938 -25.785156 21.734375 -24.328125 C 22.484375 -24.253906 23.210938 -24.164062 23.921875 -24.0625 C 24.628906 -23.96875 25.359375 -23.835938 26.109375 -23.671875 C 26.921875 -23.492188 27.546875 -23.117188 27.984375 -22.546875 C 28.421875 -21.972656 28.640625 -21.28125 28.640625 -20.46875 Z M 28.640625 -20.46875 "/></g></g></g></svg>