<svg xmlns="http://www.w3.org/2000/svg" xmlns:xlink="http://www.w3.org/1999/xlink" width="500" zoomAndPan="magnify" viewBox="0 0 375 374.999991" height="500" preserveAspectRatio="xMidYMid meet" version="1.0"><defs><clipPath id="b1a50b4806"><path d="M 263 6.328125 L 317 6.328125 L 317 167 L 263 167 Z M 263 6.328125 " clip-rule="nonzero"/></clipPath><clipPath id="e3e3b110a6"><path d="M 188 325 L 258 325 L 258 368.578125 L 188 368.578125 Z M 188 325 " clip-rule="nonzero"/></clipPath></defs><path fill="#e1a87f" d="M 316.367188 14.679688 C 327.730469 25.613281 327.300781 30.597656 324.914062 39.210938 C 325.230469 39.777344 325.523438 40.304688 325.796875 40.789062 C 328.824219 46.191406 329.167969 46.808594 324.914062 47.757812 C 324.703125 52.359375 324.042969 55.023438 322.160156 59.886719 C 321.804688 67.910156 318.5 67.4375 313.292969 66.691406 C 312.859375 66.628906 312.414062 66.5625 311.953125 66.5 C 308.226562 66.53125 305.609375 68.429688 302.574219 71.464844 C 301.292969 72.742188 300.351562 73.941406 299.277344 75.308594 L 299.273438 75.308594 C 299.167969 75.445312 299.058594 75.582031 298.949219 75.722656 C 298.90625 75.773438 298.867188 75.824219 298.828125 75.875 C 297.449219 77.621094 295.773438 79.671875 292.921875 82.488281 L 284.921875 52.445312 C 286.21875 49.582031 286.671875 48.046875 286.578125 45.550781 C 284.109375 45.121094 282.335938 40.367188 281.890625 37.558594 C 281.019531 32.101562 285.78125 29.566406 289.335938 33.976562 C 295.441406 34.542969 297.078125 32.070312 299.265625 26.53125 C 301.949219 23.578125 303.234375 20.207031 304.175781 17.738281 C 304.699219 16.363281 305.117188 15.269531 305.609375 14.679688 C 306.371094 13.765625 307.886719 13.988281 310.023438 14.300781 C 311.753906 14.554688 313.894531 14.867188 316.367188 14.679688 Z M 300.535156 102.433594 C 300.277344 107.359375 300.007812 112.476562 300.367188 118.601562 C 300.519531 119.539062 300.660156 120.460938 300.789062 121.355469 C 310.269531 100.808594 306.105469 93.414062 300.367188 84.570312 C 301.128906 91.136719 300.839844 96.652344 300.535156 102.433594 Z M 293.050781 162.152344 C 292.738281 162.519531 292.421875 162.886719 292.09375 163.253906 C 296.253906 154.199219 296.535156 149.628906 293.75 142.304688 C 287.960938 155.621094 283.125 161.117188 271.683594 165.84375 C 270.601562 179.925781 271.148438 187.734375 273.339844 201.570312 C 274.875 212.933594 275.578125 219.339844 274.164062 231.34375 C 271.496094 234.449219 270.851562 236.636719 270.582031 240.992188 C 270.105469 242.097656 269.203125 243.324219 268.308594 244.550781 C 267.152344 246.121094 266.003906 247.6875 265.769531 248.984375 C 265.65625 249.609375 265.757812 250.167969 266.167969 250.636719 C 267.171875 251.785156 268.550781 250.84375 270.027344 249.441406 C 270.417969 249.074219 270.8125 248.675781 271.210938 248.273438 C 272.210938 247.265625 273.21875 246.242188 274.164062 245.675781 C 276.652344 246.605469 277.691406 247.375 276.609375 250.085938 C 276.539062 250.261719 276.460938 250.445312 276.371094 250.636719 C 275.464844 252.75 274.652344 253.84375 270.582031 255.046875 C 270.480469 258.222656 272.09375 259.125 276.371094 260.011719 C 278.855469 261.558594 279.453125 260.714844 280.507812 259.183594 C 282.902344 258.8125 284.164062 257.757812 284.996094 256.152344 C 285.648438 254.878906 286.03125 253.265625 286.480469 251.363281 L 286.558594 251.035156 C 286.589844 250.90625 286.621094 250.773438 286.652344 250.636719 C 286.71875 250.367188 286.785156 250.089844 286.855469 249.808594 C 286.75 249.027344 286.652344 248.285156 286.566406 247.578125 C 285.808594 241.523438 285.589844 237.988281 285.75 232.996094 C 286.457031 226.714844 286.472656 223.847656 285.75 220.039062 L 290.164062 190.269531 C 292.9375 179.660156 293.519531 173.492188 293.050781 162.152344 Z M 212.9375 227.484375 C 212.9375 227.484375 214.492188 238.066406 215.03125 244.847656 C 215.210938 247.09375 215.277344 248.921875 215.140625 249.808594 C 215.074219 250.261719 214.863281 250.722656 214.546875 251.1875 C 212.324219 254.425781 204.734375 257.714844 201.351562 256.703125 C 198.054688 256.363281 196.6875 255.972656 196.109375 254.496094 C 192.921875 253.292969 191.8125 252.347656 191.972656 249.808594 C 195.636719 250.4375 196.597656 248.464844 197.488281 243.195312 C 197.0625 233.421875 197.277344 229.488281 198.316406 224.726562 C 200.917969 220.527344 201.785156 217.59375 202.179688 211.21875 C 204.449219 184.660156 206.789062 170.609375 215.96875 149.472656 C 215.8125 146.34375 215.75 143.554688 215.816406 140.925781 C 201.867188 128.953125 197.65625 118.996094 194.457031 97.375 C 202.996094 93.511719 206.347656 90.894531 211.832031 86.074219 C 206.097656 92.734375 210.929688 100.921875 218.671875 114.039062 C 219.226562 114.980469 219.796875 115.949219 220.382812 116.945312 C 221.03125 106.160156 222.734375 100.96875 226.449219 92.136719 C 222.125 87.597656 220.9375 84.519531 220.382812 78.355469 C 223.210938 73.613281 225.023438 72.03125 228.382812 69.808594 C 240.714844 58.699219 248.761719 57.109375 263.132812 54.375 L 265.0625 54.375 C 266.929688 63.613281 266.683594 76.847656 266.445312 89.59375 L 266.433594 90.207031 C 260.410156 100.101562 257.1875 103.222656 251.824219 102.613281 C 249.273438 115.386719 246.847656 122.675781 242.445312 135.691406 C 241.355469 138.28125 240.394531 140.390625 239.402344 142.304688 C 237.726562 145.53125 235.964844 148.203125 233.347656 151.679688 C 232.953125 155.804688 232.117188 160.3125 231.078125 164.742188 C 228.453125 175.957031 224.523438 186.675781 223.140625 189.441406 C 221.210938 193.300781 216.796875 214.527344 216.519531 217.285156 C 216.246094 220.039062 212.9375 227.484375 212.9375 227.484375 Z M 193.628906 322.355469 C 193.9375 325.726562 194.082031 327.804688 193.785156 330.851562 C 193.742188 331.289062 193.691406 331.746094 193.628906 332.230469 C 193.371094 340.785156 197.574219 339.289062 207.144531 333.609375 C 208.316406 331.464844 216.199219 325.761719 217.902344 325.890625 C 218.109375 325.90625 217.726562 325.277344 217.148438 324.316406 C 216.304688 322.921875 215.035156 320.824219 214.546875 319 C 206.683594 322.222656 202.074219 323.058594 193.628906 322.355469 Z M 229.417969 325.890625 C 229.835938 330.132812 230.972656 332.914062 233.621094 332.507812 C 236.007812 332.140625 238.167969 330.5 241.125 328.261719 C 242.609375 327.136719 244.292969 325.859375 246.308594 324.511719 C 246.78125 323.195312 247.359375 322.425781 249.617188 320.929688 L 248.515625 319 L 229.207031 320.929688 C 229.210938 322.714844 229.269531 324.394531 229.417969 325.890625 Z M 266.378906 93.238281 C 262.042969 100.25 260.101562 110.882812 261.203125 118.601562 C 262.304688 126.316406 264.777344 128.574219 270.1875 129.625 C 269.667969 127.566406 269.058594 125.539062 268.375 123.5625 C 266.15625 117.171875 266.164062 105.648438 266.378906 93.238281 Z M 266.378906 93.238281 " fill-opacity="1" fill-rule="evenodd"/><g clip-path="url(#b1a50b4806)"><path fill="#000000" d="M 292.921875 82.488281 L 284.921875 52.445312 C 286.21875 49.582031 286.671875 48.046875 286.578125 45.550781 C 284.109375 45.121094 282.335938 40.367188 281.890625 37.558594 C 281.019531 32.101562 285.78125 29.566406 289.335938 33.976562 C 295.441406 34.542969 297.078125 32.070312 299.265625 26.53125 C 301.949219 23.578125 303.234375 20.207031 304.175781 17.738281 C 304.699219 16.363281 305.117188 15.269531 305.609375 14.679688 C 306.371094 13.765625 307.886719 13.988281 310.023438 14.300781 C 311.753906 14.554688 313.894531 14.867188 316.367188 14.679688 C 316.367188 14.679688 315.539062 6.410156 299.265625 6.410156 C 282.992188 6.410156 279.40625 17.988281 279.40625 17.988281 C 264.394531 22.433594 262.777344 32.59375 263.132812 54.375 L 265.0625 54.375 C 266.929688 63.613281 266.683594 76.847656 266.445312 89.59375 L 266.433594 90.207031 C 266.414062 91.222656 266.394531 92.234375 266.378906 93.238281 C 266.164062 105.648438 266.15625 117.171875 268.375 123.5625 C 269.058594 125.539062 269.667969 127.566406 270.1875 129.625 C 271.125 133.3125 271.796875 137.105469 272.191406 140.925781 C 273.085938 149.550781 272.585938 158.3125 270.582031 166.289062 C 270.953125 166.140625 271.324219 165.992188 271.683594 165.84375 C 283.125 161.117188 287.960938 155.621094 293.75 142.304688 C 296.535156 149.628906 296.253906 154.199219 292.09375 163.253906 C 292.421875 162.886719 292.738281 162.519531 293.050781 162.152344 C 301.992188 151.582031 303.824219 142.058594 300.789062 121.355469 C 300.660156 120.460938 300.519531 119.539062 300.367188 118.601562 C 300.007812 112.476562 300.277344 107.359375 300.535156 102.433594 C 300.839844 96.652344 301.128906 91.136719 300.367188 84.570312 C 300.054688 81.878906 299.566406 79.011719 298.828125 75.875 C 297.449219 77.621094 295.773438 79.671875 292.921875 82.488281 Z M 292.921875 82.488281 " fill-opacity="1" fill-rule="nonzero"/></g><g clip-path="url(#e3e3b110a6)"><path fill="#030303" d="M 207.144531 333.609375 C 197.574219 339.289062 193.371094 340.785156 193.628906 332.230469 C 193.691406 331.746094 193.742188 331.289062 193.785156 330.851562 C 190.757812 331.3125 189.648438 332.816406 190.042969 340.5 C 188.886719 343.0625 188.8125 345.554688 189.214844 350.976562 C 187.683594 355.464844 187.644531 358.058594 189.214844 362.828125 C 192.386719 364.382812 199.535156 364.703125 204.9375 364.949219 L 204.941406 364.949219 L 205.367188 364.96875 C 207.488281 365.066406 209.304688 365.15625 210.453125 365.308594 C 214.546875 365.859375 235.550781 368.066406 240.515625 368.339844 C 244.964844 368.589844 249.796875 367.277344 255.171875 365.820312 L 255.488281 365.734375 C 255.660156 365.6875 255.835938 365.640625 256.011719 365.59375 C 256.363281 365.5 256.710938 365.402344 257.066406 365.308594 C 257.066406 365.113281 257.070312 364.917969 257.074219 364.722656 C 257.074219 364.5 257.078125 364.28125 257.082031 364.0625 L 257.082031 364.03125 C 257.128906 360.707031 257.160156 358.300781 256.339844 356.765625 C 256.105469 356.328125 255.800781 355.957031 255.410156 355.660156 C 253.890625 350.027344 250.238281 348.820312 245.21875 347.160156 C 244.167969 346.8125 243.058594 346.445312 241.894531 346.011719 C 235.773438 342.003906 231.324219 338.921875 227.125 335.261719 C 224.097656 332.628906 221.203125 329.691406 217.902344 325.890625 C 216.199219 325.761719 208.316406 331.464844 207.144531 333.609375 Z M 207.144531 333.609375 " fill-opacity="1" fill-rule="nonzero"/></g><path fill="#030303" d="M 249.617188 320.929688 C 247.359375 322.425781 246.78125 323.195312 246.308594 324.511719 C 244.292969 325.859375 242.609375 327.136719 241.125 328.261719 C 238.167969 330.5 236.007812 332.140625 233.621094 332.507812 C 230.972656 332.914062 229.835938 330.132812 229.417969 325.890625 C 226.742188 328.027344 226.871094 330.519531 227.089844 334.628906 C 227.09375 334.738281 227.101562 334.851562 227.109375 334.96875 C 227.113281 335.066406 227.117188 335.164062 227.125 335.261719 C 231.324219 338.921875 235.773438 342.003906 241.894531 346.011719 C 243.058594 346.445312 244.167969 346.8125 245.21875 347.160156 C 250.238281 348.820312 253.890625 350.027344 255.410156 355.660156 C 255.800781 355.957031 256.105469 356.328125 256.339844 356.765625 C 273.039062 357.347656 281.648438 357.0625 291.816406 352.351562 C 292.253906 348.085938 292.304688 345.964844 290.4375 344.910156 C 289.125 339.015625 281.613281 338.019531 274.71875 337.742188 C 269.066406 337.519531 261.707031 331.222656 254.410156 324.976562 C 252.804688 323.605469 251.199219 322.234375 249.617188 320.929688 Z M 249.617188 320.929688 " fill-opacity="1" fill-rule="nonzero"/><path fill="#020202" d="M 104.816406 231.066406 C 109.523438 238.386719 109.738281 242.488281 104.816406 249.808594 L 50.757812 247.925781 C 47.445312 283.441406 71.71875 321.757812 104.816406 322.859375 C 137.914062 323.960938 159.425781 287.851562 164.941406 249.808594 C 164.96875 249.625 164.996094 249.445312 165.023438 249.257812 C 165.378906 246.6875 165.625 244.113281 165.761719 241.542969 C 167.648438 206.257812 149.269531 171.96875 121.640625 163.53125 C 91.851562 154.433594 63.929688 180.183594 53.789062 228.25 Z M 104.816406 231.066406 " fill-opacity="1" fill-rule="nonzero"/><path fill="#020202" d="M 9.9375 225.828125 C 0.00390625 232.246094 1.257812 242.898438 9.9375 246.503906 L 50.757812 247.925781 L 104.816406 249.808594 C 109.738281 242.488281 109.523438 238.386719 104.816406 231.066406 L 53.789062 228.25 Z M 9.9375 225.828125 " fill-opacity="1" fill-rule="nonzero"/><path fill="#020202" d="M 191.972656 249.808594 C 195.636719 250.4375 196.597656 248.464844 197.488281 243.195312 L 184.800781 242.535156 L 165.761719 241.542969 C 165.625 244.113281 165.378906 246.6875 165.023438 249.257812 L 183.148438 249.628906 Z M 191.972656 249.808594 " fill-opacity="1" fill-rule="nonzero"/><path fill="#020202" d="M 270.582031 255.046875 C 274.652344 253.84375 275.464844 252.75 276.371094 250.636719 C 276.460938 250.445312 276.539062 250.261719 276.609375 250.085938 C 274.785156 249.996094 270.910156 249.738281 270.027344 249.441406 C 268.550781 250.84375 267.171875 251.785156 266.167969 250.636719 C 265.757812 250.167969 265.65625 249.609375 265.769531 248.984375 L 248.515625 247.578125 L 218.621094 245.140625 L 216.519531 244.96875 L 215.03125 244.847656 C 215.210938 247.09375 215.277344 248.921875 215.140625 249.808594 C 215.074219 250.261719 214.863281 250.722656 214.546875 251.1875 L 215.140625 251.230469 L 218.621094 251.46875 L 248.515625 253.527344 Z M 270.582031 255.046875 " fill-opacity="1" fill-rule="nonzero"/><path fill="#020202" d="M 316.917969 252.84375 L 286.652344 250.636719 C 286.621094 250.773438 286.589844 250.90625 286.558594 251.035156 L 286.480469 251.363281 C 286.03125 253.265625 285.648438 254.878906 284.996094 256.152344 L 316.089844 258.355469 C 316.089844 258.355469 315.261719 263.042969 322.160156 263.871094 C 329.054688 264.695312 329.878906 257.527344 329.878906 256.152344 C 329.878906 256.015625 329.886719 255.847656 329.898438 255.660156 C 329.984375 253.972656 330.15625 250.472656 325.191406 248.984375 C 319.675781 247.332031 316.917969 252.84375 316.917969 252.84375 Z M 316.917969 252.84375 " fill-opacity="1" fill-rule="nonzero"/><path fill="#020202" d="M 286.855469 249.808594 C 286.785156 250.089844 286.71875 250.367188 286.652344 250.636719 L 316.917969 252.84375 C 316.917969 252.84375 319.675781 247.332031 325.191406 248.984375 C 330.15625 250.472656 329.984375 253.972656 329.898438 255.660156 C 329.886719 255.847656 329.878906 256.015625 329.878906 256.152344 C 329.878906 257.527344 329.054688 264.695312 322.160156 263.871094 C 315.261719 263.042969 316.089844 258.355469 316.089844 258.355469 L 284.996094 256.152344 C 285.136719 286.691406 307.261719 306.871094 325.191406 305.492188 C 343.121094 304.113281 375 292.804688 369.875 247.578125 C 369.875 247.578125 363.53125 208.1875 328.226562 209.015625 C 292.921875 209.839844 286.566406 247.578125 286.566406 247.578125 C 286.652344 248.285156 286.75 249.027344 286.855469 249.808594 Z M 286.855469 249.808594 " fill-opacity="1" fill-rule="nonzero"/><path fill="#fecf40" d="M 226.449219 92.136719 C 222.125 87.597656 220.9375 84.519531 220.382812 78.355469 L 211.832031 86.074219 C 206.097656 92.734375 210.929688 100.921875 218.671875 114.039062 C 219.226562 114.980469 219.796875 115.949219 220.382812 116.945312 C 221.03125 106.160156 222.734375 100.96875 226.449219 92.136719 Z M 226.449219 92.136719 " fill-opacity="1" fill-rule="nonzero"/><path fill="#fecf40" d="M 215.96875 149.472656 C 215.8125 146.34375 215.75 143.554688 215.816406 140.925781 C 201.867188 128.953125 197.65625 118.996094 194.457031 97.375 C 181.527344 95.710938 177.632812 95.722656 161.910156 99.304688 C 146.1875 102.886719 132.949219 121.082031 137.914062 139.273438 C 142.878906 157.46875 162.871094 185.539062 186.457031 215.078125 C 187.824219 225.816406 188.421875 231.835938 184.800781 242.535156 L 197.488281 243.195312 C 197.0625 233.421875 197.277344 229.488281 198.316406 224.726562 C 200.917969 220.527344 201.785156 217.59375 202.179688 211.21875 C 204.449219 184.660156 206.789062 170.609375 215.96875 149.472656 Z M 215.96875 149.472656 " fill-opacity="1" fill-rule="nonzero"/><path fill="#fecf40" d="M 251.824219 102.613281 C 249.273438 115.386719 246.847656 122.675781 242.445312 135.691406 C 241.355469 138.28125 240.394531 140.390625 239.402344 142.304688 C 241.59375 141.875 243.816406 141.164062 245.796875 140.53125 C 248.476562 139.671875 250.714844 138.957031 251.824219 139.273438 C 252.078125 139.347656 252.445312 139.480469 252.921875 139.652344 C 256.066406 140.792969 263.804688 143.597656 272.191406 140.925781 C 271.796875 137.105469 271.125 133.3125 270.1875 129.625 C 264.777344 128.574219 262.304688 126.316406 261.203125 118.601562 C 260.101562 110.882812 262.042969 100.25 266.378906 93.238281 C 266.394531 92.234375 266.414062 91.222656 266.433594 90.207031 C 260.410156 100.101562 257.1875 103.222656 251.824219 102.613281 Z M 251.824219 102.613281 " fill-opacity="1" fill-rule="nonzero"/><path fill="#fecf40" d="M 223.140625 189.441406 C 221.210938 193.300781 216.796875 214.527344 216.519531 217.285156 C 216.246094 220.039062 212.9375 227.484375 212.9375 227.484375 C 212.9375 227.484375 214.492188 238.066406 215.03125 244.847656 L 216.519531 244.96875 C 216.519531 244.96875 219.507812 232.664062 219.277344 224.726562 C 221.191406 227.5 220.597656 231.550781 220.054688 235.292969 C 219.976562 235.820312 219.898438 236.34375 219.832031 236.855469 C 219.277344 240.992188 218.621094 245.140625 218.621094 245.140625 L 248.515625 247.578125 C 246.953125 234.363281 250.722656 217.285156 250.171875 212.871094 C 249.617188 208.460938 243.273438 198.539062 241.34375 194.128906 C 239.414062 189.71875 231.691406 166.289062 231.691406 166.289062 L 231.078125 164.742188 C 228.453125 175.957031 224.523438 186.675781 223.140625 189.441406 Z M 223.140625 189.441406 " fill-opacity="1" fill-rule="nonzero"/><path fill="#fecf40" d="M 201.351562 256.703125 C 198.054688 256.363281 196.6875 255.972656 196.109375 254.496094 C 192.921875 253.292969 191.8125 252.347656 191.972656 249.808594 L 183.148438 249.628906 C 180.820312 266.496094 184.3125 282.480469 191.972656 312.933594 L 193.078125 322.308594 C 193.261719 322.324219 193.445312 322.339844 193.628906 322.355469 C 202.074219 323.058594 206.683594 322.222656 214.546875 319 C 209.75 301.460938 210.457031 285.597656 215.140625 251.230469 L 214.546875 251.1875 C 212.324219 254.425781 204.734375 257.714844 201.351562 256.703125 Z M 201.351562 256.703125 " fill-opacity="1" fill-rule="nonzero"/><path fill="#fecf40" d="M 248.515625 286.746094 C 249.175781 272.960938 249.347656 265.46875 248.515625 253.527344 L 218.621094 251.46875 C 218.609375 265.101562 219.941406 271.132812 222.863281 281.234375 C 227.382812 294.292969 228.496094 303.316406 229.207031 320.929688 L 248.515625 319 C 247.597656 307.175781 247.097656 300.53125 248.515625 286.746094 Z M 248.515625 286.746094 " fill-opacity="1" fill-rule="nonzero"/></svg>